<?xml version="1.0" standalone="no"?>
<!DOCTYPE svg PUBLIC "-//W3C//DTD SVG 1.1//EN" "http://www.w3.org/Graphics/SVG/1.1/DTD/svg11.dtd" >
<svg>
<metadata>
Created by FontForge 20090914 at Fri Nov 14 20:38:10 2014
 By www-data
(c) ThyssenKrupp and Dalton Maag Ltd 1999. The type face is for exclusive use by ThyssenKrupp and its suppliers. All rights reserved, 1999
</metadata>
<defs>
<font id="TKTypeBold" horiz-adv-x="1159" >
  <font-face 
    font-family="TKTypeBold"
    font-weight="700"
    font-stretch="normal"
    units-per-em="2048"
    panose-1="2 11 8 6 4 0 0 2 0 4"
    ascent="1610"
    descent="-438"
    x-height="1065"
    cap-height="1475"
    bbox="-246 -434.003 2619 1808"
    underline-thickness="100"
    underline-position="-154"
    unicode-range="U+0020-U+FB02"
  />
<missing-glyph horiz-adv-x="1044" 
 />
    <glyph glyph-name=".notdef" horiz-adv-x="1044" 
 />
    <glyph glyph-name="visiblespace" unicode=" " horiz-adv-x="532" 
 />
    <glyph glyph-name="exclam" unicode="!" horiz-adv-x="606" 
d="M156 0v301h295v-301h-295zM426 440h-248l-22 1035h293z" />
    <glyph glyph-name="quotedbl" unicode="&#x22;" horiz-adv-x="895" 
d="M342 928h-182l-47 364v183h274v-183zM735 928h-182l-47 364v183h276v-183z" />
    <glyph glyph-name="numbersign" unicode="#" horiz-adv-x="1071" 
d="M489 856l-63 -287h154l63 287h-154zM842 856l-64 -287h162v-174h-199l-86 -395h-198l86 395h-154l-86 -395h-199l86 395h-159v174h196l64 287h-160v174h197l86 395h198l-86 -395h154l86 395h199l-86 -395h161v-174h-198z" />
    <glyph glyph-name="dollar" unicode="$" 
d="M805 358c0 43.333 -10.6689 80.833 -32.002 112.5s-57.666 59.167 -108.999 82.5c-3.33301 1.33301 -7.66602 3.33301 -12.999 6v-373c22.667 4.66699 43 10.667 61 18s33.333 17 46 29c31.333 28 47 69.667 47 125zM495.998 1262
c-55.333 -11.333 -95.668 -36.002 -121.001 -74.002c-23.333 -33.333 -35 -75.666 -35 -126.999c0 -21.333 3.83301 -40.666 11.5 -57.999s18.334 -33.333 32.001 -48s30 -28 49 -40s40.167 -23.333 63.5 -34v381zM1059 386.998c0 -45.333 -6.83008 -90.833 -20.4971 -136.5
s-36.5 -87.834 -68.5 -126.501s-74 -71.834 -126 -99.501s-116.333 -45.5 -193 -53.5v-209h-155v207c-74.667 7.33301 -138.834 24 -192.501 50s-99.5 60 -137.5 102c-23.333 26.667 -44.166 56.167 -62.499 88.5s-33.833 66.833 -46.5 103.5l217 99
c24 -62.667 53.333 -113.167 88 -151.5s79.334 -63.166 134.001 -74.499v435l-23.5 9c-7 2.66699 -14.167 5.66699 -21.5 9c-60.667 22.667 -116.5 48 -167.5 76s-92.833 64 -125.5 108c-20.667 28 -36.834 60.167 -48.501 96.5s-17.5 79.5 -17.5 129.5
c0 20.667 1.5 43.667 4.5 69s8.33301 51 16 77s18.5 52 32.5 78s32 50.333 54 73c30 32 68.833 59.167 116.5 81.5s107.834 36.5 180.501 42.5v127h155v-127c53.333 -4.66699 101 -14.5 143 -29.5s79.333 -34.667 112 -59s60.667 -53 84 -86s43 -69.5 59 -109.5l-213 -111
c-24 54.667 -50.833 96.334 -80.5 125.001s-64.5 47.667 -104.5 57v-436l12.5 -4l12.5 -4c31.333 -12 62.666 -24.667 93.999 -38s61.166 -28.5 89.499 -45.5s54.666 -36 78.999 -57s45.166 -45.167 62.499 -72.5c8 -12 15.5 -24.667 22.5 -38s13.167 -28.5 18.5 -45.5
s9.5 -36 12.5 -57s4.5 -45.167 4.5 -72.5z" />
    <glyph glyph-name="percent" unicode="%" horiz-adv-x="1841" 
d="M532 1024c0 50 -1.83301 90.5 -5.5 121.5s-8.16699 55.333 -13.5 73s-11 30.5 -17 38.5s-11.667 14.333 -17 19c-16.667 14.667 -42 22 -76 22c-33.333 0 -58.333 -7.33301 -75 -22c-5.33301 -4.66699 -11.166 -11 -17.499 -19s-12.166 -20.833 -17.499 -38.5
s-9.83301 -42 -13.5 -73s-5.5 -71.5 -5.5 -121.5c0 -50.667 1.83301 -91.5 5.5 -122.5s8.16699 -55.5 13.5 -73.5s11.166 -31 17.499 -39s12.166 -14.333 17.499 -19c16.667 -14.667 41.667 -22 75 -22c34 0 59.333 7.33301 76 22c5.33301 4.66699 11 11 17 19
s11.667 21 17 39s9.83301 42.5 13.5 73.5s5.5 71.833 5.5 122.5zM1567 418c0 50 -1.83105 90.333 -5.49805 121s-8.16699 55 -13.5 73s-11.166 31 -17.499 39s-12.166 14.333 -17.499 19c-16.667 14.667 -41.667 22 -75 22c-34 0 -59.333 -7.33301 -76 -22
c-5.33301 -4.66699 -11 -11 -17 -19s-11.667 -21 -17 -39s-9.83301 -42.333 -13.5 -73s-5.5 -71 -5.5 -121c0 -50.667 1.83301 -91.5 5.5 -122.5s8.16699 -55.5 13.5 -73.5s11 -31 17 -39s11.667 -14.333 17 -19c17.333 -15.333 42.666 -23 75.999 -23
c17.333 0 32.166 2 44.499 6s22.5 9.66699 30.5 17c5.33301 4.66699 11.166 11 17.499 19s12.166 21 17.499 39s9.83301 42.5 13.5 73.5s5.5 71.833 5.5 122.5zM760.002 1024c0 -40.667 -1.5 -79.168 -4.5 -115.501s-8.66699 -70.166 -17 -101.499s-20.333 -60.5 -36 -87.5
s-36.167 -51.167 -61.5 -72.5c-30 -25.333 -64.667 -44 -104 -56s-84 -18 -134 -18s-93.333 5.5 -130 16.5s-68.334 26.167 -95.001 45.5c-26.667 20 -48.5 43.833 -65.5 71.5s-30.333 58.167 -40 91.5s-16.334 69 -20.001 107s-5.5 77.667 -5.5 119
c0 40.667 1.83301 80.167 5.5 118.5s10.334 74.166 20.001 107.499s23 63.833 40 91.5s38.833 51.5 65.5 71.5c26.667 19.333 58.334 34.5 95.001 45.5s80 16.5 130 16.5c50.667 0 94.167 -5.5 130.5 -16.5s68.166 -26.167 95.499 -45.5c26.667 -20 48.5 -43.833 65.5 -71.5
s30.333 -58.167 40 -91.5s16.334 -69.166 20.001 -107.499s5.5 -77.833 5.5 -118.5zM778.002 -33.001h-225l510 1508h225zM1794 417.999c0 -40.667 -1.33496 -79.168 -4.00195 -115.501s-8.33398 -70.166 -17.001 -101.499s-20.667 -60.5 -36 -87.5s-36 -51.167 -62 -72.5
c-30 -25.333 -64.667 -44 -104 -56s-83.666 -18 -132.999 -18c-50.667 0 -94.167 5.5 -130.5 16.5s-68.166 26.167 -95.499 45.5c-26.667 20 -48.5 43.833 -65.5 71.5s-30.333 58.167 -40 91.5s-16.334 69 -20.001 107s-5.5 77.667 -5.5 119
c0 40.667 1.83301 80.167 5.5 118.5s10.334 74.166 20.001 107.499s23 63.833 40 91.5s38.833 51.5 65.5 71.5c27.333 19.333 59.166 34.333 95.499 45s79.833 16 130.5 16c50 0 93.333 -5.33301 130 -16s68.334 -25.667 95.001 -45c26.667 -20 48.5 -43.833 65.5 -71.5
s30.333 -58.167 40 -91.5s16.334 -69.166 20.001 -107.499s5.5 -77.833 5.5 -118.5z" />
    <glyph glyph-name="ampersand" unicode="&#x26;" horiz-adv-x="1333" 
d="M791 285l-91.0039 107.502l-77 96l-68 87l-63 81.5c-38 -25.333 -68.167 -49.833 -90.5 -73.5s-39.166 -46.834 -50.499 -69.501s-18.666 -45 -21.999 -67s-5 -43.333 -5 -64c0 -24 4.66699 -48.333 14 -73s23.833 -46.834 43.5 -66.501s44.834 -35.834 75.501 -48.501
s67.334 -19 110.001 -19c14.667 0 31 1.66699 49 5s37 9.33301 57 18s40 19.834 60 33.501s39.333 31.167 58 52.5zM714.996 1163c0 37.333 -11.668 65.502 -35.001 84.502s-52 28.5 -86 28.5c-35.333 0 -65 -10.167 -89 -30.5s-36 -53.833 -36 -100.5
c0 -34 7.66699 -66.167 23 -96.5s36.333 -63.166 63 -98.499c32.667 22.667 59.334 44.167 80.001 64.5s37 39.166 49 56.499s20.167 33.666 24.5 48.999s6.5 29.666 6.5 42.999zM1323 -9.99609c-13.333 -1.33301 -26.6641 -2.00195 -39.9971 -2.00195h-36
c-31.333 0 -60.5 2.16699 -87.5 6.5s-53 11.5 -78 21.5s-49.167 23 -72.5 39s-47 36 -71 60c-32 -29.333 -64.667 -53.5 -98 -72.5s-66.5 -34.167 -99.5 -45.5s-65.833 -19.166 -98.5 -23.499s-64.334 -6.5 -95.001 -6.5c-82 0 -152.833 11.5 -212.5 34.5
s-109 53.5 -148 91.5s-67.833 81.833 -86.5 131.5s-28 101.167 -28 154.5c0 52 5.33301 98.667 16 140s27.667 79.5 51 114.5s53.333 68.333 90 100s81 64.167 133 97.5c-38.667 52 -69 101.5 -91 148.5s-33 97.167 -33 150.5c0 51.333 8.33301 97.666 25 138.999
s40.5 76.666 71.5 105.999s68.5 51.833 112.5 67.5s93 23.5 147 23.5c53.333 0 101.833 -6.83301 145.5 -20.5s81.167 -33.667 112.5 -60s55.5 -58.666 72.5 -96.999s25.5 -82.166 25.5 -131.499c0 -38 -5.66699 -73.667 -17 -107s-28 -65.166 -50 -95.499
s-49.5 -59.833 -82.5 -88.5s-71.167 -58 -114.5 -88c30 -40 64 -82.667 102 -128l125 -148c6 18 11.5 35.667 16.5 53s9.16699 35.166 12.5 53.499s6.33301 37.666 9 57.999s5 42.5 7 66.5l232 -59c-12.667 -68 -28.334 -133 -47.001 -195s-41.334 -119.333 -68.001 -172
l45 -45c15.333 -15.333 31.333 -27.666 48 -36.999s32 -16.666 46 -21.999c15.333 -5.33301 32 -9.5 50 -12.5s37.667 -4.5 59 -4.5v-196z" />
    <glyph glyph-name="quotesingle" unicode="'" horiz-adv-x="500" 
d="M342 928h-182l-47 364v183h274v-183z" />
    <glyph glyph-name="parenleft" unicode="(" horiz-adv-x="698" 
d="M471 -408c-68 86 -125 170.832 -171 254.499s-83 165.834 -111 246.501s-48 159.834 -60 237.501s-18 153.834 -18 228.501c0 74 6 149.833 18 227.5s32 156.667 60 237s65 162.166 111 245.499s103 167.666 171 252.999l207 -107
c-50 -70.667 -93.833 -139.667 -131.5 -207s-68.834 -135.5 -93.501 -204.5s-43.167 -140 -55.5 -213s-18.5 -150.167 -18.5 -231.5c0 -82.667 6.16699 -160.5 18.5 -233.5s30.833 -144 55.5 -213s55.834 -137.333 93.501 -205s81.5 -137.167 131.5 -208.5z" />
    <glyph glyph-name="parenright" unicode=")" horiz-adv-x="698" 
d="M588 559c0 -74.667 -6 -150.833 -18 -228.5s-32.167 -156.834 -60.5 -237.501s-65.666 -162.834 -111.999 -246.501s-103.833 -168.5 -172.5 -254.5l-205 107c50 71.333 93.833 140.833 131.5 208.5s68.834 136 93.501 205s43.167 140 55.5 213s18.5 150.833 18.5 233.5
c0 81.333 -6.16699 158.5 -18.5 231.5s-30.833 144 -55.5 213s-55.834 137.167 -93.501 204.5s-81.5 136.333 -131.5 207l205 107c68.667 -85.333 126.167 -169.666 172.5 -252.999s83.666 -165.166 111.999 -245.499s48.5 -159.333 60.5 -237s18 -153.5 18 -227.5z" />
    <glyph glyph-name="asterisk" unicode="*" horiz-adv-x="889" 
d="M725 1108l-158 -29l119 -114l53 -74l-159 -113l-52 74l-82 141l-73 -141l-51 -74l-158 113l51 72l113 116l-164 29l-84 31l65 184l84 -29l142 -73l-27 163v91h197v-91l-21 -165l146 73l84 29l59 -182z" />
    <glyph glyph-name="plus" unicode="+" 
d="M680 639v-348h-201v348h-348v201h348v346h201v-346h348v-201h-348z" />
    <glyph glyph-name="comma" unicode="," horiz-adv-x="502" 
d="M389 -8c0 -66.667 -9.33105 -120.333 -27.998 -161s-45.334 -71.667 -80.001 -93c-24 -15.333 -51.5 -26.833 -82.5 -34.5s-65.167 -13.167 -102.5 -16.5v143c26 4 47.333 10 64 18c19.333 9.33301 33.666 22.5 42.999 39.5s14 41.5 14 73.5v39h-104v279h276v-287z" />
    <glyph glyph-name="hyphen" unicode="-" horiz-adv-x="750" 
d="M678 416v227h-606v-227h606z" />
    <glyph glyph-name="hyphen" unicode="&#xad;" horiz-adv-x="750" 
d="M678 416v227h-606v-227h606z" />
    <glyph glyph-name="period" unicode="." horiz-adv-x="502" 
d="M113 0v276h276v-276h-276z" />
    <glyph glyph-name="slash" unicode="/" horiz-adv-x="735" 
d="M236 0h-226l490 1475h225z" />
    <glyph glyph-name="zero" unicode="0" 
d="M799 721c0 75.333 -1.66699 140.333 -5 195s-8.83301 101.5 -16.5 140.5s-17.334 70.833 -29.001 95.5s-25.5 44.667 -41.5 60c-13.333 12.667 -29.833 23 -49.5 31s-45.5 12 -77.5 12s-57.833 -4 -77.5 -12s-36.167 -18.333 -49.5 -31
c-16.667 -15.333 -30.834 -35.333 -42.501 -60s-21.334 -56.5 -29.001 -95.5s-13.167 -85.833 -16.5 -140.5s-5 -119.667 -5 -195s1.66699 -140.333 5 -195s8.83301 -101.5 16.5 -140.5s17.334 -71 29.001 -96s25.834 -45.167 42.501 -60.5
c13.333 -12 29.833 -22.167 49.5 -30.5s45.5 -12.5 77.5 -12.5s57.833 4.16699 77.5 12.5s36.167 18.5 49.5 30.5c16 15.333 29.833 35.5 41.5 60.5s21.334 57 29.001 96s13.167 85.833 16.5 140.5s5 119.667 5 195zM1067 721c0 -61.333 -1.16699 -123.333 -3.5 -186
s-9 -122.834 -20 -180.501s-28 -111.334 -51 -161.001s-54.833 -92.167 -95.5 -127.5c-36 -31.333 -79.833 -55.666 -131.5 -72.999s-113.5 -26 -185.5 -26c-72.667 0 -134.834 8.66699 -186.501 26s-95.5 41.666 -131.5 72.999c-41.333 35.333 -73.333 77.833 -96 127.5
s-39.5 103.334 -50.5 161.001s-17.667 117.834 -20 180.501s-3.5 124.667 -3.5 186s1.16699 123.333 3.5 186s9 122.834 20 180.501s27.833 111.334 50.5 161.001s54.667 92.167 96 127.5c36 31.333 79.833 55.666 131.5 72.999s113.834 26 186.501 26
c72 0 133.833 -8.66699 185.5 -26s95.5 -41.666 131.5 -72.999c40.667 -35.333 72.5 -77.833 95.5 -127.5s40 -103.334 51 -161.001s17.667 -117.834 20 -180.501s3.5 -124.667 3.5 -186z" />
    <glyph glyph-name="one" unicode="1" 
d="M293 0v211h229v938l-229 -131l-111 186l418 254h178v-1247h215v-211h-700z" />
    <glyph glyph-name="two" unicode="2" 
d="M106 0l0.000976562 213l45 45l71 71l88.5 90.5l97.5 103.5l98.5 110c32.333 37.333 62.333 73.833 90 109.5s52.167 69.834 73.5 102.501s37.666 62.334 48.999 89.001l14.5 38c4.33301 11.333 7.83301 22.5 10.5 33.5s4.66699 22.5 6 34.5s2 25 2 39
c0 19.333 -2.66699 39.5 -8 60.5s-14.833 40.167 -28.5 57.5s-32.334 31.666 -56.001 42.999s-53.834 17 -90.501 17c-41.333 0 -75 -7 -101 -21s-46.667 -32.667 -62 -56c-18.667 -28 -31.667 -60 -39 -96s-13 -71 -17 -105l-252 31c4 44 9.5 83.167 16.5 117.5
s15.833 65 26.5 92s23.334 51.333 38.001 73s31.334 42.167 50.001 61.5c23.333 23.333 48.5 42.666 75.5 57.999s55.5 27.5 85.5 36.5s61.667 15.333 95 19s67.666 5.5 102.999 5.5c82 0 150.5 -10.667 205.5 -32s99.333 -50 133 -86s57.667 -77.667 72 -125
s21.5 -97 21.5 -149c0 -43.333 -4.83301 -85.833 -14.5 -127.5s-26.667 -86 -51 -133s-57.666 -98.167 -99.999 -153.5s-95.833 -118 -160.5 -188l-233 -250h559v-229h-914z" />
    <glyph glyph-name="three" unicode="3" 
d="M1038 475c0 -41.333 -3.17285 -81.667 -9.50586 -121s-16 -76.5 -29 -111.5s-29.667 -67.667 -50 -98s-44.5 -57.5 -72.5 -81.5c-36 -30 -78.667 -53.5 -128 -70.5s-106.333 -25.5 -171 -25.5c-81.333 0 -150.166 10 -206.499 30s-103.166 49 -140.499 87
s-66.666 84.167 -87.999 138.5s-37 115.5 -47 183.5l244 22c7.33301 -41.333 16.833 -77.166 28.5 -107.499s26.334 -55.5 44.001 -75.5s38.667 -34.833 63 -44.5s52.833 -14.5 85.5 -14.5c31.333 0 58.333 4 81 12s42 19 58 33c30 28 49.833 64.333 59.5 109
s14.5 93.667 14.5 147c0 42 -4.33301 80 -13 114s-23.334 61.667 -44.001 83c-33.333 35.333 -83.333 53 -150 53c-13.333 0 -25.166 -0.333008 -35.499 -1s-21.666 -2.16699 -33.999 -4.5s-26.666 -6.16602 -42.999 -11.499s-36.833 -12.666 -61.5 -21.999l-102 131
l387 388h-522v225h825v-201l-299 -307c24.667 -2 45.667 -6 63 -12c46 -10.667 85.5 -26.834 118.5 -48.501s61.167 -47.834 84.5 -78.501c32 -41.333 55 -89.333 69 -144s21 -113.334 21 -176.001z" />
    <glyph glyph-name="four" unicode="4" 
d="M657 1020l-303 -526h303v526zM913 281v-281h-254v281h-555v198l564 979h243v-964h140v-213h-138z" />
    <glyph glyph-name="five" unicode="5" 
d="M1028 485c0 -36 -2.82812 -73.333 -8.49512 -112s-14.667 -76.334 -27 -113.001s-28.5 -71.334 -48.5 -104.001s-44 -61.334 -72 -86.001c-36 -32 -77.833 -57.167 -125.5 -75.5s-103.834 -27.5 -168.501 -27.5c-80 0 -149 10.667 -207 32s-106 51 -144 89
s-66.833 83.167 -86.5 135.5s-31.167 109.5 -34.5 171.5l248 25c8.66699 -84 30.167 -144 64.5 -180s83.166 -54 146.499 -54c29.333 0 54.666 4.5 75.999 13.5s39 21.167 53 36.5c13.333 14 24.333 30.833 33 50.5s15.5 40.834 20.5 63.501s8.33301 46.5 10 71.5
s2.5 50.5 2.5 76.5c0 41.333 -4.33301 78.333 -13 111s-22.667 59.667 -42 81c-16.667 19.333 -36.834 34.166 -60.501 44.499s-51.5 15.5 -83.5 15.5c-27.333 0 -51.5 -3.16699 -72.5 -9.5s-40 -15.666 -57 -27.999s-32.5 -27.666 -46.5 -45.999s-27.667 -39.833 -41 -64.5
l-197 23l54 817h745v-225h-522l-18 -308c13.333 8 27.166 15.5 41.499 22.5s30.5 13 48.5 18s38.5 8.83301 61.5 11.5s49.5 4 79.5 4c60.667 0 113.5 -8.5 158.5 -25.5s83.5 -41.5 115.5 -73.5c40 -42 69.5 -95.167 88.5 -159.5s28.5 -138.166 28.5 -221.499z" />
    <glyph glyph-name="six" unicode="6" 
d="M795 467c0.666992 55.333 -3.16797 101.499 -11.501 138.499s-20.333 66.667 -36 89s-34.834 38.166 -57.501 47.499s-48 14 -76 14c-40 0 -74 -8 -102 -24s-50.833 -37 -68.5 -63s-30.5 -55.333 -38.5 -88s-12 -66 -12 -100c0 -46 3.66699 -87.667 11 -125
s19.333 -69.166 36 -95.499s38.334 -46.666 65.001 -60.999s59 -21.5 97 -21.5c37.333 0 68.333 6.83301 93 20.5s44.334 33.167 59.001 58.5s25 55.833 31 91.5s9.33301 75.167 10 118.5zM1059 486.999c0 -87.333 -10.833 -165.831 -32.5 -235.498
s-56.5 -127.5 -104.5 -173.5c-37.333 -35.333 -82.833 -62.666 -136.5 -81.999s-117.5 -29 -191.5 -29c-64.667 0 -120.834 8.16699 -168.501 24.5s-89.167 39.5 -124.5 69.5c-40.667 34.667 -73 76.5 -97 125.5s-42.5 102 -55.5 159s-21.5 116.5 -25.5 178.5
s-6 123.667 -6 185c0 62 1.83301 124.667 5.5 188s11.667 124.166 24 182.499s30.333 112.666 54 162.999s55.834 93.5 96.501 129.5c35.333 32 78.166 57.167 128.499 75.5s109.833 27.5 178.5 27.5c79.333 0 146.333 -10.167 201 -30.5s99.667 -50.5 135 -90.5
c24.667 -29.333 44.334 -62.833 59.001 -100.5s25.667 -80.834 33 -129.501l-244 -51c-5.33301 22.667 -10.833 44.5 -16.5 65.5s-13.5 40.167 -23.5 57.5c-13.333 20.667 -31.666 37.167 -54.999 49.5s-55 18.5 -95 18.5c-25.333 0 -48 -4 -68 -12s-37.667 -19 -53 -33
c-21.333 -19.333 -38.5 -43.5 -51.5 -72.5s-23.167 -60 -30.5 -93s-12.333 -67.167 -15 -102.5s-4.33398 -69 -5.00098 -101c38 36 79.333 63 124 81s98 27 160 27s116 -8.33301 162 -25s85.667 -41 119 -73c41.333 -40 71.5 -91.333 90.5 -154s28.5 -135.667 28.5 -219z
" />
    <glyph glyph-name="seven" unicode="7" 
d="M541 0h-254l463 1208h-402v-153h-217v387h881v-213z" />
    <glyph glyph-name="eight" unicode="8" 
d="M805 418c0 34.667 -4.16602 66.334 -12.499 95.001s-21.5 53.167 -39.5 73.5s-41.333 36.166 -70 47.499s-63 17 -103 17c-40.667 0 -75.334 -5.66699 -104.001 -17s-52 -27.166 -70 -47.499s-31.167 -44.833 -39.5 -73.5s-12.5 -60.334 -12.5 -95.001
c0 -44 5 -81.167 15 -111.5s24.667 -54.833 44 -73.5s43 -32.167 71 -40.5s60 -12.5 96 -12.5s67.833 4.16699 95.5 12.5s51.167 21.833 70.5 40.5s34 43.167 44 73.5s15 67.5 15 111.5zM762.001 1075c1.33301 60.667 -12.501 108.334 -41.501 143.001s-75.833 52 -140.5 52
s-111.667 -17.333 -141 -52s-44 -82.334 -44 -143.001c0 -66.667 14.5 -118.5 43.5 -155.5s76.167 -55.5 141.5 -55.5c32.667 0 60.5 4.83301 83.5 14.5s41.667 23.5 56 41.5s24.833 40 31.5 66s10.334 55.667 11.001 89zM1063 410c0 -82.667 -13.5 -152.167 -40.5 -208.5
s-62.833 -101.833 -107.5 -136.5s-96.167 -59.667 -154.5 -75s-118.5 -23 -180.5 -23c-62.667 0 -123 7.66699 -181 23s-109.5 40.333 -154.5 75s-81 80.167 -108 136.5s-40.5 125.833 -40.5 208.5c0 35.333 3 70.5 9 105.5s16.833 68.333 32.5 100s36.5 61.167 62.5 88.5
s59 50.666 99 69.999c-34 22 -61.333 47.167 -82 75.5s-36.5 56.666 -47.5 84.999s-18.167 55.5 -21.5 81.5s-5 47.667 -5 65c0 52 8.33301 101.667 25 149s42.667 89.166 78 125.499s80.5 65.333 135.5 87s121.167 32.5 198.5 32.5c76.667 0 142.5 -10.833 197.5 -32.5
s100.167 -50.667 135.5 -87s61.333 -78.166 78 -125.499s25 -97 25 -149c0 -17.333 -1.66699 -39 -5 -65s-10.5 -53.167 -21.5 -81.5s-26.833 -56.666 -47.5 -84.999s-48 -53.5 -82 -75.5c40 -19.333 73 -42.666 99 -69.999s46.833 -56.833 62.5 -88.5s26.5 -65 32.5 -100
s9 -70.167 9 -105.5z" />
    <glyph glyph-name="nine" unicode="9" 
d="M766 954c0 46 -3.66895 88.167 -11.002 126.5s-19.333 71 -36 98s-38.167 48 -64.5 63s-58.833 22.5 -97.5 22.5c-37.333 0 -68.166 -7.16699 -92.499 -21.5s-43.833 -34.5 -58.5 -60.5s-25 -57.167 -31 -93.5s-9.33301 -76.166 -10 -119.499
c-0.666992 -55.333 3 -101.833 11 -139.5s19.833 -68 35.5 -91s34.834 -39.5 57.501 -49.5s48 -15 76 -15c40 0 74 8.33301 102 25s50.833 38.167 68.5 64.5s30.5 56.166 38.5 89.499s12 67 12 101zM1042 733c0 -62 -1.83203 -124.663 -5.49902 -187.996
s-11.667 -124.333 -24 -183s-30.333 -113.334 -54 -164.001s-55.834 -94 -96.501 -130c-36 -31.333 -79 -56 -129 -74s-109.333 -27 -178 -27c-79.333 0 -146.833 10.167 -202.5 30.5s-101.5 50.5 -137.5 90.5c-24.667 28 -44.667 61.167 -60 99.5
s-26.666 81.5 -33.999 129.5l250 52c5.33301 -22.667 10.833 -44.5 16.5 -65.5s13.834 -40.167 24.501 -57.5c13.333 -20.667 31.5 -37.167 54.5 -49.5s54.5 -18.5 94.5 -18.5c25.333 0 48.166 4 68.499 12s37.833 19 52.5 33c20.667 19.333 37.667 43.333 51 72
s23.666 59.167 30.999 91.5s12.333 65.166 15 98.499s4.33398 65 5.00098 95c-37.333 -36 -78.333 -63.167 -123 -81.5s-98.334 -27.5 -161.001 -27.5c-62 0 -116 8 -162 24s-85 40 -117 72c-41.333 39.333 -71.833 90.833 -91.5 154.5s-29.5 139.167 -29.5 226.5
c0 95.333 10.333 177.833 31 247.5s54.667 127.167 102 172.5c37.333 35.333 83.166 62 137.499 80s118.5 27 192.5 27c66.667 0 124.5 -7.83301 173.5 -23.5s90.833 -38.167 125.5 -67.5c39.333 -32.667 70.833 -72.5 94.5 -119.5s41.834 -98.833 54.501 -155.5
s21 -116.834 25 -180.501s6 -128.834 6 -195.501z" />
    <glyph glyph-name="colon" unicode=":" horiz-adv-x="502" 
d="M113 0v276h276v-276h-276zM113 788v277h276v-277h-276z" />
    <glyph glyph-name="semicolon" unicode=";" horiz-adv-x="502" 
d="M389 788v277h-276v-277h276zM389 -8l-0.00195312 286.999h-276v-279h104v-39c0 -32 -4.66699 -56.5 -14 -73.5s-23.666 -30.167 -42.999 -39.5c-16.667 -8 -38 -14 -64 -18v-143c37.333 3.33301 71.5 8.83301 102.5 16.5s58.5 19.167 82.5 34.5
c34.667 21.333 61.334 52.333 80.001 93s28 94.334 28 161.001z" />
    <glyph glyph-name="semicolon" unicode="&#x37e;" horiz-adv-x="502" 
d="M389 788v277h-276v-277h276zM389 -8l-0.00195312 286.999h-276v-279h104v-39c0 -32 -4.66699 -56.5 -14 -73.5s-23.666 -30.167 -42.999 -39.5c-16.667 -8 -38 -14 -64 -18v-143c37.333 3.33301 71.5 8.83301 102.5 16.5s58.5 19.167 82.5 34.5
c34.667 21.333 61.334 52.333 80.001 93s28 94.334 28 161.001z" />
    <glyph glyph-name="less" unicode="&#x3c;" 
d="M891 246l-705 401v180l705 402l82 -185l-551 -307l551 -307z" />
    <glyph glyph-name="equal" unicode="=" 
d="M131 440v201h897v-201h-897zM131 836v200h897v-200h-897z" />
    <glyph glyph-name="greater" unicode="&#x3e;" 
d="M268 246l-82 184l551 307l-551 307l82 185l705 -402v-180z" />
    <glyph glyph-name="question" unicode="?" horiz-adv-x="975" 
d="M293 0v301h293v-301h-293zM926 1108c0 -36.667 -4.33105 -70.3311 -12.998 -100.998s-20.167 -59 -34.5 -85s-30.666 -49.5 -48.999 -70.5s-36.833 -40.5 -55.5 -58.5l-78.5 -72.5c-25 -22.333 -46.833 -45.833 -65.5 -70.5s-33.5 -52.167 -44.5 -82.5
s-16.5 -66.5 -16.5 -108.5v-19h-256v23c0 61.333 7.33301 114.5 22 159.5s33.167 84.5 55.5 118.5s47.166 63.667 74.499 89l80 73l47.5 45.5c15 15 28 30.667 39 47s19.833 33.666 26.5 51.999s10 38.5 10 60.5c0 24.667 -3.5 46.334 -10.5 65.001s-16.5 34.667 -28.5 48
c-31.333 30 -76.333 45 -135 45c-42 0 -76.5 -6.5 -103.5 -19.5s-48.5 -29.833 -64.5 -50.5c-18.667 -24.667 -32 -52.834 -40 -84.501s-14 -63.5 -18 -95.5l-250 35c5.33301 31.333 11.5 61.333 18.5 90s16 56 27 82s24.167 50.167 39.5 72.5s33.666 43.166 54.999 62.499
c38 34 84.167 62 138.5 84s120.166 33 197.499 33c152.667 0 268 -41 346 -123c28 -29.333 49.333 -65 64 -107s22 -87.667 22 -137z" />
    <glyph glyph-name="at" unicode="@" horiz-adv-x="1706" 
d="M1010 803c0 56 -12.165 101.001 -36.498 135.001s-62.833 51 -115.5 51c-32.667 0 -61 -5.5 -85 -16.5s-44.667 -25.833 -62 -44.5c-15.333 -17.333 -28.5 -36.5 -39.5 -57.5s-20.167 -43 -27.5 -66s-13.5 -45.833 -18.5 -68.5s-9.5 -44 -13.5 -64
c-3.33301 -17.333 -6 -33 -8 -47l-5.5 -39c-1.66699 -12 -2.83398 -23.333 -3.50098 -34s-1 -22 -1 -34c0 -32.667 2.66699 -63.5 8 -92.5s17.666 -52.167 36.999 -69.5c20.667 -18.667 50 -28 88 -28c36 0 69 12 99 36s56.5 54.333 79.5 91s42.5 77.167 58.5 121.5
s27.667 87.166 35 128.499l3.5 14c1 4 1.5 8.66699 1.5 14c4 24.667 6 48 6 70zM1645 823.001c0 -102 -14.998 -194.167 -44.998 -276.5s-70.167 -152.5 -120.5 -210.5s-108.166 -102.833 -173.499 -134.5s-133.333 -47.5 -204 -47.5c-39.333 0 -70.833 5.33301 -94.5 16
s-42.167 24.334 -55.5 41.001c-12 17.333 -20 35.666 -24 54.999c-31.333 -32 -68 -58.667 -110 -80s-88.667 -32 -140 -32c-82.667 0 -147 23 -193 69c-34 32 -58.167 71.667 -72.5 119s-21.5 101.333 -21.5 162c0 54.667 4 112 12 172
c4.66699 24.667 9.66699 49.167 15 73.5s12 48.833 20 73.5c14.667 44 32.5 86.167 53.5 126.5s46.833 76.166 77.5 107.499c19.333 20 38.666 36.833 57.999 50.5s39.833 24.834 61.5 33.501s44.834 14.834 69.501 18.501s52 5.5 82 5.5c28.667 0 55.834 -4 81.501 -12
s48.667 -18.333 69 -31s37.5 -27.334 51.5 -44.001s24.333 -33.334 31 -50.001l25 115h190l-164 -746c-4 -17.333 -6.33301 -29.5 -7 -36.5s-1 -13.833 -1 -20.5c0 -5.33301 2.5 -9 7.5 -11s14.167 -3 27.5 -3c8.66699 0 22.334 2.83301 41.001 8.5s39.667 15.334 63 29.001
s47.5 32.167 72.5 55.5s47.667 52.833 68 88.5s37.166 78.167 50.499 127.5s20 106.666 20 171.999c0 72.667 -12.333 141.334 -37 206.001s-61 121.334 -109 170.001s-107.5 87.167 -178.5 115.5s-152.5 42.5 -244.5 42.5c-86.667 0 -163 -12 -229 -36
s-123.333 -55.667 -172 -95s-89.5 -84.166 -122.5 -134.499s-59.333 -102.333 -79 -156s-33.667 -106.667 -42 -159s-12.5 -99.833 -12.5 -142.5c0 -56 4.66699 -107.833 14 -155.5s22.5 -91.834 39.5 -132.501s37 -77.834 60 -111.501s48.5 -64.167 76.5 -91.5
c33.333 -32 69.166 -59.5 107.499 -82.5s77.666 -42 117.999 -57s80.833 -26.167 121.5 -33.5s80 -11 118 -11c51.333 0 102.666 5 153.999 15s101.5 25.333 150.5 46s95.667 47 140 79s85.166 70 122.499 114l135 -115c-26.667 -28 -51.334 -52.833 -74.001 -74.5
s-45.334 -41.167 -68.001 -58.5s-45.834 -33.166 -69.501 -47.499s-49.834 -27.833 -78.501 -40.5c-123.333 -56 -260.666 -84 -411.999 -84c-118.667 0 -226.167 18.333 -322.5 55s-179.833 88 -250.5 154c-83.333 78 -147.666 171.667 -192.999 281s-68 229.333 -68 360
c0 53.333 5.66699 112.166 17 176.499s29.833 129.166 55.5 194.499s59.334 128.5 101.001 189.5s93.167 115.167 154.5 162.5s133.333 85.333 216 114s177.334 43 284.001 43c116 0 220.667 -18.167 314 -54.5s172.833 -85.666 238.5 -147.999s116 -135 151 -218
s52.5 -170.833 52.5 -263.5z" />
    <glyph glyph-name="A" unicode="A" horiz-adv-x="1214" 
d="M586 1139l-156 -564h324zM924 0l-101 340h-458l-95 -340h-260l447 1475h262l485 -1475h-280z" />
    <glyph glyph-name="B" unicode="B" horiz-adv-x="1249" 
d="M885 438c0 71.333 -20.833 123.333 -62.5 156s-106.167 49 -193.5 49h-209v-426h215c48 0 88 4.16699 120 12.5s57.667 21.5 77 39.5s33 41 41 69s12 61.333 12 100zM854 1069c0 30 -3.5 56.667 -10.5 80s-18.833 43 -35.5 59s-39 28.167 -67 36.5
s-62.667 12.5 -104 12.5h-217v-399h227c28 0 54.667 4.66699 80 14s47.333 23 66 41s33.5 40 44.5 66s16.5 56 16.5 90zM1159 414c0 -56.667 -9.5 -110 -28.5 -160s-47.667 -93.833 -86 -131.5s-86.833 -67.5 -145.5 -89.5s-127.667 -33 -207 -33h-530v1475h512
c62 0 120.167 -8.16699 174.5 -24.5s101.5 -41 141.5 -74s71.667 -74.833 95 -125.5s35 -110 35 -178c0 -62.667 -14.667 -121 -44 -175s-72 -98 -128 -132c37.333 -16.667 69.333 -37.167 96 -61.5s48.5 -51.833 65.5 -82.5s29.5 -63.5 37.5 -98.5s12 -71.5 12 -109.5z" />
    <glyph glyph-name="C" unicode="C" horiz-adv-x="1212" 
d="M1157 340c-14 -53.333 -33.3301 -102.671 -57.9971 -148.004s-56.834 -84.666 -96.501 -117.999s-88.167 -59.5 -145.5 -78.5s-125.333 -28.5 -204 -28.5c-74 0 -139 10.5 -195 31.5s-104 49.833 -144 86.5s-73.167 79.667 -99.5 129s-47.166 102.5 -62.499 159.5
s-26 116.5 -32 178.5s-9 123.667 -9 185c0 64.667 2.83301 128.5 8.5 191.5s16.167 123 31.5 180s36.5 109.833 63.5 158.5s61.5 90.834 103.5 126.501s92.667 63.5 152 83.5s129.333 30 210 30c64 0 121.167 -7.66699 171.5 -23s94.666 -37.666 132.999 -66.999
s71 -65.833 98 -109.5s49.167 -93.834 66.5 -150.501l-246 -94c-9.33301 36 -20.333 67.667 -33 95s-28.334 50.333 -47.001 69s-40.834 32.834 -66.501 42.501s-56.5 14.5 -92.5 14.5c-54 0 -98.5 -13.167 -133.5 -39.5s-62.833 -63.333 -83.5 -111
s-35.167 -105.167 -43.5 -172.5s-12.5 -142 -12.5 -224c0 -179.333 22.333 -314.5 67 -405.5s112.667 -136.5 204 -136.5c33.333 0 62.333 4.16699 87 12.5s46.5 22 65.5 41s35.5 43.833 49.5 74.5s27 68.334 39 113.001z" />
    <glyph glyph-name="D" unicode="D" horiz-adv-x="1296" 
d="M905 780c0 48 -2 91.0039 -6 129.004s-10.167 72 -18.5 102s-18.833 56.333 -31.5 79s-28 43 -46 61c-15.333 15.333 -31.833 28.666 -49.5 39.999s-38 20.666 -61 27.999s-49.833 12.833 -80.5 16.5s-66.667 5.5 -108 5.5h-80v-1008h80c34 0 64.167 1.33301 90.5 4
s50.333 7 72 13s41.5 14.167 59.5 24.5s35.333 23.166 52 38.499c19.333 18 36.833 39.833 52.5 65.5s29 57 40 94s19.5 80.667 25.5 131s9 109.166 9 176.499zM1186 780.004c0 -56 -2.33398 -113.833 -7.00098 -173.5s-14 -117.834 -28 -174.501
s-34.167 -110.167 -60.5 -160.5s-60.833 -94.5 -103.5 -132.5c-25.333 -22 -51.166 -41.667 -77.499 -59s-55.5 -31.833 -87.5 -43.5s-67.5 -20.667 -106.5 -27s-83.5 -9.5 -133.5 -9.5h-420v1475h360c64 0 121 -3.16699 171 -9.5s95.167 -16.166 135.5 -29.499
s76.833 -30.5 109.5 -51.5s63.334 -46.167 92.001 -75.5c57.333 -59.333 97.666 -133.333 120.999 -222s35 -191 35 -307z" />
    <glyph glyph-name="E" unicode="E" horiz-adv-x="1090" 
d="M162 0v1475h839v-242h-577v-354h549v-242h-549v-395h594v-242h-856z" />
    <glyph glyph-name="F" unicode="F" horiz-adv-x="1030" 
d="M424 1233v-336h520v-242h-518v-655h-264v1475h811v-242h-549z" />
    <glyph glyph-name="G" unicode="G" horiz-adv-x="1264" 
d="M942 -2l-14.002 115c-16 -17.333 -33.833 -34.666 -53.5 -51.999s-42 -33 -67 -47s-53.167 -25.333 -84.5 -34s-67 -13 -107 -13c-123.333 0 -222.333 31.5 -297 94.5s-128.334 153.167 -161.001 270.5c-16.667 56.667 -28.667 118.667 -36 186s-11 140.333 -11 219
c0 71.333 3.5 142.833 10.5 214.5s21.833 139.5 44.5 203.5c16.667 50 38.667 96.5 66 139.5s61.666 80.333 102.999 112s90.333 56.334 147 74.001s122.667 26.5 198 26.5c128 0 230.5 -28.5 307.5 -85.5s133.5 -145.833 169.5 -266.5l-256 -84
c-2 13.333 -5.16699 27 -9.5 41s-9.5 27.667 -15.5 41s-12.667 25.666 -20 36.999s-14.666 21 -21.999 29c-23.333 23.333 -48.666 39.666 -75.999 48.999s-57.333 14 -90 14c-41.333 0 -74.833 -5.33301 -100.5 -16s-48.167 -25.667 -67.5 -45
c-20.667 -20 -38 -45.5 -52 -76.5s-25.167 -67 -33.5 -108s-14.333 -86.333 -18 -136s-5.5 -102.834 -5.5 -159.501c0 -120 7.33301 -220.833 22 -302.5s43 -143.167 85 -184.5c20.667 -19.333 44.834 -34.833 72.501 -46.5s60.167 -17.5 97.5 -17.5
c34 0 65.167 4.16699 93.5 12.5s52.833 22.333 73.5 42s36.834 45.334 48.501 77.001s17.5 71.167 17.5 118.5v86h-252v228h508v-756h-215z" />
    <glyph glyph-name="H" unicode="H" horiz-adv-x="1341" 
d="M918 0v676h-494v-676h-262v1475h262v-555h494v555h262v-1475h-262z" />
    <glyph glyph-name="I" unicode="I" horiz-adv-x="586" 
d="M162 0v1475h262v-1475h-262z" />
    <glyph glyph-name="J" unicode="J" horiz-adv-x="1081" 
d="M938 549c0 -50.667 -0.664062 -98.668 -1.99707 -144.001s-5.5 -87.833 -12.5 -127.5s-18.333 -76.334 -34 -110.001s-37.834 -64.167 -66.501 -91.5c-39.333 -37.333 -87 -64.833 -143 -82.5s-118 -26.5 -186 -26.5c-79.333 0 -147.833 10.333 -205.5 31
s-106.167 50.667 -145.5 90c-26.667 26.667 -50 57.334 -70 92.001s-34 73.667 -42 117l243 90c8 -38 18.667 -69.333 32 -94s28.833 -44.5 46.5 -59.5s37.167 -25.5 58.5 -31.5s44 -9 68 -9c30 0 55.833 3.33301 77.5 10s40.167 16.667 55.5 30
c14.667 12.667 26.167 27.834 34.5 45.501s14.666 37.167 18.999 58.5s7.16602 44.5 8.49902 69.5s2 51.167 2 78.5v990h262v-926z" />
    <glyph glyph-name="K" unicode="K" horiz-adv-x="1260" 
d="M940 0l-371 682l-145 -176v-506h-262v1475h262v-621l496 621h301l-480 -582l508 -893h-309z" />
    <glyph glyph-name="L" unicode="L" horiz-adv-x="1026" 
d="M162 0v1475h262v-1233h575v-242h-837z" />
    <glyph glyph-name="M" unicode="M" horiz-adv-x="1546" 
d="M1130 0v995l-251 -612h-217l-244 606v-989h-256v1475h289l323 -773l332 773h278v-1475h-254z" />
    <glyph glyph-name="N" unicode="N" horiz-adv-x="1327" 
d="M903 0l-487 1006v-1006h-254v1475h274l475 -988v988h254v-1475h-262z" />
    <glyph glyph-name="O" unicode="O" horiz-adv-x="1356" 
d="M965 737c0 44 -0.666992 84.167 -2 120.5s-3.66602 69.666 -6.99902 99.999s-7.66602 58.166 -12.999 83.499s-12.333 49 -21 71c-12.667 32.667 -27.167 60 -43.5 82s-34.666 39.5 -54.999 52.5s-42.666 22.167 -66.999 27.5s-50.5 8 -78.5 8
c-28.667 0 -55.334 -2.66699 -80.001 -8s-47.334 -14.5 -68.001 -27.5s-39.167 -30.5 -55.5 -52.5s-30.5 -49.333 -42.5 -82c-8.66699 -22 -15.834 -45.667 -21.501 -71s-10 -53.166 -13 -83.499s-5.16699 -63.666 -6.5 -99.999s-2 -76.5 -2 -120.5
c0 -45.333 0.666992 -86.333 2 -123s3.5 -70.334 6.5 -101.001s7.33301 -58.667 13 -84s12.834 -49 21.501 -71c12 -32.667 26.167 -60 42.5 -82s34.833 -39.5 55.5 -52.5s43.334 -22.167 68.001 -27.5s51.334 -8 80.001 -8c28 0 54.167 2.66699 78.5 8
s46.666 14.5 66.999 27.5s38.666 30.5 54.999 52.5s30.833 49.333 43.5 82c8.66699 22 15.667 45.667 21 71s9.66602 53.333 12.999 84s5.66602 64.334 6.99902 101.001s2 77.667 2 123zM1245 737c0 -74.667 -3.66699 -147.167 -11 -217.5s-21.333 -136.166 -42 -197.499
c-17.333 -52 -39.666 -99.833 -66.999 -143.5s-61.666 -81.167 -102.999 -112.5s-90.333 -55.666 -147 -72.999s-122.334 -26 -197.001 -26s-140.334 8.66699 -197.001 26s-105.667 41.666 -147 72.999s-75.833 68.833 -103.5 112.5s-49.834 91.5 -66.501 143.5
c-20.667 61.333 -34.667 127.166 -42 197.499s-11 142.833 -11 217.5c0 75.333 3.66699 148 11 218s21.333 136 42 198c16.667 52 38.834 99.833 66.501 143.5s62.167 81 103.5 112s90.333 55.167 147 72.5s122.334 26 197.001 26s140.334 -8.66699 197.001 -26
s105.667 -41.5 147 -72.5s75.666 -68.333 102.999 -112s49.666 -91.5 66.999 -143.5c20.667 -62 34.667 -128 42 -198s11 -142.667 11 -218z" />
    <glyph glyph-name="P" unicode="P" 
d="M805 1022c0 40 -4.16895 74.667 -12.502 104s-22.166 53.833 -41.499 73.5s-45.166 34.167 -77.499 43.5s-72.5 14 -120.5 14h-125v-477h152c74 0 130 19 168 57s57 99.667 57 185zM1083 1020c0 -67.333 -9.33594 -128.833 -28.0029 -184.5
s-48.167 -103.834 -88.5 -144.501s-92.166 -72.167 -155.499 -94.5s-139.666 -33.5 -228.999 -33.5h-158v-563h-262v1475h461c80 0 149 -11.833 207 -35.5s105.833 -56 143.5 -97s65.334 -89.167 83.001 -144.5s26.5 -114.666 26.5 -177.999z" />
    <glyph glyph-name="Q" unicode="Q" horiz-adv-x="1356" 
d="M965 737c0 44 -0.669922 84.1709 -2.00293 120.504s-3.66602 69.666 -6.99902 99.999s-7.66602 58.166 -12.999 83.499s-12.333 49 -21 71c-12.667 32.667 -27.167 60 -43.5 82s-34.666 39.5 -54.999 52.5s-42.666 22.167 -66.999 27.5s-50.5 8 -78.5 8
c-28.667 0 -55.334 -2.66699 -80.001 -8s-47.334 -14.5 -68.001 -27.5s-39.167 -30.5 -55.5 -52.5s-30.5 -49.333 -42.5 -82c-8.66699 -22 -15.834 -45.667 -21.501 -71s-10 -53.166 -13 -83.499s-5.16699 -63.666 -6.5 -99.999s-2 -76.5 -2 -120.5
c0 -45.333 0.666992 -86.333 2 -123s3.5 -70.334 6.5 -101.001s7.33301 -58.667 13 -84s12.834 -49 21.501 -71c12 -32.667 26.167 -60 42.5 -82s34.833 -39.5 55.5 -52.5s43.334 -22.167 68.001 -27.5s51.334 -8 80.001 -8c40.667 0 75.334 5.66699 104.001 17l-129 114
l140 156l129 -115c8.66699 22 15.667 45.667 21 71s9.66602 53.166 12.999 83.499s5.66602 63.666 6.99902 99.999s2 77.166 2 122.499zM1145 -116.996l-169.998 152.003c-38 -21.333 -81.333 -38 -130 -50s-104.334 -18 -167.001 -18
c-74.667 0 -140.334 8.66699 -197.001 26s-105.667 41.666 -147 72.999s-75.833 68.833 -103.5 112.5s-49.834 91.5 -66.501 143.5c-20.667 61.333 -34.667 127.166 -42 197.499s-11 142.833 -11 217.5c0 75.333 3.66699 148 11 218s21.333 136 42 198
c16.667 52 38.834 99.833 66.501 143.5s62.167 81 103.5 112s90.333 55.167 147 72.5s122.334 26 197.001 26s140.334 -8.66699 197.001 -26s105.667 -41.5 147 -72.5s75.666 -68.333 102.999 -112s49.666 -91.5 66.999 -143.5c20.667 -62 34.667 -128 42 -198
s11 -142.667 11 -218c0 -66.667 -3 -131.334 -9 -194.001s-16.667 -123 -32 -181c-9.33301 -32.667 -20.333 -64.5 -33 -95.5s-27.667 -59.833 -45 -86.5l158 -141z" />
    <glyph glyph-name="R" unicode="R" horiz-adv-x="1219" 
d="M829 1028c0 39.333 -4.33398 73.4971 -13.001 102.497s-23 52.833 -43 71.5s-46.5 32.5 -79.5 41.5s-73.833 13.5 -122.5 13.5h-149v-464h176c37.333 0 70.333 4.33301 99 13s52.834 22.334 72.501 41.001s34.5 42.834 44.5 72.501s15 65.834 15 108.501z
M886.999 -0.00292969l-261.999 575.002h-201v-575h-262v1475h475c80 0 149.5 -11.333 208.5 -34s107.833 -54.167 146.5 -94.5s67.334 -87.833 86.001 -142.5s28 -114 28 -178c0 -32.667 -3 -67.334 -9 -104.001s-17.333 -72.834 -34 -108.501
s-39.334 -69.167 -68.001 -100.5s-65.334 -58 -110.001 -80l301 -633h-299z" />
    <glyph glyph-name="S" unicode="S" horiz-adv-x="1188" 
d="M1098 395c0 -33.333 -3.66504 -66.9951 -10.998 -100.995s-19 -66.833 -35 -98.5s-37 -61.5 -63 -89.5s-57.833 -52.167 -95.5 -72.5s-81.334 -36.5 -131.001 -48.5s-106.5 -18 -170.5 -18c-72.667 0 -137.167 8.33301 -193.5 25s-105.666 40.5 -147.999 71.5
s-78.166 68.333 -107.499 112s-53 92.5 -71 146.5l223 100c14.667 -39.333 31.334 -74 50.001 -104s40.167 -55 64.5 -75s52.166 -35.167 83.499 -45.5s67 -15.5 107 -15.5c42 0 78.833 5 110.5 15s57.5 24.333 77.5 43c15.333 14 27.5 31.333 36.5 52s13.5 45.667 13.5 75
c0 44 -11.167 82.167 -33.5 114.5s-59.833 60.166 -112.5 83.499c-44 19.333 -87.667 37.166 -131 53.499l-127 49.5l-80 36.5c-26 12.333 -50.5 26 -73.5 41s-44.167 31.5 -63.5 49.5s-36.333 38.333 -51 61c-18.667 28 -32.834 59.667 -42.501 95s-14.5 76 -14.5 122
c0 25.333 2 53.833 6 85.5s12.333 63.5 25 95.5s30.167 63.167 52.5 93.5s51.833 57.333 88.5 81s81.334 42.667 134.001 57s115.667 21.5 189 21.5c66.667 0 126 -6.83301 178 -20.5s97.5 -33.334 136.5 -59.001s72.167 -56.667 99.5 -93s49.666 -77.166 66.999 -122.499
l-217 -112c-16 37.333 -33.333 68.5 -52 93.5s-39.167 45.167 -61.5 60.5s-47 26.166 -74 32.499s-57.167 9.5 -90.5 9.5c-41.333 0 -78 -6 -110 -18s-57.667 -30.333 -77 -55c-13.333 -17.333 -23.5 -37.333 -30.5 -60s-10.5 -48.667 -10.5 -78
c0 -36.667 10.333 -67.834 31 -93.501s48 -48.167 82 -67.5s72.833 -36.833 116.5 -52.5l133.5 -48.5c30.667 -12 61.167 -24.667 91.5 -38s59.166 -28.333 86.499 -45s52.666 -35.334 75.999 -56.001s43 -44 59 -70c8 -12 15.5 -25 22.5 -39s13.333 -29.5 19 -46.5
s10.167 -36.5 13.5 -58.5s5 -47 5 -75z" />
    <glyph glyph-name="T" unicode="T" horiz-adv-x="1073" 
d="M668 1231v-1231h-262v1231h-383v244h1028v-244h-383z" />
    <glyph glyph-name="U" unicode="U" horiz-adv-x="1303" 
d="M1159 469c0 -92.667 -11.834 -171 -35.501 -235s-57.5 -115.667 -101.5 -155s-97.5 -67.833 -160.5 -85.5s-133.833 -26.5 -212.5 -26.5c-78 0 -148.333 8.83301 -211 26.5s-115.834 46.167 -159.501 85.5s-77.167 91 -100.5 155s-35 142.333 -35 235v1006h263v-994
c0 -51.333 4.83301 -94.5 14.5 -129.5s24.334 -63.333 44.001 -85s44.834 -37.334 75.501 -47.001s67 -14.5 109 -14.5c42.667 0 79.5 4.83301 110.5 14.5s56.5 25.334 76.5 47.001s34.833 50 44.5 85s14.5 78.167 14.5 129.5v994h264v-1006z" />
    <glyph glyph-name="V" unicode="V" horiz-adv-x="1130" 
d="M696 0h-264l-422 1475h279l276 -1082l289 1082h266z" />
    <glyph glyph-name="W" unicode="W" horiz-adv-x="1624" 
d="M1284 0h-268l-205 975l-205 -975h-268l-328 1475h279l186 -1033l217 1033h256l203 -1033l199 1033h264z" />
    <glyph glyph-name="X" unicode="X" horiz-adv-x="1133" 
d="M836 0l-275 528l-282 -528h-269l418 766l-377 709h289l233 -455l242 455h268l-376 -691l415 -784h-286z" />
    <glyph glyph-name="Y" unicode="Y" horiz-adv-x="1141" 
d="M690 598v-598h-262v598l-418 877h281l280 -623l291 623h268z" />
    <glyph glyph-name="Z" unicode="Z" horiz-adv-x="997" 
d="M31 0v225l610 1008h-586v242h887v-224l-612 -1009h637v-242h-936z" />
    <glyph glyph-name="bracketleft" unicode="[" horiz-adv-x="686" 
d="M143 -393v1868h502v-211h-256v-1446h256v-211h-502z" />
    <glyph glyph-name="backslash" unicode="\" horiz-adv-x="743" 
d="M500 0l-490 1475h234l489 -1475h-233z" />
    <glyph glyph-name="bracketright" unicode="]" horiz-adv-x="686" 
d="M41 -393v211h256v1446h-256v211h502v-1868h-502z" />
    <glyph glyph-name="asciicircum" unicode="^" horiz-adv-x="1094" 
d="M885 805l-334 416l-350 -420l-164 114l516 623l504 -629z" />
    <glyph glyph-name="underscore" unicode="_" horiz-adv-x="1044" 
d="M-2 -289v162h1049v-162h-1049z" />
    <glyph glyph-name="grave" unicode="`" horiz-adv-x="702" 
d="M389 1200l-227 260h268l111 -260h-152z" />
    <glyph glyph-name="a" unicode="a" horiz-adv-x="1069" 
d="M694 471h-170c-36 0 -65.833 -3.16699 -89.5 -9.5s-42.667 -15.5 -57 -27.5s-24.5 -26.5 -30.5 -43.5s-9 -35.833 -9 -56.5c0 -44 12.333 -78.333 37 -103c13.333 -12 30.166 -21.333 50.499 -28s47.166 -10 80.499 -10c23.333 0 46.333 4 69 12s42.834 19 60.501 33
s31.834 30.5 42.501 49.5s16 39.167 16 60.5v123zM707 0l-7.00098 92.0039c-12.667 -15.333 -28.167 -30.333 -46.5 -45s-39 -27.834 -62 -39.501s-48.333 -21 -76 -28s-57.5 -10.5 -89.5 -10.5c-60.667 0 -114.334 10.833 -161.001 32.5s-85 53.167 -115 94.5
c-46.667 60.667 -70 138 -70 232c0 42 5.16699 79.5 15.5 112.5s24.833 62.167 43.5 87.5c35.333 46.667 82.5 80.667 141.5 102s124.5 32 196.5 32h215v71c0 54.667 -15 93.334 -45 116.001s-69.667 34 -119 34c-28 0 -52 -2.33301 -72 -7s-37.167 -11.334 -51.5 -20.001
s-26.666 -19.334 -36.999 -32.001s-19.5 -27.334 -27.5 -44.001l-225 72c27.333 80 75.666 141 144.999 183s162.333 63 279 63c68.667 0 131.334 -9.5 188.001 -28.5s102.334 -49.167 137.001 -90.5c30.667 -36 51.667 -73.333 63 -112s17 -83.334 17 -134.001v-733h-237z
" />
    <glyph glyph-name="b" unicode="b" horiz-adv-x="1116" 
d="M764 532c0 38 -0.999023 75.001 -2.99902 111.001s-5.66699 64.667 -11 86c-4 19.333 -10.333 37.833 -19 55.5s-19.834 33.167 -33.501 46.5s-30.167 23.833 -49.5 31.5s-42 11.5 -68 11.5c-25.333 0 -49.833 -4.33301 -73.5 -13s-44.667 -21.834 -63 -39.501
s-33 -40 -44 -67s-16.5 -58.833 -16.5 -95.5v-253c0 -34 4.83301 -64.5 14.5 -91.5s23 -49.833 40 -68.5s37.5 -33 61.5 -43s50.333 -15 79 -15c49.333 0 88.5 14.333 117.5 43s47.833 69 56.5 121c1.33301 8 2.83301 18.667 4.5 32s3 28 4 44s1.83301 32.833 2.5 50.5
s1 35.5 1 53.5zM1026 532.001c0 -72.667 -3.16895 -136.335 -9.50195 -191.002s-16.833 -102 -31.5 -142c-8 -24 -20 -49.5 -36 -76.5s-37.167 -52 -63.5 -75s-58.5 -42.167 -96.5 -57.5s-83.333 -23 -136 -23c-36 0 -68.5 5 -97.5 15s-55 22.5 -78 37.5s-43.333 31 -61 48
s-32.834 32.833 -45.501 47.5l-6 -115h-238v1475h258v-506c14 18 29.833 34.833 47.5 50.5s37.834 29.334 60.501 41.001s47.334 20.834 74.001 27.501s56 10 88 10c78.667 0 143.334 -14.5 194.001 -43.5s90 -71.833 118 -128.5c24.667 -50 40.667 -107.333 48 -172
s11 -138.667 11 -222z" />
    <glyph glyph-name="c" unicode="c" horiz-adv-x="969" 
d="M948 266c-26.667 -96.667 -73.9971 -170.671 -141.997 -222.004s-155.667 -77 -263 -77c-60 0 -112.667 6.5 -158 19.5s-84.5 31.167 -117.5 54.5s-60.333 51 -82 83s-39.167 67 -52.5 105c-16.667 45.333 -28 93.833 -34 145.5s-9 104.167 -9 157.5
c0 54 3 106.333 9 157s17.333 99 34 145c14 38 32.167 73.167 54.5 105.5s50.166 60.333 83.499 84s72.833 42 118.5 55s98.834 19.5 159.501 19.5c108 0 195.667 -26 263 -78s110.666 -126.333 129.999 -223l-233 -74c-14.667 58.667 -36.167 100 -64.5 124
s-64.166 36 -107.499 36s-77.5 -11.167 -102.5 -33.5s-44.167 -52.166 -57.5 -89.499c-10.667 -31.333 -17.834 -66.333 -21.501 -105s-5.5 -79.667 -5.5 -123s1.33301 -80.666 4 -111.999s6.66699 -58.666 12 -81.999s12.166 -43.166 20.499 -59.499
s18.166 -30.5 29.499 -42.5c12 -14.667 28.167 -26.667 48.5 -36s42.833 -14 67.5 -14c22.667 0 43.167 2.16699 61.5 6.5s35 12.166 50 23.499s28.333 27.333 40 48s22.167 47.334 31.5 80.001z" />
    <glyph glyph-name="d" unicode="d" horiz-adv-x="1116" 
d="M733 659c0 36.667 -5.49902 68.499 -16.499 95.499s-25.667 49.333 -44 67s-39.333 30.834 -63 39.501s-47.834 13 -72.501 13c-26 0 -48.833 -3.83301 -68.5 -11.5s-36.334 -18.167 -50.001 -31.5s-24.667 -28.833 -33 -46.5s-14.5 -36.167 -18.5 -55.5
c-5.33301 -21.333 -9.16602 -50 -11.499 -86s-3.5 -73 -3.5 -111c0 -18 0.333008 -35.833 1 -53.5s1.66699 -34.5 3 -50.5s2.66602 -30.667 3.99902 -44s3 -24 5 -32c8 -52 26.5 -92.333 55.5 -121s68.5 -43 118.5 -43c28.667 0 54.834 5 78.501 15s44 24.333 61 43
s30.333 41.5 40 68.5s14.5 57.5 14.5 91.5v253zM752.001 -0.000976562l-7 117c-12.667 -17.333 -27.834 -35 -45.501 -53s-38 -34.167 -61 -48.5s-49 -26 -78 -35s-61.5 -13.5 -97.5 -13.5c-52.667 0 -98 7.66699 -136 23s-70.167 34.5 -96.5 57.5s-47.5 48 -63.5 75
s-28 52.5 -36 76.5c-14.667 40 -25.167 87.333 -31.5 142s-9.5 118.334 -9.5 191.001c0 82.667 3.66699 156.667 11 222s23.666 122.666 48.999 171.999c28 56.667 67.167 99.5 117.5 128.5s114.833 43.5 193.5 43.5c32.667 0 62.834 -3.66699 90.501 -11
s52.834 -17.166 75.501 -29.499s43 -26.833 61 -43.5s33.667 -34.334 47 -53.001v514h254v-1475h-237z" />
    <glyph glyph-name="e" unicode="e" horiz-adv-x="1044" 
d="M713 635c0 48.667 -4.16797 89.501 -12.501 122.501s-20.333 59.333 -36 79s-34.5 33.667 -56.5 42s-46.333 12.5 -73 12.5c-27.333 0 -52.166 -4 -74.499 -12s-41.5 -21.833 -57.5 -41.5s-28.833 -45.834 -38.5 -78.501s-15.167 -74 -16.5 -124h365zM345.999 453.001
l-0.000976562 -35.002c0 -44 5.16699 -80.667 15.5 -110s24.833 -53 43.5 -71s41 -30.667 67 -38s55 -11 87 -11c29.333 0 54.833 3.83301 76.5 11.5s40 17.5 55 29.5s27.333 25 37 39s17.167 27 22.5 39l206 -100c-12 -27.333 -27.667 -55.166 -47 -83.499
s-45 -54.166 -77 -77.499s-71.333 -42.333 -118 -57s-103 -22 -169 -22c-103.333 0 -188.5 18 -255.5 54s-117.167 94.667 -150.5 176c-32.667 78 -49 182.333 -49 313c0 113.333 10.167 209.5 30.5 288.5s54.5 142.5 102.5 190.5c36 36 80.833 63.167 134.5 81.5
s118.834 27.5 195.501 27.5c70 0 128.833 -9.33301 176.5 -28s87.167 -43 118.5 -73c24.667 -24 44.5 -50.167 59.5 -78.5s26.833 -59.5 35.5 -93.5s14.5 -71 17.5 -111s4.5 -83.333 4.5 -130v-131h-619z" />
    <glyph glyph-name="f" unicode="f" horiz-adv-x="645" 
d="M674 1290l-59.001 5.50098c-18.667 1.66699 -40.667 2.5 -66 2.5c-26.667 0 -49.167 -3.5 -67.5 -10.5s-32.166 -15.5 -41.499 -25.5c-13.333 -15.333 -22.333 -33.333 -27 -54s-7 -48 -7 -82v-61h235v-203h-235v-862h-256v862h-138v203h135v68
c0 125.333 35 216.666 105 273.999c59.333 49.333 145.333 74 258 74c30 0 60.167 -1.16699 90.5 -3.5s54.833 -4.83301 73.5 -7.5v-180z" />
    <glyph glyph-name="g" unicode="g" horiz-adv-x="1116" 
d="M733 659c0 36.667 -5.5 68.498 -16.5 95.498s-25.667 49.333 -44 67s-39.333 30.834 -63 39.501s-47.834 13 -72.501 13c-26 0 -48.833 -3.83301 -68.5 -11.5s-36.334 -18.167 -50.001 -31.5s-24.667 -28.833 -33 -46.5s-14.5 -36.167 -18.5 -55.5
c-5.33301 -21.333 -9.16602 -46.833 -11.499 -76.5s-3.5 -63.5 -3.5 -101.5c0 -36 1.5 -71.667 4.5 -107s7.16699 -65.333 12.5 -90c9.33301 -44 27.5 -77.167 54.5 -99.5s65.5 -33.5 115.5 -33.5c28.667 0 54.834 5 78.501 15s44 24.333 61 43s30.333 41.334 40 68.001
s14.5 57 14.5 91v221zM989 -47.002c0 -28 -1.16406 -54.835 -3.49707 -80.502s-6.5 -50.167 -12.5 -73.5s-14.667 -45.666 -26 -66.999s-26 -41.333 -44 -60c-36 -36.667 -84 -63.5 -144 -80.5s-128.667 -25.5 -206 -25.5c-115.333 0 -209.5 18.333 -282.5 55
s-123.5 87.334 -151.5 152.001l227 86c9.33301 -12 19.666 -23.5 30.999 -34.5s24.833 -20.667 40.5 -29s34 -14.833 55 -19.5s45.833 -7 74.5 -7c75.333 0 128 19 158 57c13.333 17.333 21.333 38.666 24 63.999s4 54.333 4 87v146c-12.667 -14 -27.167 -28.333 -43.5 -43
s-35.333 -28 -57 -40s-46.334 -21.667 -74.001 -29s-59.5 -11 -95.5 -11c-52.667 0 -98 6.83301 -136 20.5s-70.167 31.167 -96.5 52.5s-47.5 44.833 -63.5 70.5s-28 50.167 -36 73.5c-14.667 40 -25.167 87.5 -31.5 142.5s-9.5 118.833 -9.5 191.5
c0 41.333 0.833008 79.5 2.5 114.5s4.66699 67.667 9 98s10.333 58.833 18 85.5s17.834 52.334 30.501 77.001c28 56.667 67.167 99.5 117.5 128.5s114.833 43.5 193.5 43.5c34.667 0 66.5 -4 95.5 -12s55.167 -19 78.5 -33s44.166 -30 62.499 -48s34.166 -37 47.499 -57
l7 117h237v-1112z" />
    <glyph glyph-name="h" unicode="h" horiz-adv-x="1124" 
d="M743 0l-0.00390625 721.002c0 43.333 -13.167 78 -39.5 104s-64.166 39 -113.499 39c-29.333 0 -56.666 -6.33301 -81.999 -19s-47.166 -29.834 -65.499 -51.501s-32.833 -46.667 -43.5 -75s-16 -58.166 -16 -89.499v-629h-256v1475h256v-523
c14 17.333 30 34.666 48 51.999s39 33 63 47s51.5 25.333 82.5 34s66.833 13 107.5 13c34.667 0 70.667 -4.83301 108 -14.5s71.333 -27 102 -52s55.834 -58.833 75.501 -101.5s29.5 -97.334 29.5 -164.001v-766h-256z" />
    <glyph glyph-name="i" unicode="i" horiz-adv-x="510" 
d="M127 0v1065h256v-1065h-256zM127 1235v240h256v-240h-256z" />
    <glyph glyph-name="j" unicode="j" horiz-adv-x="518" 
d="M391 -33c0 -58.667 -5.50098 -110.332 -16.501 -154.999s-32.833 -82.334 -65.5 -113.001c-30.667 -28.667 -68 -51.167 -112 -67.5s-95.333 -24.5 -154 -24.5c-19.333 0 -37.333 0.333008 -54 1s-34 1.66699 -52 3v213h26c38.667 0 69.334 3 92.001 9s40 15.667 52 29
s19.667 30.5 23 51.5s5 46.5 5 76.5v1075h256v-1098zM134.999 1233v242h256v-242h-256z" />
    <glyph glyph-name="k" unicode="k" horiz-adv-x="1065" 
d="M768 0l-258 547l-127 -127v-420h-256v1475h256v-754l336 344h309l-334 -334l361 -731h-287z" />
    <glyph glyph-name="l" unicode="l" horiz-adv-x="510" 
d="M127 0v1475h256v-1475h-256z" />
    <glyph glyph-name="m" unicode="m" horiz-adv-x="1651" 
d="M1270 0l0.000976562 721c0 21.333 -2.16699 40.833 -6.5 58.5s-11.666 32.667 -21.999 45s-23.833 22 -40.5 29s-37.334 10.5 -62.001 10.5c-29.333 0 -55.5 -6.33301 -78.5 -19s-42.333 -29.834 -58 -51.501s-27.667 -46.667 -36 -75s-12.5 -58.166 -12.5 -89.499v-629
h-256v721c0 21.333 -2.16699 40.833 -6.5 58.5s-11.666 32.667 -21.999 45s-23.833 22 -40.5 29s-37.334 10.5 -62.001 10.5c-29.333 0 -55.333 -6.33301 -78 -19s-41.834 -29.834 -57.501 -51.501s-27.667 -46.667 -36 -75s-12.5 -58.166 -12.5 -89.499v-629h-256v1065h238
l6 -119c12.667 17.333 27.334 35 44.001 53s36.5 34.333 59.5 49s49.667 26.667 80 36s66.166 14 107.499 14c24.667 0 49.5 -2.33301 74.5 -7s49 -12.667 72 -24s44 -26.666 63 -45.999s35.167 -43.666 48.5 -72.999c13.333 16.667 29 34 47 52s39.5 34.167 64.5 48.5
s54 26.166 87 35.499s71.167 14 114.5 14c34.667 0 69.5 -4.83301 104.5 -14.5s66.5 -27 94.5 -52s50.667 -58.833 68 -101.5s26 -97.334 26 -164.001v-766h-256z" />
    <glyph glyph-name="n" unicode="n" horiz-adv-x="1104" 
d="M723 0l0.000976562 721.001c0 43.333 -11.5 78 -34.5 104s-59.167 39 -108.5 39c-29.333 0 -56 -6.33301 -80 -19s-44.667 -29.834 -62 -51.501s-30.833 -46.667 -40.5 -75s-14.5 -58.166 -14.5 -89.499v-629h-256v1065h238l6 -119c14 17.333 29.833 35 47.5 53
s38.667 34.333 63 49s52.166 26.667 83.499 36s67.666 14 108.999 14c34.667 0 70 -4.83301 106 -14.5s68.833 -27 98.5 -52s53.834 -58.833 72.501 -101.5s28 -97.334 28 -164.001v-766h-256z" />
    <glyph glyph-name="o" unicode="o" horiz-adv-x="1090" 
d="M739 532c0 52 -2.33496 96.665 -7.00195 133.998s-11.667 69.333 -21 96c-15.333 44 -36.666 74.5 -63.999 91.5s-60.666 25.5 -99.999 25.5c-40 0 -74.167 -8.33301 -102.5 -25s-50.166 -46.667 -65.499 -90c-9.33301 -26.667 -16.5 -59 -21.5 -97s-7.5 -83 -7.5 -135
c0 -51.333 2.5 -95.666 7.5 -132.999s12.167 -69.333 21.5 -96c15.333 -43.333 37.166 -73.666 65.499 -90.999s62.5 -26 102.5 -26c31.333 0 59 5.33301 83 16s44 29.167 60 55.5s28.167 61.833 36.5 106.5s12.5 100.667 12.5 168zM998.998 531.998
c0 -56.667 -3.33301 -110.667 -10 -162s-17.667 -99 -33 -143c-14 -38.667 -32.5 -74 -55.5 -106s-51 -59.333 -84 -82s-71.667 -40.334 -116 -53.001s-95.5 -19 -153.5 -19c-58.667 0 -110.5 6.33301 -155.5 19s-84.333 30.334 -118 53.001s-62 50 -85 82
s-41.5 67.333 -55.5 106c-15.333 44 -26.333 91.667 -33 143s-10 105.333 -10 162s3.33301 110.5 10 161.5s17.667 98.5 33 142.5c14 39.333 32.5 75 55.5 107s51.167 59.5 84.5 82.5s72.5 40.833 117.5 53.5s97.167 19 156.5 19c58 0 109.5 -6.33301 154.5 -19
s84 -30.5 117 -53.5s60.667 -50.5 83 -82.5s40.5 -67.667 54.5 -107c15.333 -44 26.333 -91.667 33 -143s10 -105 10 -161z" />
    <glyph glyph-name="p" unicode="p" horiz-adv-x="1116" 
d="M764 532c0 38 -0.999023 75.001 -2.99902 111.001s-5.66699 64.667 -11 86c-4 19.333 -10.333 37.833 -19 55.5s-19.834 33.167 -33.501 46.5s-30.167 23.833 -49.5 31.5s-42 11.5 -68 11.5c-25.333 0 -49.833 -4.33301 -73.5 -13s-44.667 -21.834 -63 -39.501
s-33 -40 -44 -67s-16.5 -58.833 -16.5 -95.5v-253c0 -34 4.83301 -64.5 14.5 -91.5s23 -49.833 40 -68.5s37.5 -33 61.5 -43s50.333 -15 79 -15c49.333 0 88.5 14.333 117.5 43s47.833 69 56.5 121c1.33301 8 2.83301 18.667 4.5 32s3 28 4 44s1.83301 32.833 2.5 50.5
s1 35.5 1 53.5zM1026 532.001c0 -72.667 -3.16699 -136.333 -9.5 -191s-16.833 -102 -31.5 -142c-8 -24 -20 -49.5 -36 -76.5s-37.167 -52 -63.5 -75s-58.5 -42.167 -96.5 -57.5s-83.333 -23 -136 -23c-36 0 -67.833 3.66699 -95.5 11s-52.334 17 -74.001 29
s-40.667 25.333 -57 40s-30.833 29 -43.5 43v-483h-256v1458h238l6 -117c13.333 20 29 39 47 57s38.833 34 62.5 48s50 25 79 33s60.833 12 95.5 12c78.667 0 143.334 -14.5 194.001 -43.5s90 -71.833 118 -128.5c24.667 -50 40.667 -107.333 48 -172s11 -138.667 11 -222z
" />
    <glyph glyph-name="q" unicode="q" horiz-adv-x="1116" 
d="M733 659c0 36.667 -5.49902 68.499 -16.499 95.499s-25.667 49.333 -44 67s-39.333 30.834 -63 39.501s-47.834 13 -72.501 13c-26 0 -48.833 -3.83301 -68.5 -11.5s-36.334 -18.167 -50.001 -31.5s-24.667 -28.833 -33 -46.5s-14.5 -36.167 -18.5 -55.5
c-5.33301 -21.333 -9.16602 -50 -11.499 -86s-3.5 -73 -3.5 -111c0 -18 0.333008 -35.833 1 -53.5s1.66699 -34.5 3 -50.5s2.66602 -30.667 3.99902 -44s3 -24 5 -32c8 -52 26.5 -92.333 55.5 -121s68.5 -43 118.5 -43c28.667 0 54.834 5 78.501 15s44 24.333 61 43
s30.333 41.5 40 68.5s14.5 57.5 14.5 91.5v253zM733.001 -393.001l0.00390625 483c-12.667 -14 -27.167 -28.333 -43.5 -43s-35.333 -28 -57 -40s-46.334 -21.667 -74.001 -29s-59.5 -11 -95.5 -11c-52.667 0 -98 7.66699 -136 23s-70.167 34.5 -96.5 57.5
s-47.5 48 -63.5 75s-28 52.5 -36 76.5c-14.667 40 -25.167 87.333 -31.5 142s-9.5 118.334 -9.5 191.001c0 82.667 3.66699 156.667 11 222s23.666 122.666 48.999 171.999c28 56.667 67.167 99.5 117.5 128.5s114.833 43.5 193.5 43.5c34.667 0 66.5 -4 95.5 -12
s55.167 -19 78.5 -33s44.166 -30 62.499 -48s34.166 -37 47.499 -57l7 117h237v-1458h-256z" />
    <glyph glyph-name="r" unicode="r" horiz-adv-x="717" 
d="M707 809l-36.999 4c-12 1.33301 -25 2 -39 2c-48 0 -87.833 -9 -119.5 -27s-57 -41.833 -76 -71.5s-32.5 -63.5 -40.5 -101.5s-12 -77 -12 -117v-498h-256v1065h238l6 -217c12 25.333 26.5 51 43.5 77s37.667 49.5 62 70.5s52.666 38.167 84.999 51.5s69.833 20 112.5 20
h33v-258z" />
    <glyph glyph-name="s" unicode="s" horiz-adv-x="995" 
d="M721 784c-6 14.667 -13.8311 28.6699 -23.498 42.0029s-21.834 25.166 -36.501 35.499s-32 18.5 -52 24.5s-43.333 9 -70 9c-56.667 0 -98.334 -11 -125.001 -33c-24.667 -18 -37 -45.333 -37 -82c0 -18 5.66699 -34 17 -48s27.666 -26.833 48.999 -38.5
s47.333 -22.5 78 -32.5s65.334 -20 104.001 -30c39.333 -10.667 73.166 -22.167 101.499 -34.5s52.666 -25.166 72.999 -38.499s37 -26.833 50 -40.5s23.5 -27.167 31.5 -40.5c12 -20.667 22.167 -45.667 30.5 -75s12.5 -63.666 12.5 -102.999c0 -28 -2.33301 -53 -7 -75
s-10.667 -41.333 -18 -58s-15.166 -31.167 -23.499 -43.5s-16.166 -23.166 -23.499 -32.499c-12 -14.667 -28.333 -29.334 -49 -44.001s-45.167 -27.834 -73.5 -39.501s-60.166 -21.167 -95.499 -28.5s-74 -11 -116 -11c-34 0 -64.333 1.66699 -91 5s-51.334 8 -74.001 14
s-43.334 13.167 -62.001 21.5s-37 17.5 -55 27.5c-35.333 20.667 -66.166 46.667 -92.499 78s-46.166 64.666 -59.499 99.999l215 92c10 -16 21.5 -31.5 34.5 -46.5s27.833 -28.167 44.5 -39.5s35.5 -20.333 56.5 -27s44.833 -10 71.5 -10c23.333 0 45.333 1.83301 66 5.5
s38.5 9.83398 53.5 18.501s26.833 19.834 35.5 33.501s13 30.167 13 49.5c0 23.333 -5.5 42.166 -16.5 56.499s-27 26.833 -48 37.5s-47.333 20.5 -79 29.5s-67.834 20.167 -108.501 33.5c-20.667 7.33301 -40.167 14.666 -58.5 21.999s-35.833 15.333 -52.5 24
c-28 13.333 -51.667 27.5 -71 42.5s-35 30.167 -47 45.5c-10.667 13.333 -19.667 27.833 -27 43.5s-13.333 31.667 -18 48s-8 32.166 -10 47.499s-3 29 -3 41c0 25.333 2.83301 52.833 8.5 82.5s15.834 58.167 30.501 85.5c11.333 21.333 26.666 42.166 45.999 62.499
s43.666 38.5 72.999 54.5s64 28.833 104 38.5s86 14.5 138 14.5c98.667 0 181.834 -18 249.501 -54s115.5 -91 143.5 -165z" />
    <glyph glyph-name="t" unicode="t" horiz-adv-x="662" 
d="M641 -8c-7.33301 -1.33301 -16.333 -2.33398 -27 -3.00098s-22.167 -1.5 -34.5 -2.5s-25 -1.66699 -38 -2s-25.5 -0.5 -37.5 -0.5c-68 0 -124.333 8.83301 -169 26.5s-80.167 42.834 -106.5 75.501s-44.666 72.5 -54.999 119.5s-15.5 100.167 -15.5 159.5v497h-138v203
h136v258h258v-258h217v-203h-217v-495c0 -60 10.333 -103.333 31 -130s56.667 -40 108 -40c15.333 0 30.166 0.333008 44.499 1s28.833 1.66699 43.5 3v-209z" />
    <glyph glyph-name="u" unicode="u" horiz-adv-x="1112" 
d="M748 0l-6.99902 118.999c-14 -17.333 -29.833 -35 -47.5 -53s-38.667 -34.167 -63 -48.5s-52.333 -26 -84 -35s-67.834 -13.5 -108.501 -13.5c-34.667 0 -70.5 4.83301 -107.5 14.5s-70.667 27 -101 52s-55.333 58.833 -75 101.5s-29.5 97.334 -29.5 164.001v764h256
v-719c0 -43.333 12.833 -78 38.5 -104s63.167 -39 112.5 -39c29.333 0 56 6.33301 80 19s44.667 29.834 62 51.501s30.833 46.667 40.5 75s14.5 58.166 14.5 89.499v627h256v-1065h-237z" />
    <glyph glyph-name="v" unicode="v" horiz-adv-x="1026" 
d="M637 0h-248l-379 1065h264l246 -721l246 721h250z" />
    <glyph glyph-name="w" unicode="w" horiz-adv-x="1475" 
d="M1157 0h-248l-172 647l-172 -647h-248l-307 1065h264l175 -721l174 721h243l174 -721l174 721h250z" />
    <glyph glyph-name="x" unicode="x" horiz-adv-x="995" 
d="M692 0l-196 344l-201 -344h-275l340 539l-325 526h282l187 -326l188 326h273l-326 -520l336 -545h-283z" />
    <glyph glyph-name="y" unicode="y" horiz-adv-x="1024" 
d="M569 -84c-24 -62 -48.8301 -113 -74.4971 -153s-52.834 -71.5 -81.501 -94.5s-59.334 -39 -92.001 -48s-68 -13.5 -106 -13.5c-22.667 0 -41.334 0.5 -56.001 1.5s-28.667 3.16699 -42 6.5v225c9.33301 -2 18.5 -3.5 27.5 -4.5s19.5 -1.5 31.5 -1.5
c17.333 0 33.833 1.83301 49.5 5.5s30.5 10.667 44.5 21s27.167 24.333 39.5 42s23.833 40.5 34.5 68.5l33 84l-367 1010h266l234 -657l250 657h254z" />
    <glyph glyph-name="z" unicode="z" horiz-adv-x="860" 
d="M31 0v180l473 682h-447v203h758v-180l-473 -682h487v-203h-798z" />
    <glyph glyph-name="braceleft" unicode="{" horiz-adv-x="707" 
d="M666 -393c-35.333 0 -66.333 0.49707 -93 1.49707s-50.167 2.83301 -70.5 5.5s-38.166 5.83398 -53.499 9.50098s-29.666 8.5 -42.999 14.5c-39.333 16 -70.166 36.667 -92.499 62s-39 54.5 -50 87.5s-18 69.167 -21 108.5s-4.5 80.666 -4.5 123.999v160
c0 34 -0.833008 64.833 -2.5 92.5s-5.83398 50.834 -12.501 69.501c-5.33301 15.333 -11.666 28 -18.999 38s-17.666 18.167 -30.999 24.5s-30.666 11.333 -51.999 15s-48 7.16699 -80 10.5v221c32 3.33301 58.667 6.83301 80 10.5s38.666 8.83398 51.999 15.501
s23.666 14.834 30.999 24.501s13.666 22.167 18.999 37.5c6.66699 18.667 10.5 41.834 11.5 69.501s1.5 58.5 1.5 92.5v160c0 62.667 3.5 116.667 10.5 162s18.333 83.5 34 114.5s36.167 55.667 61.5 74s56.666 32.5 93.999 42.5c30 8 63.833 13.5 101.5 16.5
s80.5 4.5 128.5 4.5v-211c-42.667 -0.666992 -76 -2.5 -100 -5.5s-42 -10.667 -54 -23s-19.5 -30.833 -22.5 -55.5s-4.5 -59 -4.5 -103v-176c0 -30.667 -0.833008 -61.167 -2.5 -91.5s-5.5 -59.833 -11.5 -88.5c-8 -35.333 -21 -68.333 -39 -99s-44 -57.667 -78 -81
c34 -23.333 59.833 -50.5 77.5 -81.5s30.167 -64.167 37.5 -99.5c7.33301 -28.667 11.5 -58.334 12.5 -89.001s1.5 -61 1.5 -91v-176c0 -44 1.5 -78.333 4.5 -103s10.667 -43 23 -55s30.666 -19.5 54.999 -22.5s57.833 -4.83301 100.5 -5.5v-211z" />
    <glyph glyph-name="bar" unicode="|" horiz-adv-x="549" 
d="M164 -393v1868h221v-1868h-221z" />
    <glyph glyph-name="braceright" unicode="}" horiz-adv-x="707" 
d="M666 430c-32 -3.33301 -58.6699 -6.83008 -80.0029 -10.4971s-38.666 -8.66699 -51.999 -15s-23.833 -14.5 -31.5 -24.5s-14.167 -22.667 -19.5 -38c-6 -18.667 -9.5 -41.834 -10.5 -69.501s-1.5 -58.5 -1.5 -92.5v-160c0 -62.667 -3.5 -116.667 -10.5 -162
s-18.333 -83.5 -34 -114.5s-36.334 -55.667 -62.001 -74s-57.167 -32.5 -94.5 -42.5c-30 -8 -63.833 -13.333 -101.5 -16s-80.167 -4 -127.5 -4v211c42.667 0.666992 76 2.5 100 5.5s42 10.5 54 22.5s19.333 30.333 22 55s4 59 4 103v176c0 31.333 0.833008 62 2.5 92
s5.83398 59.333 12.501 88c8 35.333 20.833 68.5 38.5 99.5s43.5 58.167 77.5 81.5c-34 23.333 -59.667 50.333 -77 81s-29.666 63.667 -36.999 99c-7.33301 28.667 -11.666 58.334 -12.999 89.001s-2 61 -2 91v176c0 44 -1.5 78.333 -4.5 103s-10.5 43.167 -22.5 55.5
s-30.167 20 -54.5 23s-57.833 4.83301 -100.5 5.5v211c47.333 0 89.833 -1.5 127.5 -4.5s71.5 -8.5 101.5 -16.5c36.667 -10 67.834 -24.167 93.501 -42.5s46.167 -43 61.5 -74s26.5 -69.167 33.5 -114.5s10.5 -99.333 10.5 -162v-160c0 -34 0.833008 -64.833 2.5 -92.5
s5.5 -50.834 11.5 -69.501c5.33301 -15.333 11.833 -27.833 19.5 -37.5s18.167 -17.834 31.5 -24.501s30.666 -11.834 51.999 -15.501s48 -7.16699 80 -10.5v-221z" />
    <glyph glyph-name="asciitilde" unicode="~" horiz-adv-x="1124" 
d="M1094 805c-20.667 -40 -39.833 -72.5029 -57.5 -97.5029s-36.167 -47.167 -55.5 -66.5c-28.667 -28 -61 -51 -97 -69s-76 -27 -120 -27c-35.333 0 -71.666 6.33301 -108.999 19s-74 27.334 -110 44.001l-56.5 26c-18.333 8.66699 -35.5 16.334 -51.5 23.001
s-30.667 12.167 -44 16.5s-25 6.5 -35 6.5c-13.333 0 -26.833 -3.33301 -40.5 -10s-28.167 -17.667 -43.5 -33l-14.5 -18.5c-5 -6.33301 -10.833 -14.333 -17.5 -24l-23.5 -34.5l-32.5 -48l-155 119c13.333 26.667 27.833 52.5 43.5 77.5s33.167 48.167 52.5 69.5
c28.667 34 62 61.667 100 83s81.667 32 131 32c34 0 69.833 -6.5 107.5 -19.5s75.167 -27.833 112.5 -44.5l56.5 -25.5l51.5 -22.5c16 -6.66699 30.667 -12.167 44 -16.5s24.666 -6.5 33.999 -6.5c19.333 0 38 6.5 56 19.5s34 28.167 48 45.5
c15.333 18.667 28.833 37.334 40.5 56.001l29.5 47z" />
    <glyph glyph-name="nonbreakingspace" unicode="&#xa0;" horiz-adv-x="532" 
 />
    <glyph glyph-name="exclamdown" unicode="&#xa1;" horiz-adv-x="606" 
d="M158 -410l22 1035h248l23 -1035h-293zM156 764v301h295v-301h-295z" />
    <glyph glyph-name="cent" unicode="&#xa2;" 
d="M539 881c-30 -7.33301 -54.5 -21.5 -73.5 -42.5s-33.5 -47.833 -43.5 -80.5c-9.33301 -30 -15.833 -63.667 -19.5 -101s-5.5 -79 -5.5 -125c0 -50 1.66699 -93.333 5 -130s9.33301 -68.334 18 -95.001c10 -36 24.833 -63.167 44.5 -81.5s44.5 -32.166 74.5 -41.499v697z
M801 733c-10.667 38 -24 69.332 -40 93.999s-39 41.334 -69 50.001v-684c29.333 10 52.666 26 69.999 48s31.666 53 42.999 93l217 -74c-23.333 -82.667 -63 -148 -119 -196s-126.333 -78.333 -211 -91v-249h-153v247c-60 7.33301 -111.667 20.166 -155 38.499
s-80 42.5 -110 72.5c-50 49.333 -84 112.333 -102 189s-27 163.667 -27 261c0 92 8.83301 175.833 26.5 251.5s50.5 139.5 98.5 191.5c31.333 32 68.833 58 112.5 78s95.834 33.667 156.501 41v186h153v-186c43.333 -6 83.333 -16.667 120 -32s69.334 -35.333 98.001 -60
s52.667 -53.667 72 -87s33.333 -70.666 42 -111.999z" />
    <glyph glyph-name="sterling" unicode="&#xa3;" 
d="M827 1044c-7.33301 32 -16.499 60.6709 -27.499 86.0039s-24.833 47.333 -41.5 66c-19.333 21.333 -43 38 -71 50s-63 18 -105 18c-33.333 0 -62 -4.66699 -86 -14s-44.667 -22.666 -62 -39.999c-14 -14 -25 -30.5 -33 -49.5s-12 -39.167 -12 -60.5
c0 -29.333 5.16699 -56.833 15.5 -82.5s23.5 -50.834 39.5 -75.501c4 -6.66699 10.333 -15.334 19 -26.001l29.5 -37l36 -45.5c13 -16.333 25.833 -33.5 38.5 -51.5h365v-186h-283v-18c0 -37.333 -3 -71.5 -9 -102.5s-15.833 -60.833 -29.5 -89.5
s-31.667 -56.834 -54 -84.501s-50.166 -57.167 -83.499 -88.5h586v-213h-953v186l117.5 100c32.333 28.667 59.166 54.167 80.499 76.5s38.166 42 50.499 59s21.5 32.667 27.5 47s9.66699 27.833 11 40.5s2 26 2 40c0 7.33301 -0.5 15 -1.5 23s-3.16699 16 -6.5 24h-262v186
h137c-16 21.333 -31.833 43.666 -47.5 66.999s-29.667 47.666 -42 72.999s-22.333 52 -30 80s-11.5 57.333 -11.5 88c0 59.333 9.66699 111.5 29 156.5s46.666 83.5 81.999 115.5c42 38 93.5 66.333 154.5 85s127.5 28 199.5 28c87.333 0 163 -12 227 -36
s116 -60.667 156 -110c24.667 -30 45.834 -64.333 63.501 -103s30.5 -82 38.5 -130z" />
    <glyph glyph-name="currency" unicode="&#xa4;" 
d="M821 737c0 33.333 -6.33301 64.666 -19 93.999s-30 55 -52 77s-47.667 39.333 -77 52s-61 19 -95 19c-33.333 0 -64.666 -6.33301 -93.999 -19s-55 -30 -77 -52s-39.333 -47.667 -52 -77s-19 -60.666 -19 -93.999s6.33301 -64.666 19 -93.999s30 -54.833 52 -76.5
s47.667 -38.834 77 -51.501s60.666 -19 93.999 -19c34 0 65.667 6.33301 95 19s55 29.834 77 51.501s39.333 47.167 52 76.5s19 60.666 19 93.999zM920 274l-114.998 116.998c-66.667 -43.333 -142.334 -65 -227.001 -65c-41.333 0 -81 5.66699 -119 17
s-73.667 27.333 -107 48l-114 -117l-123 125l114 117c-42 65.333 -63 139 -63 221c0 41.333 5.66699 81 17 119s27.333 73.667 48 107l-116 118l125 125l116 -119c32 20.667 66.667 36.834 104 48.501s76.666 17.5 117.999 17.5c38 0 75.333 -5.66699 112 -17
s73.667 -27.666 111 -48.999l119 119l122 -125l-116 -118c20.667 -32 36.667 -67.167 48 -105.5s17 -78.5 17 -120.5c0 -80 -21 -153.667 -63 -221l116 -117z" />
    <glyph glyph-name="yen" unicode="&#xa5;" 
d="M788 772h248v-180h-336v-166h336v-180h-336v-246h-262v246h-317v180h317v166h-317v180h233l-344 670h279l286 -608l297 608h277z" />
    <glyph glyph-name="brokenbar" unicode="&#xa6;" horiz-adv-x="549" 
d="M164 -393v622h221v-622h-221zM164 852v623h221v-623h-221z" />
    <glyph glyph-name="section" unicode="&#xa7;" horiz-adv-x="1012" 
d="M707 557c0 19.333 -3.83398 37.166 -11.501 53.499s-19.167 32.166 -34.5 47.499s-34.5 30.5 -57.5 45.5s-49.5 31.167 -79.5 48.5c-25.333 -0.666992 -49.5 -4 -72.5 -10s-43.167 -15 -60.5 -27s-31.166 -27.167 -41.499 -45.5s-15.5 -40.166 -15.5 -65.499
c0 -19.333 3.83301 -36.833 11.5 -52.5s19.167 -31 34.5 -46s35 -30.167 59 -45.5s52.333 -32 85 -50c24 0.666992 47.167 4.33398 69.5 11.001s41.833 16.167 58.5 28.5s30 27.5 40 45.5s15 38.667 15 62zM929.999 559c0 -23.333 -3.83301 -47.9941 -11.5 -73.9941
s-19.5 -51.167 -35.5 -75.5s-36.5 -47 -61.5 -68s-54.5 -38.5 -88.5 -52.5c53.333 -36 95.333 -77.667 126 -125s46 -105.333 46 -174c0 -42 -7.33301 -80.333 -22 -115s-36 -64.667 -64 -90c-34.667 -34 -77.834 -59.833 -129.501 -77.5s-109.5 -26.5 -173.5 -26.5
c-107.333 0 -196.666 23.667 -267.999 71s-126.666 122.333 -165.999 225l194 82c14.667 -40.667 30.834 -73.5 48.501 -98.5s36.5 -44.5 56.5 -58.5s41.167 -23.333 63.5 -28s45.5 -7 69.5 -7c29.333 0 54.166 3.33301 74.499 10s36.833 15.834 49.5 27.501
s21.834 25.667 27.501 42s8.5 34.166 8.5 53.499s-5.66699 38.166 -17 56.499s-26.166 35.666 -44.499 51.999s-39.166 32.166 -62.499 47.499s-47 29.666 -71 42.999l-70 38c-22.667 12 -42.334 23 -59.001 33c-30.667 18.667 -60.334 39 -89.001 61
s-54.167 46.333 -76.5 73s-40.166 56 -53.499 88s-20 67.333 -20 106c0 26 3.83301 52.833 11.5 80.5s19.5 54 35.5 79s36.667 47.5 62 67.5s55.666 35.667 90.999 47c-21.333 15.333 -42.5 33 -63.5 53s-39.833 41.833 -56.5 65.5s-30.167 50.167 -40.5 79.5
s-15.5 60.333 -15.5 93c0 39.333 7 77.333 21 114s36 69.834 66 99.501s68.667 53.5 116 71.5s104.666 27 171.999 27c107.333 0 193.333 -23.667 258 -71s111.667 -122 141 -224l-196 -66c-9.33301 33.333 -19 60 -29 80s-22.333 37 -37 51
c-17.333 17.333 -37.666 29.833 -60.999 37.5s-46.666 11.5 -69.999 11.5c-30.667 0 -56.334 -3.5 -77.001 -10.5s-37.334 -16.5 -50.001 -28.5s-21.667 -25.833 -27 -41.5s-8 -31.834 -8 -48.501c0 -24.667 8.16699 -47.167 24.5 -67.5s37.666 -39.5 63.999 -57.5
s56.5 -36.167 90.5 -54.5l106 -57.5c36 -20.667 71.5 -42.834 106.5 -66.501s66.167 -50.334 93.5 -80.001s49.333 -62.667 66 -99s25 -77.5 25 -123.5z" />
    <glyph glyph-name="dieresis" unicode="&#xa8;" horiz-adv-x="702" 
d="M74 1212v203h225v-203h-225zM403 1212v203h226v-203h-226z" />
    <glyph glyph-name="copyright" unicode="&#xa9;" horiz-adv-x="1663" 
d="M1167 535c-29.333 -87.333 -71.832 -150.164 -127.499 -188.497s-126.5 -57.5 -212.5 -57.5c-46 0 -86.833 5.16699 -122.5 15.5s-66.834 24.666 -93.501 42.999s-49.167 40.166 -67.5 65.499s-33.5 53 -45.5 83c-14.667 34 -24.834 70.333 -30.501 109s-8.5 78 -8.5 118
c0 42 3.16699 82.5 9.5 121.5s16.833 75.5 31.5 109.5c12.667 30 28.834 57.333 48.501 82s43.167 46 70.5 64s59.333 32 96 42s78.334 15 125.001 15c77.333 0 142.833 -17.667 196.5 -53s95.167 -93.333 124.5 -174l-170 -58c-11.333 27.333 -23 49.333 -35 66
s-24.333 29.667 -37 39s-25.5 15.666 -38.5 18.999s-26.5 5 -40.5 5c-39.333 0 -71.333 -5.5 -96 -16.5s-43.334 -29.167 -56.001 -54.5c-26 -58 -39 -127 -39 -207c0 -33.333 2 -67.5 6 -102.5s13.667 -66.5 29 -94.5c13.333 -22.667 32 -41.167 56 -55.5
s56 -21.5 96 -21.5c14.667 0 29.167 1.66699 43.5 5s28.5 10 42.5 20s27.667 24.333 41 43s26 43 38 73zM1430 737.002c0 54.667 -7.1709 107.334 -21.5039 158.001s-34.666 98.167 -60.999 142.5s-57.666 84.833 -93.999 121.5s-76.666 68 -120.999 94
s-92 46.167 -143 60.5s-103.833 21.5 -158.5 21.5s-107.334 -7.16699 -158.001 -21.5s-98.167 -34.5 -142.5 -60.5s-84.666 -57.333 -120.999 -94s-67.666 -77.167 -93.999 -121.5s-46.666 -91.833 -60.999 -142.5s-21.5 -103.334 -21.5 -158.001
c0 -82 15.833 -159.167 47.5 -231.5s74.667 -135.666 129 -189.999s117.666 -97.333 189.999 -129s149.5 -47.5 231.5 -47.5s159.333 15.833 232 47.5s136.167 74.667 190.5 129s97.333 117.666 129 189.999s47.5 149.5 47.5 231.5zM1602 737.002
c0 -70.667 -9.16699 -138.831 -27.5 -204.498s-44.166 -127.167 -77.499 -184.5s-73.5 -109.333 -120.5 -156s-99 -86.667 -156 -120s-118.5 -59.166 -184.5 -77.499s-134.333 -27.5 -205 -27.5s-138.834 9.16699 -204.501 27.5s-127 44.166 -184 77.499
s-109 73.333 -156 120s-87.167 98.667 -120.5 156s-59.166 118.666 -77.499 183.999s-27.5 133.666 -27.5 204.999c0 70.667 9.16699 138.834 27.5 204.501s44.166 127.167 77.499 184.5s73.5 109.333 120.5 156s99 86.667 156 120s118.333 59.166 184 77.499
s133.834 27.5 204.501 27.5s139 -9.16699 205 -27.5s127.5 -44.166 184.5 -77.499s109 -73.333 156 -120s87.167 -98.667 120.5 -156s59.166 -118.833 77.499 -184.5s27.5 -133.834 27.5 -204.501z" />
    <glyph glyph-name="ordfeminine" unicode="&#xaa;" horiz-adv-x="758" 
d="M496 1065h-111.003c-52 0 -88.5 -7.5 -109.5 -22.5s-31.5 -36.833 -31.5 -65.5c0 -26.667 9.33301 -46 28 -58s45.334 -18 80.001 -18c22 0 41.833 2.83301 59.5 8.5s32.834 13 45.501 22s22.334 19.167 29.001 30.5s10 22.333 10 33v70zM513.997 776l-5.99512 47.001
c-28 -22.667 -57 -38.834 -87 -48.501s-63 -14.5 -99 -14.5c-42 0 -80.333 6.33301 -115 19s-63.334 31 -86.001 55c-17.333 18 -30.833 39.333 -40.5 64s-14.5 52.334 -14.5 83.001c0 60 17 107.667 51 143c13.333 13.333 27.666 24.833 42.999 34.5
s33.166 17.5 53.499 23.5s43.666 10.5 69.999 13.5s56.833 4.5 91.5 4.5h121v25c0 74.667 -35.667 112 -107 112c-20 0 -37.167 -1.5 -51.5 -4.5s-26.833 -7.66699 -37.5 -14s-20 -14.833 -28 -25.5s-16 -23.334 -24 -38.001l-154 56c25.333 61.333 62.833 104 112.5 128
s111.834 36 186.501 36c53.333 0 97.666 -5.83301 132.999 -17.5s63.666 -28.167 84.999 -49.5s36.5 -46.833 45.5 -76.5s13.5 -62.5 13.5 -98.5v-457h-156z" />
    <glyph glyph-name="guillemotleft" unicode="&#xab;" horiz-adv-x="1182" 
d="M457 25l-385 495l385 496l190 -92l-270 -404l270 -403zM920 25l-385 495l385 496l190 -92l-270 -404l270 -403z" />
    <glyph glyph-name="logicalnot" unicode="&#xac;" 
d="M829 442v394h-700v200h897l4 -594h-201z" />
    <glyph glyph-name="registered" unicode="&#xae;" horiz-adv-x="1663" 
d="M952 879c0 20.667 -2.00195 38.001 -6.00195 52.001s-10.667 25.167 -20 33.5s-21.666 14.166 -36.999 17.499s-34.666 5 -57.999 5h-135v-217h150c36 0 62.667 7.83301 80 23.5s26 44.167 26 85.5zM990.998 307.001l-141 310.999h-154v-311h-178v832h348
c45.333 0 85 -6.33301 119 -19s62.5 -30.5 85.5 -53.5s40.167 -50.5 51.5 -82.5s17 -67 17 -105c0 -58.667 -10.333 -105.167 -31 -139.5s-48.667 -61.166 -84 -80.499l168 -352h-201zM1430 737c0 54.667 -7.1709 107.334 -21.5039 158.001s-34.666 98.167 -60.999 142.5
s-57.666 84.833 -93.999 121.5s-76.666 68 -120.999 94s-92 46.167 -143 60.5s-103.833 21.5 -158.5 21.5s-107.334 -7.16699 -158.001 -21.5s-98.167 -34.5 -142.5 -60.5s-84.666 -57.333 -120.999 -94s-67.666 -77.167 -93.999 -121.5s-46.666 -91.833 -60.999 -142.5
s-21.5 -103.334 -21.5 -158.001c0 -82 15.833 -159.167 47.5 -231.5s74.667 -135.666 129 -189.999s117.666 -97.333 189.999 -129s149.5 -47.5 231.5 -47.5s159.333 15.833 232 47.5s136.167 74.667 190.5 129s97.333 117.666 129 189.999s47.5 149.5 47.5 231.5z
M1601.99 737c0 -70.667 -9.16699 -138.831 -27.5 -204.498s-44.166 -127.167 -77.499 -184.5s-73.5 -109.333 -120.5 -156s-99 -86.667 -156 -120s-118.5 -59.166 -184.5 -77.499s-134.333 -27.5 -205 -27.5s-138.834 9.16699 -204.501 27.5s-127 44.166 -184 77.499
s-109 73.333 -156 120s-87.167 98.667 -120.5 156s-59.166 118.666 -77.499 183.999s-27.5 133.666 -27.5 204.999c0 70.667 9.16699 138.834 27.5 204.501s44.166 127.167 77.499 184.5s73.5 109.333 120.5 156s99 86.667 156 120s118.333 59.166 184 77.499
s133.834 27.5 204.501 27.5s139 -9.16699 205 -27.5s127.5 -44.166 184.5 -77.499s109 -73.333 156 -120s87.167 -98.667 120.5 -156s59.166 -118.833 77.499 -184.5s27.5 -133.834 27.5 -204.501z" />
    <glyph glyph-name="macron" unicode="&#xaf;" horiz-adv-x="702" 
d="M664 1217v192h-625v-192h625z" />
    <glyph glyph-name="macron" unicode="&#x2c9;" horiz-adv-x="702" 
d="M664 1217v192h-625v-192h625z" />
    <glyph glyph-name="degree" unicode="&#xb0;" horiz-adv-x="725" 
d="M500 1196c0 18.667 -3.66699 36.167 -11 52.5s-17.333 30.833 -30 43.5s-27.334 22.667 -44.001 30s-34.334 11 -53.001 11c-18 0 -35.333 -3.66699 -52 -11s-31.334 -17.333 -44.001 -30s-22.667 -27.167 -30 -43.5s-11 -33.833 -11 -52.5s3.66699 -36.334 11 -53.001
s17.333 -31.167 30 -43.5s27.334 -22.166 44.001 -29.499s34 -11 52 -11c18.667 0 36.334 3.66699 53.001 11s31.334 17.166 44.001 29.499s22.667 26.833 30 43.5s11 34.334 11 53.001zM674 1196c0 -43.333 -8.16699 -83.833 -24.5 -121.5s-38.5 -70.5 -66.5 -98.5
s-61 -50.167 -99 -66.5s-78.667 -24.5 -122 -24.5s-83.833 8.16699 -121.5 24.5s-70.5 38.5 -98.5 66.5s-50.167 60.833 -66.5 98.5s-24.5 78.167 -24.5 121.5c0 42.667 8.16699 83 24.5 121s38.5 71 66.5 99s60.833 50.167 98.5 66.5s78.167 24.5 121.5 24.5
s84 -8.16699 122 -24.5s71 -38.5 99 -66.5s50.167 -61 66.5 -99s24.5 -78.333 24.5 -121z" />
    <glyph glyph-name="plusminus" unicode="&#xb1;" 
d="M131 0v205h897v-205h-897zM680 645v-336h-201v336h-348v205h348v336h201v-336h348v-205h-348z" />
    <glyph glyph-name="twosuperior" unicode="&#xb2;" horiz-adv-x="807" 
d="M61 592l-0.00292969 139l293 252c38.667 33.333 69 62.666 91 87.999s38.5 47.5 49.5 66.5s17.667 35.167 20 48.5s3.5 25 3.5 35c0 10.667 -1.66699 21.334 -5 32.001s-9.16602 20.167 -17.499 28.5s-19.666 15 -33.999 20s-32.166 7.5 -53.499 7.5
c-40 0 -71 -13.5 -93 -40.5s-36.333 -68.167 -43 -123.5l-211 12c2 34 8.66699 69.667 20 107s30.333 71.666 57 102.999s62.834 57.166 108.501 77.499s104.167 30.5 175.5 30.5c62 0 113.667 -7.33301 155 -22s74.5 -34 99.5 -58s42.667 -51.167 53 -81.5
s15.5 -61.166 15.5 -92.499c0 -49.333 -11 -94.333 -33 -135s-50.333 -78.667 -85 -114s-73.334 -69.166 -116.001 -101.499l-126 -96.5h360v-182h-684z" />
    <glyph glyph-name="threesuperior" unicode="&#xb3;" horiz-adv-x="807" 
d="M745 883c0 -50 -8.33691 -94.168 -25.0039 -132.501s-40.167 -70.666 -70.5 -96.999s-66.666 -46.333 -108.999 -60s-89.5 -20.5 -141.5 -20.5c-57.333 0 -106.666 6.5 -147.999 19.5s-76.333 31.833 -105 56.5s-51.667 55 -69 91s-30.666 77.333 -39.999 124l215 15
c4 -19.333 9.33301 -37.166 16 -53.499s15.5 -30.5 26.5 -42.5s24.333 -21.333 40 -28s34.5 -10 56.5 -10c46 0 78.667 12.333 98 37s29 61 29 109c0 37.333 -9 67.833 -27 91.5s-46.333 35.5 -85 35.5c-12 0 -22.833 -0.5 -32.5 -1.5s-19.667 -2.83301 -30 -5.5
s-21.666 -6.33398 -33.999 -11.001l-43.5 -17l-73 119l258 188h-361v166h615v-162l-195 -147c81.333 -7.33301 140.833 -33 178.5 -77s56.5 -106.333 56.5 -187z" />
    <glyph glyph-name="acute" unicode="&#xb4;" horiz-adv-x="702" 
d="M313 1200h-151l110 260h269z" />
    <glyph glyph-name="mu" unicode="&#xb5;" horiz-adv-x="1114" 
d="M987 0l0.00195312 1065h-256v-627c0 -31.333 -4 -61.166 -12 -89.499s-20.167 -53.333 -36.5 -75s-36.833 -38.834 -61.5 -51.501s-53.334 -19 -86.001 -19c-44.667 0 -81.167 12.5 -109.5 37.5s-42.5 65.5 -42.5 121.5v703h-256v-1458h250v436
c17.333 -18.667 38.833 -35.667 64.5 -51s53.834 -23 84.501 -23c28.667 0 54.167 3.83301 76.5 11.5s42.166 18.167 59.499 31.5s32.666 29.166 45.999 47.499s25 38.166 35 59.499l7 -119h237z" />
    <glyph glyph-name="mu" unicode="&#x3bc;" horiz-adv-x="1114" 
d="M987 0l0.00195312 1065h-256v-627c0 -31.333 -4 -61.166 -12 -89.499s-20.167 -53.333 -36.5 -75s-36.833 -38.834 -61.5 -51.501s-53.334 -19 -86.001 -19c-44.667 0 -81.167 12.5 -109.5 37.5s-42.5 65.5 -42.5 121.5v703h-256v-1458h250v436
c17.333 -18.667 38.833 -35.667 64.5 -51s53.834 -23 84.501 -23c28.667 0 54.167 3.83301 76.5 11.5s42.166 18.167 59.499 31.5s32.666 29.166 45.999 47.499s25 38.166 35 59.499l7 -119h237z" />
    <glyph glyph-name="paragraph" unicode="&#xb6;" horiz-adv-x="1262" 
d="M1128 1262l-0.000976562 -1655h-213v1655h-194v-1655h-215v977c-6 0 -12.5 0.333008 -19.5 1s-13.5 1 -19.5 1c-62 7.33301 -116.833 22.666 -164.5 45.999s-88.5 53.666 -122.5 90.999c-36 40 -63.333 86.333 -82 139s-28 110 -28 172c0 43.333 6.66699 85.833 20 127.5
s32.5 80.334 57.5 116.001s55.333 67.167 91 94.5s76.167 48.666 121.5 63.999c20.667 6 41.834 11.333 63.501 16s45.167 8.66699 70.5 12c24.667 3.33301 50 6 76 8s53 3 81 3h588v-213h-111z" />
    <glyph glyph-name="periodcentered" unicode="&#xb7;" horiz-adv-x="502" 
d="M113 582v276h276v-276h-276z" />
    <glyph glyph-name="periodcentered" unicode="&#x22c5;" horiz-adv-x="502" 
d="M113 582v276h276v-276h-276z" />
    <glyph glyph-name="periodcentered" unicode="&#x2219;" horiz-adv-x="502" 
d="M113 582v276h276v-276h-276z" />
    <glyph glyph-name="cedilla" unicode="&#xb8;" horiz-adv-x="702" 
d="M557 -229c0 -29.333 -8.16602 -55.001 -24.499 -77.001s-39.5 -40 -69.5 -54c-59.333 -28.667 -140.666 -43 -243.999 -43c-4 0 -10.833 0.166992 -20.5 0.5s-27.5 2.16602 -53.5 5.49902l9 127h21c11.333 0 24.166 0.333008 38.499 1s29.666 1.83398 45.999 3.50098
s31.5 4.16699 45.5 7.5c15.333 4 28 9.33301 38 16s15 15.667 15 27c-5.33301 11.333 -13.5 19 -24.5 23s-27.667 7.33301 -50 10s-53.5 4 -93.5 4l70 201h170l-41 -109c20 -2.66699 40 -7.16699 60 -13.5s38 -15.166 54 -26.499s29 -25.5 39 -42.5s15 -37.167 15 -60.5z
" />
    <glyph glyph-name="onesuperior" unicode="&#xb9;" horiz-adv-x="807" 
d="M139 592v164h162v489l-164 -71l-78 153l297 148h154v-719h152v-164h-523z" />
    <glyph glyph-name="ordmasculine" unicode="&#xba;" horiz-adv-x="758" 
d="M514 1114c0 25.333 -0.833008 45.833 -2.5 61.5s-3.5 28.5 -5.5 38.5c-4 16.667 -8.83301 32.167 -14.5 46.5s-13.167 26.5 -22.5 36.5s-21.166 17.833 -35.499 23.5s-32.5 8.5 -54.5 8.5s-40.167 -2.83301 -54.5 -8.5s-26.333 -13.5 -36 -23.5
s-17.167 -22.167 -22.5 -36.5s-10 -29.833 -14 -46.5c-2 -10 -3.83301 -22.833 -5.5 -38.5s-2.5 -36.167 -2.5 -61.5c0 -26.667 0.833008 -47.834 2.5 -63.501s3.5 -28.5 5.5 -38.5c4 -17.333 8.66699 -33 14 -47s12.833 -26 22.5 -36s21.667 -17.833 36 -23.5
s32.5 -8.5 54.5 -8.5s40.167 2.83301 54.5 8.5s26.166 13.5 35.499 23.5s16.833 22 22.5 36s10.5 29.667 14.5 47c2 10 3.83301 22.833 5.5 38.5s2.5 36.834 2.5 63.501zM696 1114c0 -30 -2 -60.5 -6 -91.5s-12 -61.833 -24 -92.5c-10.667 -26 -24.5 -49.667 -41.5 -71
s-37.333 -39.833 -61 -55.5s-50.834 -27.834 -81.501 -36.501s-65 -13 -103 -13c-38.667 0 -73.167 4 -103.5 12s-57 19.333 -80 34s-42.667 32.167 -59 52.5s-29.833 42.833 -40.5 67.5c-12 28.667 -20.833 59.334 -26.5 92.001s-8.5 66.667 -8.5 102
s2.83301 69.333 8.5 102s14.5 63.667 26.5 93c10.667 24.667 24.167 47.167 40.5 67.5s36 37.833 59 52.5s49.667 26 80 34s64.833 12 103.5 12s73.334 -4 104.001 -12s57.5 -19.333 80.5 -34s42.667 -32.167 59 -52.5s29.5 -42.833 39.5 -67.5
c12 -29.333 20.667 -60.333 26 -93s8 -66.667 8 -102z" />
    <glyph glyph-name="guillemotright" unicode="&#xbb;" horiz-adv-x="1182" 
d="M262 25l-190 92l270 403l-270 404l190 92l385 -496zM725 25l-190 92l270 403l-270 404l190 92l385 -496z" />
    <glyph glyph-name="onequarter" unicode="&#xbc;" horiz-adv-x="1841" 
d="M1464 586l-209 -289h209v289zM139 592v164h162v489l-164 -71l-78 153l297 148h154v-719h152v-164h-523zM778 -33h-225l510 1508h225zM1669 139v-153h-213v153h-416v146l422 583h207v-571h80v-158h-80z" />
    <glyph glyph-name="onehalf" unicode="&#xbd;" horiz-adv-x="1841" 
d="M139 592v164h162v489l-164 -71l-78 153l297 148h154v-719h152v-164h-523zM778 -33h-225l510 1508h225zM1096 -14l-0.00390625 138.996l293 252c38.667 33.333 69 62.5 91 87.5s38.333 47 49 66s17.167 35.167 19.5 48.5s3.5 25 3.5 35
c0 10.667 -1.66699 21.334 -5 32.001s-9.16602 20.167 -17.499 28.5s-19.666 15 -33.999 20s-32.166 7.5 -53.499 7.5c-40 0 -71 -13.333 -93 -40s-36 -67.667 -42 -123l-211 12c2 34 8.5 69.5 19.5 106.5s29.833 71.167 56.5 102.5s62.834 57.166 108.501 77.499
s104.167 30.5 175.5 30.5c62 0 113.667 -7.33301 155 -22s74.5 -34 99.5 -58s42.833 -51.167 53.5 -81.5s16 -61.166 16 -92.499c0 -49.333 -11 -94.166 -33 -134.499s-50.333 -78.166 -85 -113.499s-73.5 -69.166 -116.5 -101.499l-126.5 -96.5h361v-182h-684z" />
    <glyph glyph-name="threequarters" unicode="&#xbe;" horiz-adv-x="1841" 
d="M1464 586l-209 -289h209v289zM745 883c0 -50 -8.33691 -94.168 -25.0039 -132.501s-40.167 -70.666 -70.5 -96.999s-66.666 -46.333 -108.999 -60s-89.5 -20.5 -141.5 -20.5c-57.333 0 -106.666 6.5 -147.999 19.5s-76.333 31.833 -105 56.5s-51.667 55 -69 91
s-30.666 77.333 -39.999 124l215 15c4 -19.333 9.33301 -37.166 16 -53.499s15.5 -30.5 26.5 -42.5s24.333 -21.333 40 -28s34.5 -10 56.5 -10c46 0 78.667 12.333 98 37s29 61 29 109c0 37.333 -9 67.833 -27 91.5s-46.333 35.5 -85 35.5c-12 0 -22.833 -0.5 -32.5 -1.5
s-19.667 -2.83301 -30 -5.5s-21.666 -6.33398 -33.999 -11.001l-43.5 -17l-73 119l258 188h-361v166h615v-162l-195 -147c81.333 -7.33301 140.833 -33 178.5 -77s56.5 -106.333 56.5 -187zM777.996 -33.001h-225l510 1508h225zM1669 138.999v-153h-213v153h-416v146
l422 583h207v-571h80v-158h-80z" />
    <glyph glyph-name="questiondown" unicode="&#xbf;" horiz-adv-x="975" 
d="M956 14c-10 -62.667 -25.002 -120.003 -45.002 -172.003s-51.333 -97 -94 -135c-38 -33.333 -84.333 -61.166 -139 -83.499s-120.334 -33.5 -197.001 -33.5c-152.667 0 -268 41 -346 123c-28 29.333 -49.333 65 -64 107s-22 87.667 -22 137
c0 36.667 4.33301 70.334 13 101.001s20.167 59 34.5 85s30.5 49.5 48.5 70.5s36.667 40.5 56 58.5l78.5 72.5c25 22.333 46.833 45.833 65.5 70.5s33.5 52.167 44.5 82.5s16.5 66.5 16.5 108.5v19h256v-23c0 -61.333 -7.33301 -114.5 -22 -159.5
s-33.334 -84.5 -56.001 -118.5s-47.667 -63.833 -75 -89.5l-79 -72.5c-17.333 -15.333 -33.333 -30.5 -48 -45.5s-27.667 -30.667 -39 -47s-20.166 -33.666 -26.499 -51.999s-9.5 -38.5 -9.5 -60.5c0 -24.667 3.5 -46.334 10.5 -65.001s16.5 -34.667 28.5 -48
c30.667 -30 75.667 -45 135 -45c42 0 76.333 6.5 103 19.5s48.334 29.833 65.001 50.5c18.667 24.667 31.834 52.834 39.501 84.501s13.834 63.5 18.501 95.5zM388.998 763.997v301h293v-301h-293z" />
    <glyph glyph-name="Agrave" unicode="&#xc0;" horiz-adv-x="1214" 
d="M586 1139l-156 -564h324zM924 0l-101 340h-458l-95 -340h-260l447 1475h262l485 -1475h-280zM553 1548l-227 260h268l111 -260h-152z" />
    <glyph glyph-name="Aacute" unicode="&#xc1;" horiz-adv-x="1214" 
d="M586 1139l-156 -564h324zM924 0l-101 340h-458l-95 -340h-260l447 1475h262l485 -1475h-280zM641 1548h-151l110 260h269z" />
    <glyph glyph-name="Acircumflex" unicode="&#xc2;" horiz-adv-x="1214" 
d="M684 1546l-82 101l-86 -101h-227l225 260h178l217 -260h-225zM596 1139l-156 -564h324zM934 0l-100 340h-459l-94 -340h-261l447 1475h262l485 -1475h-280z" />
    <glyph glyph-name="Atilde" unicode="&#xc3;" horiz-adv-x="1214" 
d="M586 1139l-156 -564h324zM924 0l-101 340h-458l-95 -340h-260l447 1475h262l485 -1475h-280zM866 1757c0 -39.333 -3.8291 -71.998 -11.4961 -97.998s-18.834 -47.333 -33.501 -64s-31.667 -28.334 -51 -35.001s-40.666 -10 -63.999 -10c-24.667 0 -47.334 3 -68.001 9
s-40.334 12.667 -59.001 20l-55.5 25.5c-16.333 7.66699 -29.833 11.5 -40.5 11.5c-6 0 -11.833 -0.666992 -17.5 -2s-10.834 -4.5 -15.501 -9.5s-8.83398 -12.5 -12.501 -22.5s-6.83398 -23.333 -9.50098 -40h-142v47c0 38.667 3.83301 71.167 11.5 97.5
s18.5 47.666 32.5 63.999s30.833 28 50.5 35s41.5 10.5 65.5 10.5c25.333 0 49 -3.33301 71 -10s42.667 -13.667 62 -21l52 -24.5c15.333 -7 28 -10.5 38 -10.5c6 0 11.833 0.666992 17.5 2s10.834 4.5 15.501 9.5s9 12.5 13 22.5s7.33301 23.333 10 40h141v-47z" />
    <glyph glyph-name="Adieresis" unicode="&#xc4;" horiz-adv-x="1214" 
d="M586 1139l-156 -564h324zM924 0l-101 340h-458l-95 -340h-260l447 1475h262l485 -1475h-280zM314 1560v203h225v-203h-225zM643 1560v203h226v-203h-226z" />
    <glyph glyph-name="Aring" unicode="&#xc5;" horiz-adv-x="1214" 
d="M586 1108l-152 -533h314zM668 1548c0 22 -7.66602 39.999 -22.999 53.999c-20 16 -39.667 24 -59 24c-24 0 -44 -7.33301 -60 -22c-14.667 -16 -22 -34.667 -22 -56c0 -20.667 7.5 -38 22.5 -52s34.833 -21 59.5 -21c11.333 0 22 2 32 6s18.667 9.33301 26 16
s13.166 14.334 17.499 23.001s6.5 18 6.5 28zM924.001 -0.000976562l-104.999 339.998h-452l-97 -340h-260l432 1430c-14 15.333 -25.333 33.333 -34 54s-13 42.667 -13 66c0 26 4.83301 49.833 14.5 71.5s22.834 40.167 39.501 55.5
c17.333 16.667 37.666 29.834 60.999 39.501s48.666 14.5 75.999 14.5c24.667 0 48.334 -4.5 71.001 -13.5s42.667 -21.833 60 -38.5c17.333 -16 31.166 -35 41.499 -57s15.5 -46 15.5 -72c0 -32 -7.33301 -62 -22 -90l-10 -12.5c-3.33301 -4.33301 -7 -8.16602 -11 -11.499
l473 -1436h-280z" />
    <glyph glyph-name="AE" unicode="&#xc6;" horiz-adv-x="1745" 
d="M829 1098l-262 -520h262v520zM829 0v369h-366l-187 -369h-266l772 1475h875v-226h-574v-379h545v-225h-545v-420h590v-225h-844z" />
    <glyph glyph-name="Ccedilla" unicode="&#xc7;" horiz-adv-x="1212" 
d="M1157 340c-13.333 -50 -31.1631 -96.6709 -53.4961 -140.004s-51.333 -81.333 -87 -114s-78.667 -59.167 -129 -79.5s-109.833 -32.833 -178.5 -37.5l-4 -10l-17 -45c20 -2.66699 40 -7.16699 60 -13.5s38 -15.166 54 -26.499s29 -25.5 39 -42.5s15 -37.167 15 -60.5
c0 -29.333 -8.16699 -55 -24.5 -77s-39.5 -40 -69.5 -54c-59.333 -28.667 -140.666 -43 -243.999 -43c-4 0 -10.833 0.166992 -20.5 0.5s-27.5 2.16602 -53.5 5.49902l9 127h21c11.333 0 24.166 0.333008 38.499 1s29.666 1.83398 45.999 3.50098s31.5 4.16699 45.5 7.5
c15.333 4 28 9.33301 38 16s15 15.667 15 27c-5.33301 11.333 -13.5 19 -24.5 23s-27.667 7.33301 -50 10s-53.5 4 -93.5 4l54 153c-58.667 10.667 -110.167 29.167 -154.5 55.5s-82.5 58.333 -114.5 96s-58.5 80.167 -79.5 127.5s-37.667 97.5 -50 150.5
s-21 107.667 -26 164s-7.5 112.5 -7.5 168.5c0 64.667 2.83301 128.5 8.5 191.5s16.167 123 31.5 180s36.5 109.833 63.5 158.5s61.5 90.834 103.5 126.501s92.667 63.5 152 83.5s129.333 30 210 30c64 0 121.167 -7.66699 171.5 -23s94.666 -37.666 132.999 -66.999
s71 -65.833 98 -109.5s49.167 -93.834 66.5 -150.501l-246 -94c-9.33301 36 -20.333 67.667 -33 95s-28.334 50.333 -47.001 69s-40.834 32.834 -66.501 42.501s-56.5 14.5 -92.5 14.5c-54 0 -98.5 -13.167 -133.5 -39.5s-62.833 -63.333 -83.5 -111
s-35.167 -105.167 -43.5 -172.5s-12.5 -142 -12.5 -224c0 -179.333 22.333 -314.5 67 -405.5s112.667 -136.5 204 -136.5c33.333 0 62.333 4.16699 87 12.5s46.5 22 65.5 41s35.5 43.833 49.5 74.5s27 68.334 39 113.001z" />
    <glyph glyph-name="Egrave" unicode="&#xc8;" horiz-adv-x="1090" 
d="M162 0v1475h839v-242h-577v-354h549v-242h-549v-395h594v-242h-856zM553 1548l-227 260h268l111 -260h-152z" />
    <glyph glyph-name="Eacute" unicode="&#xc9;" horiz-adv-x="1090" 
d="M162 0v1475h839v-242h-577v-354h549v-242h-549v-395h594v-242h-856zM641 1548h-151l110 260h269z" />
    <glyph glyph-name="Ecircumflex" unicode="&#xca;" horiz-adv-x="1090" 
d="M162 0v1475h839v-242h-577v-354h549v-242h-549v-395h594v-242h-856zM661 1546l-82 100l-86 -100h-227l225 260h178l218 -260h-226z" />
    <glyph glyph-name="Edieresis" unicode="&#xcb;" horiz-adv-x="1090" 
d="M162 0v1475h839v-242h-577v-354h549v-242h-549v-395h594v-242h-856zM293 1560v203h225v-203h-225zM622 1560v203h226v-203h-226z" />
    <glyph glyph-name="Igrave" unicode="&#xcc;" horiz-adv-x="586" 
d="M162 0v1475h262v-1475h-262zM277 1548l-227 260h268l111 -260h-152z" />
    <glyph glyph-name="Iacute" unicode="&#xcd;" horiz-adv-x="586" 
d="M162 0v1475h262v-1475h-262zM323 1548h-151l110 260h269z" />
    <glyph glyph-name="Icircumflex" unicode="&#xce;" horiz-adv-x="586" 
d="M162 0v1475h262v-1475h-262zM380 1546l-82 100l-86 -100h-227l225 260h178l218 -260h-226z" />
    <glyph glyph-name="Idieresis" unicode="&#xcf;" horiz-adv-x="586" 
d="M162 0v1475h262v-1475h-262zM20 1560v203h225v-203h-225zM349 1560v203h226v-203h-226z" />
    <glyph glyph-name="Eth" unicode="&#xd0;" horiz-adv-x="1296" 
d="M905 780c0 48 -2 91.0039 -6 129.004s-10.167 72 -18.5 102s-18.833 56.333 -31.5 79s-28 43 -46 61c-15.333 15.333 -31.833 28.666 -49.5 39.999s-38 20.666 -61 27.999s-49.833 12.833 -80.5 16.5s-66.667 5.5 -108 5.5h-80v-393h207v-178h-207v-437h80
c34 0 64.167 1.33301 90.5 4s50.333 7 72 13s41.5 14.167 59.5 24.5s35.333 23.166 52 38.499c19.333 18 36.833 39.833 52.5 65.5s29 57 40 94s19.5 80.667 25.5 131s9 109.166 9 176.499zM1186 780.004c0 -56 -2.33398 -113.833 -7.00098 -173.5
s-14 -117.834 -28 -174.501s-34.167 -110.167 -60.5 -160.5s-60.833 -94.5 -103.5 -132.5c-25.333 -22 -51.166 -41.667 -77.499 -59s-55.5 -31.833 -87.5 -43.5s-67.5 -20.667 -106.5 -27s-83.5 -9.5 -133.5 -9.5h-420v670h-125v178h125v627h360
c64 0 121 -3.16699 171 -9.5s95.167 -16.166 135.5 -29.499s76.833 -30.5 109.5 -51.5s63.334 -46.167 92.001 -75.5c57.333 -59.333 97.666 -133.333 120.999 -222s35 -191 35 -307z" />
    <glyph glyph-name="Ntilde" unicode="&#xd1;" horiz-adv-x="1327" 
d="M903 0l-487 1006v-1006h-254v1475h274l475 -988v988h254v-1475h-262zM952 1757c0 -39.333 -3.8291 -71.998 -11.4961 -97.998s-18.834 -47.333 -33.501 -64s-31.667 -28.334 -51 -35.001s-40.666 -10 -63.999 -10c-24.667 0 -47.334 3 -68.001 9
s-40.334 12.667 -59.001 20l-55.5 25.5c-16.333 7.66699 -29.833 11.5 -40.5 11.5c-6 0 -11.833 -0.666992 -17.5 -2s-10.834 -4.5 -15.501 -9.5s-8.83398 -12.5 -12.501 -22.5s-6.83398 -23.333 -9.50098 -40h-142v47c0 38.667 3.83301 71.167 11.5 97.5
s18.5 47.666 32.5 63.999s30.833 28 50.5 35s41.5 10.5 65.5 10.5c25.333 0 49 -3.33301 71 -10s42.667 -13.667 62 -21l52 -24.5c15.333 -7 28 -10.5 38 -10.5c6 0 11.833 0.666992 17.5 2s10.834 4.5 15.501 9.5s9 12.5 13 22.5s7.33301 23.333 10 40h141v-47z" />
    <glyph glyph-name="Ograve" unicode="&#xd2;" horiz-adv-x="1356" 
d="M965 737c0 44 -0.666992 84.167 -2 120.5s-3.66602 69.666 -6.99902 99.999s-7.66602 58.166 -12.999 83.499s-12.333 49 -21 71c-12.667 32.667 -27.167 60 -43.5 82s-34.666 39.5 -54.999 52.5s-42.666 22.167 -66.999 27.5s-50.5 8 -78.5 8
c-28.667 0 -55.334 -2.66699 -80.001 -8s-47.334 -14.5 -68.001 -27.5s-39.167 -30.5 -55.5 -52.5s-30.5 -49.333 -42.5 -82c-8.66699 -22 -15.834 -45.667 -21.501 -71s-10 -53.166 -13 -83.499s-5.16699 -63.666 -6.5 -99.999s-2 -76.5 -2 -120.5
c0 -45.333 0.666992 -86.333 2 -123s3.5 -70.334 6.5 -101.001s7.33301 -58.667 13 -84s12.834 -49 21.501 -71c12 -32.667 26.167 -60 42.5 -82s34.833 -39.5 55.5 -52.5s43.334 -22.167 68.001 -27.5s51.334 -8 80.001 -8c28 0 54.167 2.66699 78.5 8
s46.666 14.5 66.999 27.5s38.666 30.5 54.999 52.5s30.833 49.333 43.5 82c8.66699 22 15.667 45.667 21 71s9.66602 53.333 12.999 84s5.66602 64.334 6.99902 101.001s2 77.667 2 123zM1245 737c0 -74.667 -3.66699 -147.167 -11 -217.5s-21.333 -136.166 -42 -197.499
c-17.333 -52 -39.666 -99.833 -66.999 -143.5s-61.666 -81.167 -102.999 -112.5s-90.333 -55.666 -147 -72.999s-122.334 -26 -197.001 -26s-140.334 8.66699 -197.001 26s-105.667 41.666 -147 72.999s-75.833 68.833 -103.5 112.5s-49.834 91.5 -66.501 143.5
c-20.667 61.333 -34.667 127.166 -42 197.499s-11 142.833 -11 217.5c0 75.333 3.66699 148 11 218s21.333 136 42 198c16.667 52 38.834 99.833 66.501 143.5s62.167 81 103.5 112s90.333 55.167 147 72.5s122.334 26 197.001 26s140.334 -8.66699 197.001 -26
s105.667 -41.5 147 -72.5s75.666 -68.333 102.999 -112s49.666 -91.5 66.999 -143.5c20.667 -62 34.667 -128 42 -198s11 -142.667 11 -218zM676 1548l-227 260h268l111 -260h-152z" />
    <glyph glyph-name="Oacute" unicode="&#xd3;" horiz-adv-x="1356" 
d="M965 737c0 44 -0.666992 84.167 -2 120.5s-3.66602 69.666 -6.99902 99.999s-7.66602 58.166 -12.999 83.499s-12.333 49 -21 71c-12.667 32.667 -27.167 60 -43.5 82s-34.666 39.5 -54.999 52.5s-42.666 22.167 -66.999 27.5s-50.5 8 -78.5 8
c-28.667 0 -55.334 -2.66699 -80.001 -8s-47.334 -14.5 -68.001 -27.5s-39.167 -30.5 -55.5 -52.5s-30.5 -49.333 -42.5 -82c-8.66699 -22 -15.834 -45.667 -21.501 -71s-10 -53.166 -13 -83.499s-5.16699 -63.666 -6.5 -99.999s-2 -76.5 -2 -120.5
c0 -45.333 0.666992 -86.333 2 -123s3.5 -70.334 6.5 -101.001s7.33301 -58.667 13 -84s12.834 -49 21.501 -71c12 -32.667 26.167 -60 42.5 -82s34.833 -39.5 55.5 -52.5s43.334 -22.167 68.001 -27.5s51.334 -8 80.001 -8c28 0 54.167 2.66699 78.5 8
s46.666 14.5 66.999 27.5s38.666 30.5 54.999 52.5s30.833 49.333 43.5 82c8.66699 22 15.667 45.667 21 71s9.66602 53.333 12.999 84s5.66602 64.334 6.99902 101.001s2 77.667 2 123zM1245 737c0 -74.667 -3.66699 -147.167 -11 -217.5s-21.333 -136.166 -42 -197.499
c-17.333 -52 -39.666 -99.833 -66.999 -143.5s-61.666 -81.167 -102.999 -112.5s-90.333 -55.666 -147 -72.999s-122.334 -26 -197.001 -26s-140.334 8.66699 -197.001 26s-105.667 41.666 -147 72.999s-75.833 68.833 -103.5 112.5s-49.834 91.5 -66.501 143.5
c-20.667 61.333 -34.667 127.166 -42 197.499s-11 142.833 -11 217.5c0 75.333 3.66699 148 11 218s21.333 136 42 198c16.667 52 38.834 99.833 66.501 143.5s62.167 81 103.5 112s90.333 55.167 147 72.5s122.334 26 197.001 26s140.334 -8.66699 197.001 -26
s105.667 -41.5 147 -72.5s75.666 -68.333 102.999 -112s49.666 -91.5 66.999 -143.5c20.667 -62 34.667 -128 42 -198s11 -142.667 11 -218zM702 1548h-151l110 260h269z" />
    <glyph glyph-name="Ocircumflex" unicode="&#xd4;" horiz-adv-x="1356" 
d="M965 737c0 44 -0.666992 84.167 -2 120.5s-3.66602 69.666 -6.99902 99.999s-7.66602 58.166 -12.999 83.499s-12.333 49 -21 71c-12.667 32.667 -27.167 60 -43.5 82s-34.666 39.5 -54.999 52.5s-42.666 22.167 -66.999 27.5s-50.5 8 -78.5 8
c-28.667 0 -55.334 -2.66699 -80.001 -8s-47.334 -14.5 -68.001 -27.5s-39.167 -30.5 -55.5 -52.5s-30.5 -49.333 -42.5 -82c-8.66699 -22 -15.834 -45.667 -21.501 -71s-10 -53.166 -13 -83.499s-5.16699 -63.666 -6.5 -99.999s-2 -76.5 -2 -120.5
c0 -45.333 0.666992 -86.333 2 -123s3.5 -70.334 6.5 -101.001s7.33301 -58.667 13 -84s12.834 -49 21.501 -71c12 -32.667 26.167 -60 42.5 -82s34.833 -39.5 55.5 -52.5s43.334 -22.167 68.001 -27.5s51.334 -8 80.001 -8c28 0 54.167 2.66699 78.5 8
s46.666 14.5 66.999 27.5s38.666 30.5 54.999 52.5s30.833 49.333 43.5 82c8.66699 22 15.667 45.667 21 71s9.66602 53.333 12.999 84s5.66602 64.334 6.99902 101.001s2 77.667 2 123zM1245 737c0 -74.667 -3.66699 -147.167 -11 -217.5s-21.333 -136.166 -42 -197.499
c-17.333 -52 -39.666 -99.833 -66.999 -143.5s-61.666 -81.167 -102.999 -112.5s-90.333 -55.666 -147 -72.999s-122.334 -26 -197.001 -26s-140.334 8.66699 -197.001 26s-105.667 41.666 -147 72.999s-75.833 68.833 -103.5 112.5s-49.834 91.5 -66.501 143.5
c-20.667 61.333 -34.667 127.166 -42 197.499s-11 142.833 -11 217.5c0 75.333 3.66699 148 11 218s21.333 136 42 198c16.667 52 38.834 99.833 66.501 143.5s62.167 81 103.5 112s90.333 55.167 147 72.5s122.334 26 197.001 26s140.334 -8.66699 197.001 -26
s105.667 -41.5 147 -72.5s75.666 -68.333 102.999 -112s49.666 -91.5 66.999 -143.5c20.667 -62 34.667 -128 42 -198s11 -142.667 11 -218zM764 1546l-82 100l-86 -100h-227l225 260h178l218 -260h-226z" />
    <glyph glyph-name="Otilde" unicode="&#xd5;" horiz-adv-x="1356" 
d="M965 737c0 44 -0.666992 84.167 -2 120.5s-3.66602 69.666 -6.99902 99.999s-7.66602 58.166 -12.999 83.499s-12.333 49 -21 71c-12.667 32.667 -27.167 60 -43.5 82s-34.666 39.5 -54.999 52.5s-42.666 22.167 -66.999 27.5s-50.5 8 -78.5 8
c-28.667 0 -55.334 -2.66699 -80.001 -8s-47.334 -14.5 -68.001 -27.5s-39.167 -30.5 -55.5 -52.5s-30.5 -49.333 -42.5 -82c-8.66699 -22 -15.834 -45.667 -21.501 -71s-10 -53.166 -13 -83.499s-5.16699 -63.666 -6.5 -99.999s-2 -76.5 -2 -120.5
c0 -45.333 0.666992 -86.333 2 -123s3.5 -70.334 6.5 -101.001s7.33301 -58.667 13 -84s12.834 -49 21.501 -71c12 -32.667 26.167 -60 42.5 -82s34.833 -39.5 55.5 -52.5s43.334 -22.167 68.001 -27.5s51.334 -8 80.001 -8c28 0 54.167 2.66699 78.5 8
s46.666 14.5 66.999 27.5s38.666 30.5 54.999 52.5s30.833 49.333 43.5 82c8.66699 22 15.667 45.667 21 71s9.66602 53.333 12.999 84s5.66602 64.334 6.99902 101.001s2 77.667 2 123zM1245 737c0 -74.667 -3.66699 -147.167 -11 -217.5s-21.333 -136.166 -42 -197.499
c-17.333 -52 -39.666 -99.833 -66.999 -143.5s-61.666 -81.167 -102.999 -112.5s-90.333 -55.666 -147 -72.999s-122.334 -26 -197.001 -26s-140.334 8.66699 -197.001 26s-105.667 41.666 -147 72.999s-75.833 68.833 -103.5 112.5s-49.834 91.5 -66.501 143.5
c-20.667 61.333 -34.667 127.166 -42 197.499s-11 142.833 -11 217.5c0 75.333 3.66699 148 11 218s21.333 136 42 198c16.667 52 38.834 99.833 66.501 143.5s62.167 81 103.5 112s90.333 55.167 147 72.5s122.334 26 197.001 26s140.334 -8.66699 197.001 -26
s105.667 -41.5 147 -72.5s75.666 -68.333 102.999 -112s49.666 -91.5 66.999 -143.5c20.667 -62 34.667 -128 42 -198s11 -142.667 11 -218zM958 1757c0 -39.333 -3.8291 -71.998 -11.4961 -97.998s-18.834 -47.333 -33.501 -64s-31.667 -28.334 -51 -35.001
s-40.666 -10 -63.999 -10c-24.667 0 -47.334 3 -68.001 9s-40.334 12.667 -59.001 20l-55.5 25.5c-16.333 7.66699 -29.833 11.5 -40.5 11.5c-6 0 -11.833 -0.666992 -17.5 -2s-10.834 -4.5 -15.501 -9.5s-8.83398 -12.5 -12.501 -22.5s-6.83398 -23.333 -9.50098 -40h-142
v47c0 38.667 3.83301 71.167 11.5 97.5s18.5 47.666 32.5 63.999s30.833 28 50.5 35s41.5 10.5 65.5 10.5c25.333 0 49 -3.33301 71 -10s42.667 -13.667 62 -21l52 -24.5c15.333 -7 28 -10.5 38 -10.5c6 0 11.833 0.666992 17.5 2s10.834 4.5 15.501 9.5s9 12.5 13 22.5
s7.33301 23.333 10 40h141v-47z" />
    <glyph glyph-name="Odieresis" unicode="&#xd6;" horiz-adv-x="1356" 
d="M965 737c0 44 -0.666992 84.167 -2 120.5s-3.66602 69.666 -6.99902 99.999s-7.66602 58.166 -12.999 83.499s-12.333 49 -21 71c-12.667 32.667 -27.167 60 -43.5 82s-34.666 39.5 -54.999 52.5s-42.666 22.167 -66.999 27.5s-50.5 8 -78.5 8
c-28.667 0 -55.334 -2.66699 -80.001 -8s-47.334 -14.5 -68.001 -27.5s-39.167 -30.5 -55.5 -52.5s-30.5 -49.333 -42.5 -82c-8.66699 -22 -15.834 -45.667 -21.501 -71s-10 -53.166 -13 -83.499s-5.16699 -63.666 -6.5 -99.999s-2 -76.5 -2 -120.5
c0 -45.333 0.666992 -86.333 2 -123s3.5 -70.334 6.5 -101.001s7.33301 -58.667 13 -84s12.834 -49 21.501 -71c12 -32.667 26.167 -60 42.5 -82s34.833 -39.5 55.5 -52.5s43.334 -22.167 68.001 -27.5s51.334 -8 80.001 -8c28 0 54.167 2.66699 78.5 8
s46.666 14.5 66.999 27.5s38.666 30.5 54.999 52.5s30.833 49.333 43.5 82c8.66699 22 15.667 45.667 21 71s9.66602 53.333 12.999 84s5.66602 64.334 6.99902 101.001s2 77.667 2 123zM1245 737c0 -74.667 -3.66699 -147.167 -11 -217.5s-21.333 -136.166 -42 -197.499
c-17.333 -52 -39.666 -99.833 -66.999 -143.5s-61.666 -81.167 -102.999 -112.5s-90.333 -55.666 -147 -72.999s-122.334 -26 -197.001 -26s-140.334 8.66699 -197.001 26s-105.667 41.666 -147 72.999s-75.833 68.833 -103.5 112.5s-49.834 91.5 -66.501 143.5
c-20.667 61.333 -34.667 127.166 -42 197.499s-11 142.833 -11 217.5c0 75.333 3.66699 148 11 218s21.333 136 42 198c16.667 52 38.834 99.833 66.501 143.5s62.167 81 103.5 112s90.333 55.167 147 72.5s122.334 26 197.001 26s140.334 -8.66699 197.001 -26
s105.667 -41.5 147 -72.5s75.666 -68.333 102.999 -112s49.666 -91.5 66.999 -143.5c20.667 -62 34.667 -128 42 -198s11 -142.667 11 -218zM402 1560v203h225v-203h-225zM731 1560v203h226v-203h-226z" />
    <glyph glyph-name="multiply" unicode="&#xd7;" 
d="M836 324l-256 280l-256 -280l-127 129l260 286l-260 287l127 129l256 -281l256 281l127 -129l-261 -287l261 -286z" />
    <glyph glyph-name="Oslash" unicode="&#xd8;" horiz-adv-x="1356" 
d="M965 737c0 54.667 -1.16504 103.332 -3.49805 145.999s-6.16602 81.334 -11.499 116.001l-465 -739c25.333 -26.667 53.666 -45.334 84.999 -56.001s66.666 -16 105.999 -16c28 0 54.167 2.66699 78.5 8s46.666 14.5 66.999 27.5s38.666 30.5 54.999 52.5
s30.833 49.333 43.5 82c8.66699 22 15.834 45.667 21.501 71s10.167 53.333 13.5 84s5.83301 64.334 7.5 101.001s2.5 77.667 2.5 123zM868.002 1208c-24.667 28 -52.6641 47.333 -83.9971 58s-66.666 16 -105.999 16c-28.667 0 -55.334 -2.66699 -80.001 -8
s-47.334 -14.5 -68.001 -27.5s-39.167 -30.5 -55.5 -52.5s-30.5 -49.333 -42.5 -82c-8.66699 -22 -15.834 -45.667 -21.501 -71s-10.334 -53.166 -14.001 -83.499s-6.16699 -63.666 -7.5 -99.999s-2 -76.5 -2 -120.5c0 -58.667 1 -110.334 3 -155.001
s5.66699 -84.334 11 -119.001zM1128 1286c15.333 -22.667 28.8311 -47.0029 40.498 -73.0029s21.5 -53.667 29.5 -83c17.333 -58.667 29.5 -121 36.5 -187s10.5 -134.667 10.5 -206c0 -74.667 -4 -147.167 -12 -217.5s-21.667 -136.166 -41 -197.499
c-17.333 -52 -40 -99.833 -68 -143.5s-62.667 -81.167 -104 -112.5s-90.166 -55.666 -146.499 -72.999s-121.5 -26 -195.5 -26c-68 0 -128.667 7.33301 -182 22s-100 35.334 -140 62.001l-90 -145l-155 94l116 184c-15.333 23.333 -28.666 48 -39.999 74
s-21.666 53.333 -30.999 82c-17.333 58.667 -29.5 121.5 -36.5 188.5s-10.5 136.5 -10.5 208.5c0 75.333 4 148 12 218s21.667 136 41 198c17.333 52 39.833 99.833 67.5 143.5s62.167 81 103.5 112s90.166 55.167 146.499 72.5s121.833 26 196.5 26
c68.667 0 129.667 -7.33301 183 -22s100 -36 140 -64l93 148l155 -94z" />
    <glyph glyph-name="Ugrave" unicode="&#xd9;" horiz-adv-x="1303" 
d="M1159 469c0 -92.667 -11.834 -171 -35.501 -235s-57.5 -115.667 -101.5 -155s-97.5 -67.833 -160.5 -85.5s-133.833 -26.5 -212.5 -26.5c-78 0 -148.333 8.83301 -211 26.5s-115.834 46.167 -159.501 85.5s-77.167 91 -100.5 155s-35 142.333 -35 235v1006h263v-994
c0 -51.333 4.83301 -94.5 14.5 -129.5s24.334 -63.333 44.001 -85s44.834 -37.334 75.501 -47.001s67 -14.5 109 -14.5c42.667 0 79.5 4.83301 110.5 14.5s56.5 25.334 76.5 47.001s34.833 50 44.5 85s14.5 78.167 14.5 129.5v994h264v-1006zM613.999 1548l-227 260h268
l111 -260h-152z" />
    <glyph glyph-name="Uacute" unicode="&#xda;" horiz-adv-x="1303" 
d="M1159 469c0 -92.667 -11.834 -171 -35.501 -235s-57.5 -115.667 -101.5 -155s-97.5 -67.833 -160.5 -85.5s-133.833 -26.5 -212.5 -26.5c-78 0 -148.333 8.83301 -211 26.5s-115.834 46.167 -159.501 85.5s-77.167 91 -100.5 155s-35 142.333 -35 235v1006h263v-994
c0 -51.333 4.83301 -94.5 14.5 -129.5s24.334 -63.333 44.001 -85s44.834 -37.334 75.501 -47.001s67 -14.5 109 -14.5c42.667 0 79.5 4.83301 110.5 14.5s56.5 25.334 76.5 47.001s34.833 50 44.5 85s14.5 78.167 14.5 129.5v994h264v-1006zM701.999 1548h-151l110 260h269
z" />
    <glyph glyph-name="Ucircumflex" unicode="&#xdb;" horiz-adv-x="1303" 
d="M1159 469c0 -92.667 -11.834 -171 -35.501 -235s-57.5 -115.667 -101.5 -155s-97.5 -67.833 -160.5 -85.5s-133.833 -26.5 -212.5 -26.5c-78 0 -148.333 8.83301 -211 26.5s-115.834 46.167 -159.501 85.5s-77.167 91 -100.5 155s-35 142.333 -35 235v1006h263v-994
c0 -51.333 4.83301 -94.5 14.5 -129.5s24.334 -63.333 44.001 -85s44.834 -37.334 75.501 -47.001s67 -14.5 109 -14.5c42.667 0 79.5 4.83301 110.5 14.5s56.5 25.334 76.5 47.001s34.833 50 44.5 85s14.5 78.167 14.5 129.5v994h264v-1006zM736.999 1546l-82 100l-86 -100
h-227l225 260h178l218 -260h-226z" />
    <glyph glyph-name="Udieresis" unicode="&#xdc;" horiz-adv-x="1303" 
d="M1159 469c0 -92.667 -11.834 -171 -35.501 -235s-57.5 -115.667 -101.5 -155s-97.5 -67.833 -160.5 -85.5s-133.833 -26.5 -212.5 -26.5c-78 0 -148.333 8.83301 -211 26.5s-115.834 46.167 -159.501 85.5s-77.167 91 -100.5 155s-35 142.333 -35 235v1006h263v-994
c0 -51.333 4.83301 -94.5 14.5 -129.5s24.334 -63.333 44.001 -85s44.834 -37.334 75.501 -47.001s67 -14.5 109 -14.5c42.667 0 79.5 4.83301 110.5 14.5s56.5 25.334 76.5 47.001s34.833 50 44.5 85s14.5 78.167 14.5 129.5v994h264v-1006zM368.999 1560v203h225v-203
h-225zM697.999 1560v203h226v-203h-226z" />
    <glyph glyph-name="Yacute" unicode="&#xdd;" horiz-adv-x="1141" 
d="M690 598v-598h-262v598l-418 877h281l280 -623l291 623h268zM630 1548h-151l110 260h269z" />
    <glyph glyph-name="Thorn" unicode="&#xde;" horiz-adv-x="1178" 
d="M823 784c0 40 -4 74.833 -12 104.5s-21.833 54.167 -41.5 73.5s-45.667 33.833 -78 43.5s-72.5 14.5 -120.5 14.5h-147v-477h174c74 0 130 18.833 168 56.5s57 99.167 57 184.5zM1102 782c0 -67.333 -9.33301 -128.835 -28 -184.502s-48.167 -103.667 -88.5 -144
s-92.333 -71.666 -156 -93.999s-140.167 -33.5 -229.5 -33.5h-176v-326h-262v1475h262v-238h217c80.667 0 150 -11.833 208 -35.5s105.667 -56 143 -97s65 -89.167 83 -144.5s27 -114.666 27 -177.999z" />
    <glyph glyph-name="germandbls" unicode="&#xdf;" horiz-adv-x="1130" 
d="M1040 426c0 -79.333 -10.3311 -147.496 -30.998 -204.496s-49 -103.5 -85 -139.5c-33.333 -32 -71 -55.667 -113 -71s-87 -23 -135 -23c-39.333 0 -73.166 1.33301 -101.499 4s-55.166 6.66699 -80.499 12v215c17.333 -3.33301 35.166 -6.16602 53.499 -8.49902
s35.166 -3.5 50.499 -3.5c28.667 0 53 3 73 9s37.333 15.333 52 28c22.667 19.333 37.834 45.5 45.501 78.5s11.5 71.5 11.5 115.5c0 50.667 -4.33301 93.834 -13 129.501s-25.334 64.167 -50.001 85.5c-18.667 16.667 -43 29 -73 37s-67.333 12 -112 12h-38v213h24
c28.667 0 55 4.66699 79 14s44 23.333 60 42c14.667 17.333 26.334 38.333 35.001 63s13 53.334 13 86.001c0 25.333 -3 48.166 -9 68.499s-14.667 37.166 -26 50.499c-26.667 28.667 -66.334 43 -119.001 43c-30 0 -54.5 -5 -73.5 -15s-34.833 -22.667 -47.5 -38
c-16.667 -20.667 -27.334 -43.834 -32.001 -69.501s-7 -47.5 -7 -65.5v-1094h-264v1069c0 66.667 8.5 124.667 25.5 174s41.833 91 74.5 125c72 74 178 111 318 111c68.667 0 130 -8.33301 184 -25s99 -42 135 -76c31.333 -28.667 55.333 -63.667 72 -105
s25 -90.333 25 -147c0 -36.667 -4.33301 -72.834 -13 -108.501s-24.334 -68.834 -47.001 -99.501c-11.333 -15.333 -24.333 -30 -39 -44s-31.667 -26.667 -51 -38c35.333 -12.667 65.5 -28.334 90.5 -47.001s46.167 -39.334 63.5 -62.001
c16 -21.333 28.833 -44.166 38.5 -68.499s17.167 -49.333 22.5 -75s9 -51.834 11 -78.501s3 -53 3 -79z" />
    <glyph glyph-name="agrave" unicode="&#xe0;" horiz-adv-x="1069" 
d="M694 471h-170c-36 0 -65.833 -3.16699 -89.5 -9.5s-42.667 -15.5 -57 -27.5s-24.5 -26.5 -30.5 -43.5s-9 -35.833 -9 -56.5c0 -44 12.333 -78.333 37 -103c13.333 -12 30.166 -21.333 50.499 -28s47.166 -10 80.499 -10c23.333 0 46.333 4 69 12s42.834 19 60.501 33
s31.834 30.5 42.501 49.5s16 39.167 16 60.5v123zM707 0l-7.00098 92.0039c-12.667 -15.333 -28.167 -30.333 -46.5 -45s-39 -27.834 -62 -39.501s-48.333 -21 -76 -28s-57.5 -10.5 -89.5 -10.5c-60.667 0 -114.334 10.833 -161.001 32.5s-85 53.167 -115 94.5
c-46.667 60.667 -70 138 -70 232c0 42 5.16699 79.5 15.5 112.5s24.833 62.167 43.5 87.5c35.333 46.667 82.5 80.667 141.5 102s124.5 32 196.5 32h215v71c0 54.667 -15 93.334 -45 116.001s-69.667 34 -119 34c-28 0 -52 -2.33301 -72 -7s-37.167 -11.334 -51.5 -20.001
s-26.666 -19.334 -36.999 -32.001s-19.5 -27.334 -27.5 -44.001l-225 72c27.333 80 75.666 141 144.999 183s162.333 63 279 63c68.667 0 131.334 -9.5 188.001 -28.5s102.334 -49.167 137.001 -90.5c30.667 -36 51.667 -73.333 63 -112s17 -83.334 17 -134.001v-733h-237z
M531.999 1200l-227 260h268l111 -260h-152z" />
    <glyph glyph-name="aacute" unicode="&#xe1;" horiz-adv-x="1069" 
d="M694 471h-170c-36 0 -65.833 -3.16699 -89.5 -9.5s-42.667 -15.5 -57 -27.5s-24.5 -26.5 -30.5 -43.5s-9 -35.833 -9 -56.5c0 -44 12.333 -78.333 37 -103c13.333 -12 30.166 -21.333 50.499 -28s47.166 -10 80.499 -10c23.333 0 46.333 4 69 12s42.834 19 60.501 33
s31.834 30.5 42.501 49.5s16 39.167 16 60.5v123zM707 0l-7.00098 92.0039c-12.667 -15.333 -28.167 -30.333 -46.5 -45s-39 -27.834 -62 -39.501s-48.333 -21 -76 -28s-57.5 -10.5 -89.5 -10.5c-60.667 0 -114.334 10.833 -161.001 32.5s-85 53.167 -115 94.5
c-46.667 60.667 -70 138 -70 232c0 42 5.16699 79.5 15.5 112.5s24.833 62.167 43.5 87.5c35.333 46.667 82.5 80.667 141.5 102s124.5 32 196.5 32h215v71c0 54.667 -15 93.334 -45 116.001s-69.667 34 -119 34c-28 0 -52 -2.33301 -72 -7s-37.167 -11.334 -51.5 -20.001
s-26.666 -19.334 -36.999 -32.001s-19.5 -27.334 -27.5 -44.001l-225 72c27.333 80 75.666 141 144.999 183s162.333 63 279 63c68.667 0 131.334 -9.5 188.001 -28.5s102.334 -49.167 137.001 -90.5c30.667 -36 51.667 -73.333 63 -112s17 -83.334 17 -134.001v-733h-237z
M578.999 1200h-151l110 260h269z" />
    <glyph glyph-name="acircumflex" unicode="&#xe2;" horiz-adv-x="1069" 
d="M694 471h-170c-36 0 -65.833 -3.16699 -89.5 -9.5s-42.667 -15.5 -57 -27.5s-24.5 -26.5 -30.5 -43.5s-9 -35.833 -9 -56.5c0 -44 12.333 -78.333 37 -103c13.333 -12 30.166 -21.333 50.499 -28s47.166 -10 80.499 -10c23.333 0 46.333 4 69 12s42.834 19 60.501 33
s31.834 30.5 42.501 49.5s16 39.167 16 60.5v123zM707 0l-7.00098 92.0039c-12.667 -15.333 -28.167 -30.333 -46.5 -45s-39 -27.834 -62 -39.501s-48.333 -21 -76 -28s-57.5 -10.5 -89.5 -10.5c-60.667 0 -114.334 10.833 -161.001 32.5s-85 53.167 -115 94.5
c-46.667 60.667 -70 138 -70 232c0 42 5.16699 79.5 15.5 112.5s24.833 62.167 43.5 87.5c35.333 46.667 82.5 80.667 141.5 102s124.5 32 196.5 32h215v71c0 54.667 -15 93.334 -45 116.001s-69.667 34 -119 34c-28 0 -52 -2.33301 -72 -7s-37.167 -11.334 -51.5 -20.001
s-26.666 -19.334 -36.999 -32.001s-19.5 -27.334 -27.5 -44.001l-225 72c27.333 80 75.666 141 144.999 183s162.333 63 279 63c68.667 0 131.334 -9.5 188.001 -28.5s102.334 -49.167 137.001 -90.5c30.667 -36 51.667 -73.333 63 -112s17 -83.334 17 -134.001v-733h-237z
M623.999 1198l-82 100l-86 -100h-227l225 260h178l218 -260h-226z" />
    <glyph glyph-name="atilde" unicode="&#xe3;" horiz-adv-x="1069" 
d="M694 471h-170c-36 0 -65.833 -3.16699 -89.5 -9.5s-42.667 -15.5 -57 -27.5s-24.5 -26.5 -30.5 -43.5s-9 -35.833 -9 -56.5c0 -44 12.333 -78.333 37 -103c13.333 -12 30.166 -21.333 50.499 -28s47.166 -10 80.499 -10c23.333 0 46.333 4 69 12s42.834 19 60.501 33
s31.834 30.5 42.501 49.5s16 39.167 16 60.5v123zM707 0l-7.00098 92.0039c-12.667 -15.333 -28.167 -30.333 -46.5 -45s-39 -27.834 -62 -39.501s-48.333 -21 -76 -28s-57.5 -10.5 -89.5 -10.5c-60.667 0 -114.334 10.833 -161.001 32.5s-85 53.167 -115 94.5
c-46.667 60.667 -70 138 -70 232c0 42 5.16699 79.5 15.5 112.5s24.833 62.167 43.5 87.5c35.333 46.667 82.5 80.667 141.5 102s124.5 32 196.5 32h215v71c0 54.667 -15 93.334 -45 116.001s-69.667 34 -119 34c-28 0 -52 -2.33301 -72 -7s-37.167 -11.334 -51.5 -20.001
s-26.666 -19.334 -36.999 -32.001s-19.5 -27.334 -27.5 -44.001l-225 72c27.333 80 75.666 141 144.999 183s162.333 63 279 63c68.667 0 131.334 -9.5 188.001 -28.5s102.334 -49.167 137.001 -90.5c30.667 -36 51.667 -73.333 63 -112s17 -83.334 17 -134.001v-733h-237z
M835.999 1409c0 -39.333 -3.8291 -71.998 -11.4961 -97.998s-18.834 -47.333 -33.501 -64s-31.667 -28.334 -51 -35.001s-40.666 -10 -63.999 -10c-24.667 0 -47.334 3 -68.001 9s-40.334 12.667 -59.001 20l-55.5 25.5c-16.333 7.66699 -29.833 11.5 -40.5 11.5
c-6 0 -11.833 -0.666992 -17.5 -2s-10.834 -4.5 -15.501 -9.5s-8.83398 -12.5 -12.501 -22.5s-6.83398 -23.333 -9.50098 -40h-142v47c0 38.667 3.83301 71.167 11.5 97.5s18.5 47.666 32.5 63.999s30.833 28 50.5 35s41.5 10.5 65.5 10.5c25.333 0 49 -3.33301 71 -10
s42.667 -13.667 62 -21l52 -24.5c15.333 -7 28 -10.5 38 -10.5c6 0 11.833 0.666992 17.5 2s10.834 4.5 15.501 9.5s9 12.5 13 22.5s7.33301 23.333 10 40h141v-47z" />
    <glyph glyph-name="adieresis" unicode="&#xe4;" horiz-adv-x="1069" 
d="M694 471h-170c-36 0 -65.833 -3.16699 -89.5 -9.5s-42.667 -15.5 -57 -27.5s-24.5 -26.5 -30.5 -43.5s-9 -35.833 -9 -56.5c0 -44 12.333 -78.333 37 -103c13.333 -12 30.166 -21.333 50.499 -28s47.166 -10 80.499 -10c23.333 0 46.333 4 69 12s42.834 19 60.501 33
s31.834 30.5 42.501 49.5s16 39.167 16 60.5v123zM707 0l-7.00098 92.0039c-12.667 -15.333 -28.167 -30.333 -46.5 -45s-39 -27.834 -62 -39.501s-48.333 -21 -76 -28s-57.5 -10.5 -89.5 -10.5c-60.667 0 -114.334 10.833 -161.001 32.5s-85 53.167 -115 94.5
c-46.667 60.667 -70 138 -70 232c0 42 5.16699 79.5 15.5 112.5s24.833 62.167 43.5 87.5c35.333 46.667 82.5 80.667 141.5 102s124.5 32 196.5 32h215v71c0 54.667 -15 93.334 -45 116.001s-69.667 34 -119 34c-28 0 -52 -2.33301 -72 -7s-37.167 -11.334 -51.5 -20.001
s-26.666 -19.334 -36.999 -32.001s-19.5 -27.334 -27.5 -44.001l-225 72c27.333 80 75.666 141 144.999 183s162.333 63 279 63c68.667 0 131.334 -9.5 188.001 -28.5s102.334 -49.167 137.001 -90.5c30.667 -36 51.667 -73.333 63 -112s17 -83.334 17 -134.001v-733h-237z
M274.999 1212v203h225v-203h-225zM603.999 1212v203h226v-203h-226z" />
    <glyph glyph-name="aring" unicode="&#xe5;" horiz-adv-x="1069" 
d="M694 471h-170c-36 0 -65.833 -3.16699 -89.5 -9.5s-42.667 -15.5 -57 -27.5s-24.5 -26.5 -30.5 -43.5s-9 -35.833 -9 -56.5c0 -44 12.333 -78.333 37 -103c13.333 -12 30.166 -21.333 50.499 -28s47.166 -10 80.499 -10c23.333 0 46.333 4 69 12s42.834 19 60.501 33
s31.834 30.5 42.501 49.5s16 39.167 16 60.5v123zM707 0l-7.00098 92.0039c-12.667 -15.333 -28.167 -30.333 -46.5 -45s-39 -27.834 -62 -39.501s-48.333 -21 -76 -28s-57.5 -10.5 -89.5 -10.5c-60.667 0 -114.334 10.833 -161.001 32.5s-85 53.167 -115 94.5
c-46.667 60.667 -70 138 -70 232c0 42 5.16699 79.5 15.5 112.5s24.833 62.167 43.5 87.5c35.333 46.667 82.5 80.667 141.5 102s124.5 32 196.5 32h215v71c0 54.667 -15 93.334 -45 116.001s-69.667 34 -119 34c-28 0 -52 -2.33301 -72 -7s-37.167 -11.334 -51.5 -20.001
s-26.666 -19.334 -36.999 -32.001s-19.5 -27.334 -27.5 -44.001l-225 72c27.333 80 75.666 141 144.999 183s162.333 63 279 63c68.667 0 131.334 -9.5 188.001 -28.5s102.334 -49.167 137.001 -90.5c30.667 -36 51.667 -73.333 63 -112s17 -83.334 17 -134.001v-733h-237z
M646.999 1331c0 22.667 -7.33398 40.333 -22.001 53c-20.667 16.667 -40.667 25 -60 25c-11.333 0 -22.166 -2 -32.499 -6s-19.166 -9.66699 -26.499 -17s-13 -15.5 -17 -24.5s-6 -19.167 -6 -30.5c0 -20.667 7.5 -38.167 22.5 -52.5s34.833 -21.5 59.5 -21.5
c11.333 0 22 2 32 6s18.667 9.5 26 16.5s13.166 14.833 17.499 23.5s6.5 18 6.5 28zM753.998 1333c0 -50.667 -18.002 -93 -54.002 -127c-19.333 -18.667 -40.333 -32.167 -63 -40.5s-46.667 -12.5 -72 -12.5c-26.667 0 -51.5 4.66699 -74.5 14s-43 22 -60 38
s-30.5 35 -40.5 57s-15 45.667 -15 71s4.66699 49 14 71s22.333 40.667 39 56c17.333 16.667 37.833 29.667 61.5 39s48.834 14 75.501 14c24.667 0 48.334 -4.33301 71.001 -13s42.667 -21.334 60 -38.001c17.333 -16 31.333 -35.167 42 -57.5s16 -46.166 16 -71.499z" />
    <glyph glyph-name="ae" unicode="&#xe6;" horiz-adv-x="1640" 
d="M694 471h-170c-36 0 -65.833 -3.16699 -89.5 -9.5s-42.667 -15.5 -57 -27.5s-24.5 -26.5 -30.5 -43.5s-9 -35.833 -9 -56.5c0 -44 12.333 -78.333 37 -103c13.333 -12 30.166 -21.333 50.499 -28s47.166 -10 80.499 -10c23.333 0 46.333 4 69 12s42.834 19 60.501 33
s31.834 30.5 42.501 49.5s16 39.167 16 60.5v123zM1309 647c0 46 -4.16699 84.5 -12.5 115.5s-20.333 56 -36 75s-34.5 32.667 -56.5 41s-46.667 12.5 -74 12.5s-52 -4 -74 -12s-41 -21.333 -57 -40s-28.833 -43.667 -38.5 -75s-15.167 -70.333 -16.5 -117h365zM942 471
l-0.00292969 -53c0 -44 5.16699 -80.667 15.5 -110s24.833 -53 43.5 -71s41 -30.667 67 -38s55 -11 87 -11c29.333 0 54.833 3.83301 76.5 11.5s40 17.5 55 29.5s27.333 25 37 39s17.167 27 22.5 39l206 -100c-12 -27.333 -27.667 -55.166 -47 -83.499
s-45 -54.166 -77 -77.499s-71.333 -42.333 -118 -57s-103 -22 -169 -22c-84.667 0 -156.5 13 -215.5 39s-107.5 66.333 -145.5 121l-12 -14c-32 -32.667 -62.5 -58.5 -91.5 -77.5s-57.5 -33.5 -85.5 -43.5s-55.5 -16.333 -82.5 -19s-54.5 -4 -82.5 -4
c-62 0 -116.5 11.333 -163.5 34s-86.167 55.667 -117.5 99c-20.667 29.333 -36.667 63 -48 101s-17 79.667 -17 125c0 42 5.16699 79 15.5 111s24.833 60.333 43.5 85c35.333 44 82.5 75.5 141.5 94.5s124.5 28.5 196.5 28.5h215v86c0 28 -3.83301 51.667 -11.5 71
s-18.667 35.166 -33 47.499s-31.666 21.333 -51.999 27s-42.833 8.5 -67.5 8.5c-28 0 -52 -2.33301 -72 -7s-37.167 -11.667 -51.5 -21s-26.666 -20.666 -36.999 -33.999s-19.5 -28.333 -27.5 -45l-225 72c27.333 80 75.5 141 144.5 183s162.167 63 279.5 63
c49.333 0 95.833 -5.33301 139.5 -16s82.5 -29.334 116.5 -56.001c16.667 -12.667 31 -26.334 43 -41.001c68.667 75.333 172.334 113 311.001 113c70 0 128.833 -9.33301 176.5 -28s87.167 -43 118.5 -73c24.667 -24 44.5 -50.167 59.5 -78.5s26.833 -59.5 35.5 -93.5
s14.5 -71 17.5 -111s4.5 -83.333 4.5 -130v-113h-619z" />
    <glyph glyph-name="ccedilla" unicode="&#xe7;" horiz-adv-x="969" 
d="M948 266c-25.333 -91.333 -69.333 -162.672 -132 -214.005s-143.667 -79.666 -243 -84.999l-20 -53c20 -2.66699 40 -7.16699 60 -13.5s38 -15.166 54 -26.499s29 -25.5 39 -42.5s15 -37.167 15 -60.5c0 -29.333 -8.16699 -55 -24.5 -77s-39.5 -40 -69.5 -54
c-59.333 -28.667 -140.666 -43 -243.999 -43c-4 0 -11 0.166992 -21 0.5s-27.667 2.16602 -53 5.49902l8 127h22c10.667 0 23.334 0.333008 38.001 1s30.167 1.83398 46.5 3.50098s31.5 4.16699 45.5 7.5c15.333 4 28 9.33301 38 16s15 15.667 15 27
c-5.33301 11.333 -13.5 19 -24.5 23s-27.667 7.33301 -50 10s-53.5 4 -93.5 4l56 160c-39.333 8.66699 -74 21 -104 37s-56.333 35 -79 57s-42 46.667 -58 74s-29.333 56.666 -40 87.999c-15.333 45.333 -25.666 92.833 -30.999 142.5s-8 100.167 -8 151.5
c0 54 3 106.333 9 157s17.333 99 34 145c14 38 32.167 73.167 54.5 105.5s50.166 60.333 83.499 84s72.833 42 118.5 55s98.834 19.5 159.501 19.5c108 0 195.667 -26 263 -78s110.666 -126.333 129.999 -223l-233 -74c-14.667 58.667 -36.167 100 -64.5 124
s-64.166 36 -107.499 36s-77.5 -11.167 -102.5 -33.5s-44.167 -52.166 -57.5 -89.499c-10.667 -31.333 -17.834 -66.333 -21.501 -105s-5.5 -79.667 -5.5 -123s1.33301 -80.666 4 -111.999s6.66699 -58.666 12 -81.999s12.166 -43.166 20.499 -59.499
s18.166 -30.5 29.499 -42.5c12 -14.667 28.167 -26.667 48.5 -36s42.833 -14 67.5 -14c22.667 0 43.167 2.16699 61.5 6.5s35 12.166 50 23.499s28.333 27.333 40 48s22.167 47.334 31.5 80.001z" />
    <glyph glyph-name="egrave" unicode="&#xe8;" horiz-adv-x="1044" 
d="M713 635c0 48.667 -4.16797 89.501 -12.501 122.501s-20.333 59.333 -36 79s-34.5 33.667 -56.5 42s-46.333 12.5 -73 12.5c-27.333 0 -52.166 -4 -74.499 -12s-41.5 -21.833 -57.5 -41.5s-28.833 -45.834 -38.5 -78.501s-15.167 -74 -16.5 -124h365zM345.999 453.001
l-0.000976562 -35.002c0 -44 5.16699 -80.667 15.5 -110s24.833 -53 43.5 -71s41 -30.667 67 -38s55 -11 87 -11c29.333 0 54.833 3.83301 76.5 11.5s40 17.5 55 29.5s27.333 25 37 39s17.167 27 22.5 39l206 -100c-12 -27.333 -27.667 -55.166 -47 -83.499
s-45 -54.166 -77 -77.499s-71.333 -42.333 -118 -57s-103 -22 -169 -22c-103.333 0 -188.5 18 -255.5 54s-117.167 94.667 -150.5 176c-32.667 78 -49 182.333 -49 313c0 113.333 10.167 209.5 30.5 288.5s54.5 142.5 102.5 190.5c36 36 80.833 63.167 134.5 81.5
s118.834 27.5 195.501 27.5c70 0 128.833 -9.33301 176.5 -28s87.167 -43 118.5 -73c24.667 -24 44.5 -50.167 59.5 -78.5s26.833 -59.5 35.5 -93.5s14.5 -71 17.5 -111s4.5 -83.333 4.5 -130v-131h-619zM511.998 1200l-227 260h268l111 -260h-152z" />
    <glyph glyph-name="eacute" unicode="&#xe9;" horiz-adv-x="1044" 
d="M713 635c0 48.667 -4.16797 89.501 -12.501 122.501s-20.333 59.333 -36 79s-34.5 33.667 -56.5 42s-46.333 12.5 -73 12.5c-27.333 0 -52.166 -4 -74.499 -12s-41.5 -21.833 -57.5 -41.5s-28.833 -45.834 -38.5 -78.501s-15.167 -74 -16.5 -124h365zM345.999 453.001
l-0.000976562 -35.002c0 -44 5.16699 -80.667 15.5 -110s24.833 -53 43.5 -71s41 -30.667 67 -38s55 -11 87 -11c29.333 0 54.833 3.83301 76.5 11.5s40 17.5 55 29.5s27.333 25 37 39s17.167 27 22.5 39l206 -100c-12 -27.333 -27.667 -55.166 -47 -83.499
s-45 -54.166 -77 -77.499s-71.333 -42.333 -118 -57s-103 -22 -169 -22c-103.333 0 -188.5 18 -255.5 54s-117.167 94.667 -150.5 176c-32.667 78 -49 182.333 -49 313c0 113.333 10.167 209.5 30.5 288.5s54.5 142.5 102.5 190.5c36 36 80.833 63.167 134.5 81.5
s118.834 27.5 195.501 27.5c70 0 128.833 -9.33301 176.5 -28s87.167 -43 118.5 -73c24.667 -24 44.5 -50.167 59.5 -78.5s26.833 -59.5 35.5 -93.5s14.5 -71 17.5 -111s4.5 -83.333 4.5 -130v-131h-619zM580.998 1200h-151l110 260h269z" />
    <glyph glyph-name="ecircumflex" unicode="&#xea;" horiz-adv-x="1044" 
d="M713 635c0 48.667 -4.16797 89.501 -12.501 122.501s-20.333 59.333 -36 79s-34.5 33.667 -56.5 42s-46.333 12.5 -73 12.5c-27.333 0 -52.166 -4 -74.499 -12s-41.5 -21.833 -57.5 -41.5s-28.833 -45.834 -38.5 -78.501s-15.167 -74 -16.5 -124h365zM345.999 453.001
l-0.000976562 -35.002c0 -44 5.16699 -80.667 15.5 -110s24.833 -53 43.5 -71s41 -30.667 67 -38s55 -11 87 -11c29.333 0 54.833 3.83301 76.5 11.5s40 17.5 55 29.5s27.333 25 37 39s17.167 27 22.5 39l206 -100c-12 -27.333 -27.667 -55.166 -47 -83.499
s-45 -54.166 -77 -77.499s-71.333 -42.333 -118 -57s-103 -22 -169 -22c-103.333 0 -188.5 18 -255.5 54s-117.167 94.667 -150.5 176c-32.667 78 -49 182.333 -49 313c0 113.333 10.167 209.5 30.5 288.5s54.5 142.5 102.5 190.5c36 36 80.833 63.167 134.5 81.5
s118.834 27.5 195.501 27.5c70 0 128.833 -9.33301 176.5 -28s87.167 -43 118.5 -73c24.667 -24 44.5 -50.167 59.5 -78.5s26.833 -59.5 35.5 -93.5s14.5 -71 17.5 -111s4.5 -83.333 4.5 -130v-131h-619zM628.998 1198l-82 100l-86 -100h-227l225 260h178l218 -260h-226z
" />
    <glyph glyph-name="edieresis" unicode="&#xeb;" horiz-adv-x="1044" 
d="M713 635c0 48.667 -4.16797 89.501 -12.501 122.501s-20.333 59.333 -36 79s-34.5 33.667 -56.5 42s-46.333 12.5 -73 12.5c-27.333 0 -52.166 -4 -74.499 -12s-41.5 -21.833 -57.5 -41.5s-28.833 -45.834 -38.5 -78.501s-15.167 -74 -16.5 -124h365zM345.999 453.001
l-0.000976562 -35.002c0 -44 5.16699 -80.667 15.5 -110s24.833 -53 43.5 -71s41 -30.667 67 -38s55 -11 87 -11c29.333 0 54.833 3.83301 76.5 11.5s40 17.5 55 29.5s27.333 25 37 39s17.167 27 22.5 39l206 -100c-12 -27.333 -27.667 -55.166 -47 -83.499
s-45 -54.166 -77 -77.499s-71.333 -42.333 -118 -57s-103 -22 -169 -22c-103.333 0 -188.5 18 -255.5 54s-117.167 94.667 -150.5 176c-32.667 78 -49 182.333 -49 313c0 113.333 10.167 209.5 30.5 288.5s54.5 142.5 102.5 190.5c36 36 80.833 63.167 134.5 81.5
s118.834 27.5 195.501 27.5c70 0 128.833 -9.33301 176.5 -28s87.167 -43 118.5 -73c24.667 -24 44.5 -50.167 59.5 -78.5s26.833 -59.5 35.5 -93.5s14.5 -71 17.5 -111s4.5 -83.333 4.5 -130v-131h-619zM274.998 1212v203h225v-203h-225zM603.998 1212v203h226v-203h-226z
" />
    <glyph glyph-name="igrave" unicode="&#xec;" horiz-adv-x="510" 
d="M127 0v1065h256v-1065h-256zM247 1200l-227 260h268l111 -260h-152z" />
    <glyph glyph-name="iacute" unicode="&#xed;" horiz-adv-x="510" 
d="M127 0v1065h256v-1065h-256zM265 1200h-151l110 260h269z" />
    <glyph glyph-name="icircumflex" unicode="&#xee;" horiz-adv-x="510" 
d="M127 0v1065h256v-1065h-256zM343 1198l-82 100l-86 -100h-227l225 260h178l218 -260h-226z" />
    <glyph glyph-name="idieresis" unicode="&#xef;" horiz-adv-x="510" 
d="M127 0v1065h256v-1065h-256zM-19 1212v203h225v-203h-225zM310 1212v203h226v-203h-226z" />
    <glyph glyph-name="eth" unicode="&#xf0;" horiz-adv-x="1090" 
d="M739 494c0 72 -9.33398 135.332 -28.001 189.999c-15.333 44 -36.666 74.5 -63.999 91.5s-61.333 25.5 -102 25.5c-39.333 0 -73 -8.33301 -101 -25s-49.667 -46.667 -65 -90c-19.333 -54 -29 -117.333 -29 -190v8c0 -37.333 2.5 -73.5 7.5 -108.5
s12.167 -65.833 21.5 -92.5c15.333 -43.333 36.833 -73.666 64.5 -90.999s62.167 -26 103.5 -26c31.333 0 59 4.66699 83 14s44 25.666 60 48.999s28.167 54.833 36.5 94.5s12.5 89.834 12.5 150.501zM998.999 554.999c0 -68 -3.33203 -128.668 -9.99902 -182.001
s-17.667 -102 -33 -146c-14 -38.667 -32.333 -74 -55 -106s-50.5 -59.333 -83.5 -82s-71.833 -40.334 -116.5 -53.001s-96 -19 -154 -19c-58.667 0 -110.5 6.33301 -155.5 19s-84.333 30.334 -118 53.001s-62 50 -85 82s-41.5 67.333 -55.5 106
c-15.333 44 -26.333 89 -33 135s-10 90 -10 132s2.33301 86.5 7 133.5s14.667 92.5 30 136.5c16 44.667 35.667 82.834 59 114.501s49.833 57.334 79.5 77.001s62.167 34 97.5 43s72.666 13.5 111.999 13.5c42 0 78.5 -4 109.5 -12s54.5 -19 70.5 -33l-15 35
c-6.66699 15.333 -16.167 33 -28.5 53s-27.666 41.667 -45.999 65s-40.833 46.666 -67.5 69.999l-162 -137l-72 82l146 122l-77.5 49c-26.333 16 -56.5 30.667 -90.5 44l61 141c47.333 -14.667 92.166 -31.167 134.499 -49.5s81.5 -38.833 117.5 -61.5l139 119l74 -80
l-119 -102c68 -52 124.333 -109.667 169 -173s80.5 -128.5 107.5 -195.5s46 -134.167 57 -201.5s16.5 -131.333 16.5 -192z" />
    <glyph glyph-name="ntilde" unicode="&#xf1;" horiz-adv-x="1104" 
d="M723 0l0.000976562 721.001c0 43.333 -11.5 78 -34.5 104s-59.167 39 -108.5 39c-29.333 0 -56 -6.33301 -80 -19s-44.667 -29.834 -62 -51.501s-30.833 -46.667 -40.5 -75s-14.5 -58.166 -14.5 -89.499v-629h-256v1065h238l6 -119c14 17.333 29.833 35 47.5 53
s38.667 34.333 63 49s52.166 26.667 83.499 36s67.666 14 108.999 14c34.667 0 70 -4.83301 106 -14.5s68.833 -27 98.5 -52s53.834 -58.833 72.501 -101.5s28 -97.334 28 -164.001v-766h-256zM856.001 1409c0 -39.333 -3.8291 -71.998 -11.4961 -97.998
s-18.834 -47.333 -33.501 -64s-31.667 -28.334 -51 -35.001s-40.666 -10 -63.999 -10c-24.667 0 -47.334 3 -68.001 9s-40.334 12.667 -59.001 20l-55.5 25.5c-16.333 7.66699 -29.833 11.5 -40.5 11.5c-6 0 -11.833 -0.666992 -17.5 -2s-10.834 -4.5 -15.501 -9.5
s-8.83398 -12.5 -12.501 -22.5s-6.83398 -23.333 -9.50098 -40h-142v47c0 38.667 3.83301 71.167 11.5 97.5s18.5 47.666 32.5 63.999s30.833 28 50.5 35s41.5 10.5 65.5 10.5c25.333 0 49 -3.33301 71 -10s42.667 -13.667 62 -21l52 -24.5c15.333 -7 28 -10.5 38 -10.5
c6 0 11.833 0.666992 17.5 2s10.834 4.5 15.501 9.5s9 12.5 13 22.5s7.33301 23.333 10 40h141v-47z" />
    <glyph glyph-name="ograve" unicode="&#xf2;" horiz-adv-x="1090" 
d="M739 532c0 52 -2.33496 96.665 -7.00195 133.998s-11.667 69.333 -21 96c-15.333 44 -36.666 74.5 -63.999 91.5s-60.666 25.5 -99.999 25.5c-40 0 -74.167 -8.33301 -102.5 -25s-50.166 -46.667 -65.499 -90c-9.33301 -26.667 -16.5 -59 -21.5 -97s-7.5 -83 -7.5 -135
c0 -51.333 2.5 -95.666 7.5 -132.999s12.167 -69.333 21.5 -96c15.333 -43.333 37.166 -73.666 65.499 -90.999s62.5 -26 102.5 -26c31.333 0 59 5.33301 83 16s44 29.167 60 55.5s28.167 61.833 36.5 106.5s12.5 100.667 12.5 168zM998.998 531.998
c0 -56.667 -3.33301 -110.667 -10 -162s-17.667 -99 -33 -143c-14 -38.667 -32.5 -74 -55.5 -106s-51 -59.333 -84 -82s-71.667 -40.334 -116 -53.001s-95.5 -19 -153.5 -19c-58.667 0 -110.5 6.33301 -155.5 19s-84.333 30.334 -118 53.001s-62 50 -85 82
s-41.5 67.333 -55.5 106c-15.333 44 -26.333 91.667 -33 143s-10 105.333 -10 162s3.33301 110.5 10 161.5s17.667 98.5 33 142.5c14 39.333 32.5 75 55.5 107s51.167 59.5 84.5 82.5s72.5 40.833 117.5 53.5s97.167 19 156.5 19c58 0 109.5 -6.33301 154.5 -19
s84 -30.5 117 -53.5s60.667 -50.5 83 -82.5s40.5 -67.667 54.5 -107c15.333 -44 26.333 -91.667 33 -143s10 -105 10 -161zM521.998 1200l-227 260h268l111 -260h-152z" />
    <glyph glyph-name="oacute" unicode="&#xf3;" horiz-adv-x="1090" 
d="M739 532c0 52 -2.33496 96.665 -7.00195 133.998s-11.667 69.333 -21 96c-15.333 44 -36.666 74.5 -63.999 91.5s-60.666 25.5 -99.999 25.5c-40 0 -74.167 -8.33301 -102.5 -25s-50.166 -46.667 -65.499 -90c-9.33301 -26.667 -16.5 -59 -21.5 -97s-7.5 -83 -7.5 -135
c0 -51.333 2.5 -95.666 7.5 -132.999s12.167 -69.333 21.5 -96c15.333 -43.333 37.166 -73.666 65.499 -90.999s62.5 -26 102.5 -26c31.333 0 59 5.33301 83 16s44 29.167 60 55.5s28.167 61.833 36.5 106.5s12.5 100.667 12.5 168zM998.998 531.998
c0 -56.667 -3.33301 -110.667 -10 -162s-17.667 -99 -33 -143c-14 -38.667 -32.5 -74 -55.5 -106s-51 -59.333 -84 -82s-71.667 -40.334 -116 -53.001s-95.5 -19 -153.5 -19c-58.667 0 -110.5 6.33301 -155.5 19s-84.333 30.334 -118 53.001s-62 50 -85 82
s-41.5 67.333 -55.5 106c-15.333 44 -26.333 91.667 -33 143s-10 105.333 -10 162s3.33301 110.5 10 161.5s17.667 98.5 33 142.5c14 39.333 32.5 75 55.5 107s51.167 59.5 84.5 82.5s72.5 40.833 117.5 53.5s97.167 19 156.5 19c58 0 109.5 -6.33301 154.5 -19
s84 -30.5 117 -53.5s60.667 -50.5 83 -82.5s40.5 -67.667 54.5 -107c15.333 -44 26.333 -91.667 33 -143s10 -105 10 -161zM599.998 1200h-151l110 260h269z" />
    <glyph glyph-name="ocircumflex" unicode="&#xf4;" horiz-adv-x="1090" 
d="M739 532c0 52 -2.33496 96.665 -7.00195 133.998s-11.667 69.333 -21 96c-15.333 44 -36.666 74.5 -63.999 91.5s-60.666 25.5 -99.999 25.5c-40 0 -74.167 -8.33301 -102.5 -25s-50.166 -46.667 -65.499 -90c-9.33301 -26.667 -16.5 -59 -21.5 -97s-7.5 -83 -7.5 -135
c0 -51.333 2.5 -95.666 7.5 -132.999s12.167 -69.333 21.5 -96c15.333 -43.333 37.166 -73.666 65.499 -90.999s62.5 -26 102.5 -26c31.333 0 59 5.33301 83 16s44 29.167 60 55.5s28.167 61.833 36.5 106.5s12.5 100.667 12.5 168zM998.998 531.998
c0 -56.667 -3.33301 -110.667 -10 -162s-17.667 -99 -33 -143c-14 -38.667 -32.5 -74 -55.5 -106s-51 -59.333 -84 -82s-71.667 -40.334 -116 -53.001s-95.5 -19 -153.5 -19c-58.667 0 -110.5 6.33301 -155.5 19s-84.333 30.334 -118 53.001s-62 50 -85 82
s-41.5 67.333 -55.5 106c-15.333 44 -26.333 91.667 -33 143s-10 105.333 -10 162s3.33301 110.5 10 161.5s17.667 98.5 33 142.5c14 39.333 32.5 75 55.5 107s51.167 59.5 84.5 82.5s72.5 40.833 117.5 53.5s97.167 19 156.5 19c58 0 109.5 -6.33301 154.5 -19
s84 -30.5 117 -53.5s60.667 -50.5 83 -82.5s40.5 -67.667 54.5 -107c15.333 -44 26.333 -91.667 33 -143s10 -105 10 -161zM634.998 1198l-82 100l-86 -100h-227l225 260h178l218 -260h-226z" />
    <glyph glyph-name="otilde" unicode="&#xf5;" horiz-adv-x="1090" 
d="M739 532c0 52 -2.33496 96.665 -7.00195 133.998s-11.667 69.333 -21 96c-15.333 44 -36.666 74.5 -63.999 91.5s-60.666 25.5 -99.999 25.5c-40 0 -74.167 -8.33301 -102.5 -25s-50.166 -46.667 -65.499 -90c-9.33301 -26.667 -16.5 -59 -21.5 -97s-7.5 -83 -7.5 -135
c0 -51.333 2.5 -95.666 7.5 -132.999s12.167 -69.333 21.5 -96c15.333 -43.333 37.166 -73.666 65.499 -90.999s62.5 -26 102.5 -26c31.333 0 59 5.33301 83 16s44 29.167 60 55.5s28.167 61.833 36.5 106.5s12.5 100.667 12.5 168zM998.998 531.998
c0 -56.667 -3.33301 -110.667 -10 -162s-17.667 -99 -33 -143c-14 -38.667 -32.5 -74 -55.5 -106s-51 -59.333 -84 -82s-71.667 -40.334 -116 -53.001s-95.5 -19 -153.5 -19c-58.667 0 -110.5 6.33301 -155.5 19s-84.333 30.334 -118 53.001s-62 50 -85 82
s-41.5 67.333 -55.5 106c-15.333 44 -26.333 91.667 -33 143s-10 105.333 -10 162s3.33301 110.5 10 161.5s17.667 98.5 33 142.5c14 39.333 32.5 75 55.5 107s51.167 59.5 84.5 82.5s72.5 40.833 117.5 53.5s97.167 19 156.5 19c58 0 109.5 -6.33301 154.5 -19
s84 -30.5 117 -53.5s60.667 -50.5 83 -82.5s40.5 -67.667 54.5 -107c15.333 -44 26.333 -91.667 33 -143s10 -105 10 -161zM835.998 1409c0 -39.333 -3.8291 -71.998 -11.4961 -97.998s-18.834 -47.333 -33.501 -64s-31.667 -28.334 -51 -35.001s-40.666 -10 -63.999 -10
c-24.667 0 -47.334 3 -68.001 9s-40.334 12.667 -59.001 20l-55.5 25.5c-16.333 7.66699 -29.833 11.5 -40.5 11.5c-6 0 -11.833 -0.666992 -17.5 -2s-10.834 -4.5 -15.501 -9.5s-8.83398 -12.5 -12.501 -22.5s-6.83398 -23.333 -9.50098 -40h-142v47
c0 38.667 3.83301 71.167 11.5 97.5s18.5 47.666 32.5 63.999s30.833 28 50.5 35s41.5 10.5 65.5 10.5c25.333 0 49 -3.33301 71 -10s42.667 -13.667 62 -21l52 -24.5c15.333 -7 28 -10.5 38 -10.5c6 0 11.833 0.666992 17.5 2s10.834 4.5 15.501 9.5s9 12.5 13 22.5
s7.33301 23.333 10 40h141v-47z" />
    <glyph glyph-name="odieresis" unicode="&#xf6;" horiz-adv-x="1090" 
d="M739 532c0 52 -2.33496 96.665 -7.00195 133.998s-11.667 69.333 -21 96c-15.333 44 -36.666 74.5 -63.999 91.5s-60.666 25.5 -99.999 25.5c-40 0 -74.167 -8.33301 -102.5 -25s-50.166 -46.667 -65.499 -90c-9.33301 -26.667 -16.5 -59 -21.5 -97s-7.5 -83 -7.5 -135
c0 -51.333 2.5 -95.666 7.5 -132.999s12.167 -69.333 21.5 -96c15.333 -43.333 37.166 -73.666 65.499 -90.999s62.5 -26 102.5 -26c31.333 0 59 5.33301 83 16s44 29.167 60 55.5s28.167 61.833 36.5 106.5s12.5 100.667 12.5 168zM998.998 531.998
c0 -56.667 -3.33301 -110.667 -10 -162s-17.667 -99 -33 -143c-14 -38.667 -32.5 -74 -55.5 -106s-51 -59.333 -84 -82s-71.667 -40.334 -116 -53.001s-95.5 -19 -153.5 -19c-58.667 0 -110.5 6.33301 -155.5 19s-84.333 30.334 -118 53.001s-62 50 -85 82
s-41.5 67.333 -55.5 106c-15.333 44 -26.333 91.667 -33 143s-10 105.333 -10 162s3.33301 110.5 10 161.5s17.667 98.5 33 142.5c14 39.333 32.5 75 55.5 107s51.167 59.5 84.5 82.5s72.5 40.833 117.5 53.5s97.167 19 156.5 19c58 0 109.5 -6.33301 154.5 -19
s84 -30.5 117 -53.5s60.667 -50.5 83 -82.5s40.5 -67.667 54.5 -107c15.333 -44 26.333 -91.667 33 -143s10 -105 10 -161zM278.998 1212v203h225v-203h-225zM607.998 1212v203h226v-203h-226z" />
    <glyph glyph-name="divide" unicode="&#xf7;" 
d="M713 395c0 -18 -3.66699 -35 -11 -51s-17 -30 -29 -42s-26 -21.667 -42 -29s-33 -11 -51 -11s-35.167 3.66699 -51.5 11s-30.5 17 -42.5 29s-21.667 26 -29 42s-11 33 -11 51s3.66699 35 11 51s17 30.167 29 42.5s26.167 22 42.5 29s33.5 10.5 51.5 10.5
s35 -3.5 51 -10.5s30 -16.667 42 -29s21.667 -26.5 29 -42.5s11 -33 11 -51zM131 639v201h897v-201h-897zM713 1083c0 -18 -3.66699 -35 -11 -51s-17 -30 -29 -42s-26 -21.667 -42 -29s-33 -11 -51 -11s-35.167 3.66699 -51.5 11s-30.5 17 -42.5 29s-21.667 26 -29 42
s-11 33 -11 51s3.66699 35.167 11 51.5s17 30.5 29 42.5s26.167 21.667 42.5 29s33.5 11 51.5 11s35 -3.66699 51 -11s30 -17 42 -29s21.667 -26.167 29 -42.5s11 -33.5 11 -51.5z" />
    <glyph glyph-name="oslash" unicode="&#xf8;" horiz-adv-x="1090" 
d="M750 532c0 29.333 -0.666992 56.668 -2 82.001s-3.66602 48.666 -6.99902 69.999l-323 -471c16.667 -15.333 35.667 -26.333 57 -33s45.333 -10 72 -10c41.333 0 76.166 8.83301 104.499 26.5s50.833 49.167 67.5 94.5c10 28 17.667 61.667 23 101s8 86 8 140z
M682 842.002c-17.333 19.333 -37.167 33 -59.5 41s-47.5 12 -75.5 12c-42 0 -77.833 -8.83301 -107.5 -26.5s-52.5 -49.167 -68.5 -94.5c-20.667 -54 -31 -134.667 -31 -242c0 -34.667 1 -66 3 -94s5 -54 9 -78zM998.999 532.002
c0 -56.667 -3.33105 -110.665 -9.99805 -161.998s-17.667 -99 -33 -143c-14 -38.667 -32.5 -74 -55.5 -106s-51 -59.333 -84 -82s-71.667 -40.334 -116 -53.001s-95.5 -19 -153.5 -19c-54 0 -102.333 5.5 -145 16.5s-80.334 26.167 -113.001 45.5l-86 -127l-113 78l98 143
c-23.333 34.667 -42.333 73 -57 115c-15.333 43.333 -26 89.666 -32 138.999s-9 101 -9 155c0 56.667 3.33301 110.5 10 161.5s17.667 98.5 33 142.5c14 39.333 32.5 75 55.5 107s51.167 59.5 84.5 82.5s72.5 40.833 117.5 53.5s97.167 19 156.5 19
c56.667 0 106.5 -6 149.5 -18s81.167 -28.667 114.5 -50l76 109l112 -78l-90 -131c22.667 -34.667 40.667 -73 54 -115s22.666 -86.667 27.999 -134s8 -97 8 -149z" />
    <glyph glyph-name="ugrave" unicode="&#xf9;" horiz-adv-x="1112" 
d="M748 0l-6.99902 118.999c-14 -17.333 -29.833 -35 -47.5 -53s-38.667 -34.167 -63 -48.5s-52.333 -26 -84 -35s-67.834 -13.5 -108.501 -13.5c-34.667 0 -70.5 4.83301 -107.5 14.5s-70.667 27 -101 52s-55.333 58.833 -75 101.5s-29.5 97.334 -29.5 164.001v764h256
v-719c0 -43.333 12.833 -78 38.5 -104s63.167 -39 112.5 -39c29.333 0 56 6.33301 80 19s44.667 29.834 62 51.501s30.833 46.667 40.5 75s14.5 58.166 14.5 89.499v627h256v-1065h-237zM502.001 1200l-227 260h268l111 -260h-152z" />
    <glyph glyph-name="uacute" unicode="&#xfa;" horiz-adv-x="1112" 
d="M748 0l-6.99902 118.999c-14 -17.333 -29.833 -35 -47.5 -53s-38.667 -34.167 -63 -48.5s-52.333 -26 -84 -35s-67.834 -13.5 -108.501 -13.5c-34.667 0 -70.5 4.83301 -107.5 14.5s-70.667 27 -101 52s-55.333 58.833 -75 101.5s-29.5 97.334 -29.5 164.001v764h256
v-719c0 -43.333 12.833 -78 38.5 -104s63.167 -39 112.5 -39c29.333 0 56 6.33301 80 19s44.667 29.834 62 51.501s30.833 46.667 40.5 75s14.5 58.166 14.5 89.499v627h256v-1065h-237zM600.001 1200h-151l110 260h269z" />
    <glyph glyph-name="ucircumflex" unicode="&#xfb;" horiz-adv-x="1112" 
d="M748 0l-6.99902 118.999c-14 -17.333 -29.833 -35 -47.5 -53s-38.667 -34.167 -63 -48.5s-52.333 -26 -84 -35s-67.834 -13.5 -108.501 -13.5c-34.667 0 -70.5 4.83301 -107.5 14.5s-70.667 27 -101 52s-55.333 58.833 -75 101.5s-29.5 97.334 -29.5 164.001v764h256
v-719c0 -43.333 12.833 -78 38.5 -104s63.167 -39 112.5 -39c29.333 0 56 6.33301 80 19s44.667 29.834 62 51.501s30.833 46.667 40.5 75s14.5 58.166 14.5 89.499v627h256v-1065h-237zM620.001 1198l-82 100l-86 -100h-227l225 260h178l218 -260h-226z" />
    <glyph glyph-name="udieresis" unicode="&#xfc;" horiz-adv-x="1112" 
d="M748 0l-6.99902 118.999c-14 -17.333 -29.833 -35 -47.5 -53s-38.667 -34.167 -63 -48.5s-52.333 -26 -84 -35s-67.834 -13.5 -108.501 -13.5c-34.667 0 -70.5 4.83301 -107.5 14.5s-70.667 27 -101 52s-55.333 58.833 -75 101.5s-29.5 97.334 -29.5 164.001v764h256
v-719c0 -43.333 12.833 -78 38.5 -104s63.167 -39 112.5 -39c29.333 0 56 6.33301 80 19s44.667 29.834 62 51.501s30.833 46.667 40.5 75s14.5 58.166 14.5 89.499v627h256v-1065h-237zM258.001 1212v203h225v-203h-225zM587.001 1212v203h226v-203h-226z" />
    <glyph glyph-name="yacute" unicode="&#xfd;" horiz-adv-x="1024" 
d="M569 -84c-24 -62 -48.8301 -113 -74.4971 -153s-52.834 -71.5 -81.501 -94.5s-59.334 -39 -92.001 -48s-68 -13.5 -106 -13.5c-22.667 0 -41.334 0.5 -56.001 1.5s-28.667 3.16699 -42 6.5v225c9.33301 -2 18.5 -3.5 27.5 -4.5s19.5 -1.5 31.5 -1.5
c17.333 0 33.833 1.83301 49.5 5.5s30.5 10.667 44.5 21s27.167 24.333 39.5 42s23.833 40.5 34.5 68.5l33 84l-367 1010h266l234 -657l250 657h254zM598.003 1200h-151l110 260h269z" />
    <glyph glyph-name="thorn" unicode="&#xfe;" horiz-adv-x="1116" 
d="M764 532c0 38 -0.999023 75.001 -2.99902 111.001s-5.66699 64.667 -11 86c-4 19.333 -10.333 37.833 -19 55.5s-19.834 33.167 -33.501 46.5s-30.167 23.833 -49.5 31.5s-42 11.5 -68 11.5c-25.333 0 -49.833 -4.33301 -73.5 -13s-44.667 -21.834 -63 -39.501
s-33 -40 -44 -67s-16.5 -58.833 -16.5 -95.5v-253c0 -34 4.83301 -64.5 14.5 -91.5s23 -49.833 40 -68.5s37.5 -33 61.5 -43s50.333 -15 79 -15c49.333 0 88.5 14.333 117.5 43s47.833 69 56.5 121c1.33301 8 2.83301 18.667 4.5 32s3 28 4 44s1.83301 32.833 2.5 50.5
s1 35.5 1 53.5zM1026 532.001c0 -72.667 -3.16699 -136.334 -9.5 -191.001s-16.833 -102 -31.5 -142c-8 -24 -20 -49.5 -36 -76.5s-37.167 -52 -63.5 -75s-58.5 -42.167 -96.5 -57.5s-83.333 -23 -136 -23c-36 0 -67.833 3.66699 -95.5 11s-52.334 17 -74.001 29
s-40.667 25.333 -57 40s-30.833 29 -43.5 43v-483h-256v1868h256v-510c12.667 16 27.5 32 44.5 48s36.5 30.333 58.5 43s47 22.834 75 30.501s59.333 11.5 94 11.5c78.667 0 143.334 -14.5 194.001 -43.5s90 -71.833 118 -128.5c24.667 -50 40.667 -107.333 48 -172
s11 -138.667 11 -222z" />
    <glyph glyph-name="ydieresis" unicode="&#xff;" horiz-adv-x="1024" 
d="M569 -84c-24 -62 -48.8301 -113 -74.4971 -153s-52.834 -71.5 -81.501 -94.5s-59.334 -39 -92.001 -48s-68 -13.5 -106 -13.5c-22.667 0 -41.334 0.5 -56.001 1.5s-28.667 3.16699 -42 6.5v225c9.33301 -2 18.5 -3.5 27.5 -4.5s19.5 -1.5 31.5 -1.5
c17.333 0 33.833 1.83301 49.5 5.5s30.5 10.667 44.5 21s27.167 24.333 39.5 42s23.833 40.5 34.5 68.5l33 84l-367 1010h266l234 -657l250 657h254zM258.003 1212v203h225v-203h-225zM587.003 1212v203h226v-203h-226z" />
    <glyph glyph-name="dotlessi" unicode="&#x131;" horiz-adv-x="510" 
d="M127 0v1065h256v-1065h-256z" />
    <glyph glyph-name="Lslash" unicode="&#x141;" horiz-adv-x="1026" 
d="M162 0v518l-109 -108v229l109 109v727h262v-463l221 221v-229l-221 -222v-540h575v-242h-837z" />
    <glyph glyph-name="lslash" unicode="&#x142;" horiz-adv-x="510" 
d="M383 762v-762h-256v504l-102 -103v205l102 103v766h256v-508l102 102v-205z" />
    <glyph glyph-name="OE" unicode="&#x152;" horiz-adv-x="1825" 
d="M909 1165c-12 16.667 -24.999 31.6689 -38.999 45.002c-24.667 21.333 -52.834 37.666 -84.501 48.999s-65.5 17 -101.5 17c-44 0 -82.167 -7.16699 -114.5 -21.5s-59.166 -33.166 -80.499 -56.499c-25.333 -28 -44.833 -61.167 -58.5 -99.5s-23.5 -78.5 -29.5 -120.5
s-9.5 -84 -10.5 -126s-1.5 -80.333 -1.5 -115c0 -36.667 0.5 -77.167 1.5 -121.5s5 -88.333 12 -132s18.5 -85 34.5 -124s39 -71.5 69 -97.5c21.333 -19.333 46.666 -34.333 75.999 -45s64 -16 104 -16c39.333 0 74.5 6.66699 105.5 20s60.167 31.666 87.5 54.999
c5.33301 5.33301 10.333 10.666 15 15.999l15 17v856zM909.001 -1.99805l0.000976562 70.001c-17.333 -12.667 -35 -24.5 -53 -35.5s-37.667 -20.667 -59 -29s-45.5 -14.833 -72.5 -19.5s-58.167 -7 -93.5 -7c-68.667 0 -132.167 9.5 -190.5 28.5
s-108.166 49.167 -149.499 90.5c-38 37.333 -68.833 79.833 -92.5 127.5s-42 99 -55 154s-21.667 112.833 -26 173.5s-6.5 122.667 -6.5 186c0 54 1.66699 110.167 5 168.5s10.833 115.5 22.5 171.5s28.667 108.833 51 158.5s52.166 93.167 89.499 130.5
c42 43.333 89.5 76 142.5 98s114.5 33 184.5 33c80.667 0 144.667 -7.83301 192 -23.5s83.666 -37.834 108.999 -66.501v70h830v-228h-574v-379h545v-225h-545v-420h590v-227h-844z" />
    <glyph glyph-name="oe" unicode="&#x153;" horiz-adv-x="1688" 
d="M739 532c0 52 -2.33398 96.665 -7.00098 133.998s-11.667 69.333 -21 96c-15.333 44 -36.666 74.5 -63.999 91.5s-61.333 25.5 -102 25.5c-39.333 0 -73 -8.66699 -101 -26s-49.667 -47 -65 -89c-19.333 -54 -29 -131.333 -29 -232c0 -51.333 2.5 -95.666 7.5 -132.999
s12.167 -69.333 21.5 -96c15.333 -43.333 36.833 -73.666 64.5 -90.999s62.167 -26 103.5 -26c31.333 0 59 5.33301 83 16s44 29.167 60 55.5s28.167 61.833 36.5 106.5s12.5 100.667 12.5 168zM1356 634.998c0 48.667 -4.16797 89.501 -12.501 122.501
s-20.333 59.333 -36 79s-34.5 33.667 -56.5 42s-46.333 12.5 -73 12.5c-27.333 0 -52.166 -4 -74.499 -12s-41.5 -21.833 -57.5 -41.5s-28.833 -45.834 -38.5 -78.501s-15.167 -74 -16.5 -124h365zM988.998 452.999v-35.0029c0 -44 5.16699 -80.667 15.5 -110
s24.833 -53 43.5 -71s41 -30.667 67 -38s55 -11 87 -11c29.333 0 54.833 3.83301 76.5 11.5s40 17.5 55 29.5s27.333 25 37 39s17.167 27 22.5 39l206 -100c-12 -27.333 -27.667 -55.166 -47 -83.499s-45 -54.166 -77 -77.499s-71.333 -42.333 -118 -57s-103 -22 -169 -22
c-72.667 0 -136 11.167 -190 33.5s-100 57.5 -138 105.5c-36 -45.333 -79.5 -79.833 -130.5 -103.5s-111.833 -35.5 -182.5 -35.5c-58.667 0 -110.5 6.33301 -155.5 19s-84.333 30.334 -118 53.001s-62 50 -85 82s-41.5 67.333 -55.5 106c-15.333 44 -26.333 91.667 -33 143
s-10 105.333 -10 162s3.33301 110.5 10 161.5s17.667 98.5 33 142.5c14 39.333 32.5 75 55.5 107s51.167 59.5 84.5 82.5s72.5 40.833 117.5 53.5s97.167 19 156.5 19c72.667 0 134.667 -12 186 -36s95 -59.333 131 -106c38.667 48.667 84.667 84.5 138 107.5
s118 34.5 194 34.5c70 0 129 -9.33301 177 -28s87.333 -43 118 -73c24.667 -24 44.5 -50.167 59.5 -78.5s26.833 -59.5 35.5 -93.5s14.5 -71 17.5 -111s4.5 -83.333 4.5 -130v-131h-619z" />
    <glyph glyph-name="Scaron" unicode="&#x160;" horiz-adv-x="1188" 
d="M1098 395c0 -33.333 -3.66504 -66.9951 -10.998 -100.995s-19 -66.833 -35 -98.5s-37 -61.5 -63 -89.5s-57.833 -52.167 -95.5 -72.5s-81.334 -36.5 -131.001 -48.5s-106.5 -18 -170.5 -18c-72.667 0 -137.167 8.33301 -193.5 25s-105.666 40.5 -147.999 71.5
s-78.166 68.333 -107.499 112s-53 92.5 -71 146.5l223 100c14.667 -39.333 31.334 -74 50.001 -104s40.167 -55 64.5 -75s52.166 -35.167 83.499 -45.5s67 -15.5 107 -15.5c42 0 78.833 5 110.5 15s57.5 24.333 77.5 43c15.333 14 27.5 31.333 36.5 52s13.5 45.667 13.5 75
c0 44 -11.167 82.167 -33.5 114.5s-59.833 60.166 -112.5 83.499c-44 19.333 -87.667 37.166 -131 53.499l-127 49.5l-80 36.5c-26 12.333 -50.5 26 -73.5 41s-44.167 31.5 -63.5 49.5s-36.333 38.333 -51 61c-18.667 28 -32.834 59.667 -42.501 95s-14.5 76 -14.5 122
c0 25.333 2 53.833 6 85.5s12.333 63.5 25 95.5s30.167 63.167 52.5 93.5s51.833 57.333 88.5 81s81.334 42.667 134.001 57s115.667 21.5 189 21.5c66.667 0 126 -6.83301 178 -20.5s97.5 -33.334 136.5 -59.001s72.167 -56.667 99.5 -93s49.666 -77.166 66.999 -122.499
l-217 -112c-16 37.333 -33.333 68.5 -52 93.5s-39.167 45.167 -61.5 60.5s-47 26.166 -74 32.499s-57.167 9.5 -90.5 9.5c-41.333 0 -78 -6 -110 -18s-57.667 -30.333 -77 -55c-13.333 -17.333 -23.5 -37.333 -30.5 -60s-10.5 -48.667 -10.5 -78
c0 -36.667 10.333 -67.834 31 -93.501s48 -48.167 82 -67.5s72.833 -36.833 116.5 -52.5l133.5 -48.5c30.667 -12 61.167 -24.667 91.5 -38s59.166 -28.333 86.499 -45s52.666 -35.334 75.999 -56.001s43 -44 59 -70c8 -12 15.5 -25 22.5 -39s13.333 -29.5 19 -46.5
s10.167 -36.5 13.5 -58.5s5 -47 5 -75zM715.002 1546h-178l-217 260h225l82 -100l86 100h228z" />
    <glyph glyph-name="scaron" unicode="&#x161;" horiz-adv-x="995" 
d="M721 784c-6 14.667 -13.8311 28.6699 -23.498 42.0029s-21.834 25.166 -36.501 35.499s-32 18.5 -52 24.5s-43.333 9 -70 9c-56.667 0 -98.334 -11 -125.001 -33c-24.667 -18 -37 -45.333 -37 -82c0 -18 5.66699 -34 17 -48s27.666 -26.833 48.999 -38.5
s47.333 -22.5 78 -32.5s65.334 -20 104.001 -30c39.333 -10.667 73.166 -22.167 101.499 -34.5s52.666 -25.166 72.999 -38.499s37 -26.833 50 -40.5s23.5 -27.167 31.5 -40.5c12 -20.667 22.167 -45.667 30.5 -75s12.5 -63.666 12.5 -102.999c0 -28 -2.33301 -53 -7 -75
s-10.667 -41.333 -18 -58s-15.166 -31.167 -23.499 -43.5s-16.166 -23.166 -23.499 -32.499c-12 -14.667 -28.333 -29.334 -49 -44.001s-45.167 -27.834 -73.5 -39.501s-60.166 -21.167 -95.499 -28.5s-74 -11 -116 -11c-34 0 -64.333 1.66699 -91 5s-51.334 8 -74.001 14
s-43.334 13.167 -62.001 21.5s-37 17.5 -55 27.5c-35.333 20.667 -66.166 46.667 -92.499 78s-46.166 64.666 -59.499 99.999l215 92c10 -16 21.5 -31.5 34.5 -46.5s27.833 -28.167 44.5 -39.5s35.5 -20.333 56.5 -27s44.833 -10 71.5 -10c23.333 0 45.333 1.83301 66 5.5
s38.5 9.83398 53.5 18.501s26.833 19.834 35.5 33.501s13 30.167 13 49.5c0 23.333 -5.5 42.166 -16.5 56.499s-27 26.833 -48 37.5s-47.333 20.5 -79 29.5s-67.834 20.167 -108.501 33.5c-20.667 7.33301 -40.167 14.666 -58.5 21.999s-35.833 15.333 -52.5 24
c-28 13.333 -51.667 27.5 -71 42.5s-35 30.167 -47 45.5c-10.667 13.333 -19.667 27.833 -27 43.5s-13.333 31.667 -18 48s-8 32.166 -10 47.499s-3 29 -3 41c0 25.333 2.83301 52.833 8.5 82.5s15.834 58.167 30.501 85.5c11.333 21.333 26.666 42.166 45.999 62.499
s43.666 38.5 72.999 54.5s64 28.833 104 38.5s86 14.5 138 14.5c98.667 0 181.834 -18 249.501 -54s115.5 -91 143.5 -165zM641.002 1198h-178l-217 260h225l82 -100l86 100h228z" />
    <glyph glyph-name="Ydieresis" unicode="&#x178;" horiz-adv-x="1141" 
d="M690 598v-598h-262v598l-418 877h281l280 -623l291 623h268zM299 1560v203h225v-203h-225zM628 1560v203h226v-203h-226z" />
    <glyph glyph-name="Zcaron" unicode="&#x17d;" horiz-adv-x="977" 
d="M610 1546h-178l-217 260h225l82 -100l86 100h228zM41 0v225l610 1008h-585v242h886v-224l-612 -1009h637v-242h-936z" />
    <glyph glyph-name="zcaron" unicode="&#x17e;" horiz-adv-x="840" 
d="M532 1198h-178l-217 260h225l82 -100l86 100h228zM41 0v180l473 682h-446v203h757v-180l-473 -682h488v-203h-799z" />
    <glyph glyph-name="florin" unicode="&#x192;" 
d="M1081 1257c-14.667 2 -27.502 3.66602 -38.502 4.99902l-30 3.5c-9 1 -17.667 1.66699 -26 2s-16.833 0.5 -25.5 0.5c-26 0 -48.333 -2.66699 -67 -8s-34.667 -13 -48 -23c-18.667 -14.667 -32.667 -33.167 -42 -55.5s-17.333 -47.5 -24 -75.5
c-3.33301 -13.333 -6 -27 -8 -41s-4.66699 -28.333 -8 -43h237l-43 -201h-233l-170 -866c-12.667 -60.667 -29.167 -113.334 -49.5 -158.001s-48.166 -81.334 -83.499 -110.001c-33.333 -27.333 -72.5 -47.5 -117.5 -60.5s-99.5 -19.5 -163.5 -19.5
c-3.33301 0 -7.16602 0.166992 -11.499 0.5s-10.5 0.5 -18.5 0.5c-7.33301 0 -16.833 0.166992 -28.5 0.5s-26.834 0.5 -45.501 0.5l45 219c14 -2.66699 25 -4.66699 33 -6s17.667 -2.66602 29 -3.99902h6c26.667 0 48.834 1.83301 66.501 5.5s32.334 11.334 44.001 23.001
s21.334 28 29.001 49s14.834 49.167 21.501 84.5l166 841h-137l43 201h135l16 79c5.33301 27.333 11.666 55 18.999 83c11.333 40 26.166 78 44.499 114s44.5 67.667 78.5 95c21.333 16.667 43.833 30.5 67.5 41.5s47.5 19.833 71.5 26.5s48 11.334 72 14.001s47 4 69 4
c13.333 0 26.333 -0.333008 39 -1s25.5 -1.66699 38.5 -3s26.667 -3 41 -5s30.166 -4 47.499 -6z" />
    <glyph glyph-name="circumflex" unicode="&#x2c6;" horiz-adv-x="702" 
d="M436 1198l-82 100l-86 -100h-227l225 260h178l218 -260h-226z" />
    <glyph glyph-name="caron" unicode="&#x2c7;" horiz-adv-x="702" 
d="M436 1198h-178l-217 260h225l82 -100l86 100h228z" />
    <glyph glyph-name="breve" unicode="&#x2d8;" horiz-adv-x="702" 
d="M655 1450c-2.66699 -23.333 -6.49805 -44.1689 -11.498 -62.502s-11.5 -34.666 -19.5 -48.999s-17.333 -27.166 -28 -38.499s-23 -22 -37 -32c-55.333 -37.333 -123.666 -56 -204.999 -56c-46.667 0 -87.334 5.33301 -122.001 16s-64.5 26 -89.5 46
s-45.167 44.833 -60.5 74.5s-27 63.5 -35 101.5h193c4 -21.333 9.16699 -38.666 15.5 -51.999s14.166 -23.833 23.499 -31.5s20.166 -13 32.499 -16s26.5 -4.5 42.5 -4.5s30.167 1.5 42.5 4.5s23 8.33301 32 16s16.667 18.167 23 31.5s11.5 30.666 15.5 51.999h188z" />
    <glyph glyph-name="dotaccent" unicode="&#x2d9;" horiz-adv-x="702" 
d="M229 1212v234h244v-232z" />
    <glyph glyph-name="nundagesh" unicode="&#x2da;" horiz-adv-x="702" 
d="M434 1331c0 22.667 -7.33398 40.333 -22.001 53c-20.667 16.667 -40.667 25 -60 25c-11.333 0 -22.166 -2 -32.499 -6s-19.166 -9.66699 -26.499 -17s-13 -15.5 -17 -24.5s-6 -19.167 -6 -30.5c0 -20.667 7.5 -38.167 22.5 -52.5s34.833 -21.5 59.5 -21.5
c11.333 0 22 2 32 6s18.667 9.5 26 16.5s13.166 14.833 17.499 23.5s6.5 18 6.5 28zM540.999 1333c0 -50.667 -18.002 -93 -54.002 -127c-19.333 -18.667 -40.333 -32.167 -63 -40.5s-46.667 -12.5 -72 -12.5c-26.667 0 -51.5 4.66699 -74.5 14s-43 22 -60 38
s-30.5 35 -40.5 57s-15 45.667 -15 71s4.66699 49 14 71s22.333 40.667 39 56c17.333 16.667 37.833 29.667 61.5 39s48.834 14 75.501 14c24.667 0 48.334 -4.33301 71.001 -13s42.667 -21.334 60 -38.001c17.333 -16 31.333 -35.167 42 -57.5s16 -46.166 16 -71.499z" />
    <glyph glyph-name="ogonek" unicode="&#x2db;" horiz-adv-x="702" 
d="M557 -377c-36 -9.33301 -68.502 -15.665 -97.502 -18.998s-53.833 -5 -74.5 -5c-32.667 0 -63.5 4.33301 -92.5 13s-54.5 21.667 -76.5 39s-39.333 38.666 -52 63.999s-19 54.666 -19 87.999c0 30 4.33301 62.167 13 96.5s22.334 74.5 41.001 120.5h172l-25.5 -65.5
c-7 -18.333 -12.667 -34.5 -17 -48.5s-7.33301 -26.167 -9 -36.5s-2.5 -20.166 -2.5 -29.499c0 -18 2.66699 -33.167 8 -45.5s12.333 -22 21 -29s18.834 -12 30.501 -15s24.167 -4.5 37.5 -4.5c15.333 0 34 1.66699 56 5s51 8.66602 87 15.999v-144z" />
    <glyph glyph-name="tilde" unicode="&#x2dc;" horiz-adv-x="702" 
d="M641 1409c0 -39.333 -3.8291 -71.998 -11.4961 -97.998s-18.834 -47.333 -33.501 -64s-31.667 -28.334 -51 -35.001s-40.666 -10 -63.999 -10c-24.667 0 -47.334 3 -68.001 9s-40.334 12.667 -59.001 20l-55.5 25.5c-16.333 7.66699 -29.833 11.5 -40.5 11.5
c-6 0 -11.833 -0.666992 -17.5 -2s-10.834 -4.5 -15.501 -9.5s-8.83398 -12.5 -12.501 -22.5s-6.83398 -23.333 -9.50098 -40h-142v47c0 38.667 3.83301 71.167 11.5 97.5s18.5 47.666 32.5 63.999s30.833 28 50.5 35s41.5 10.5 65.5 10.5c25.333 0 49 -3.33301 71 -10
s42.667 -13.667 62 -21l52 -24.5c15.333 -7 28 -10.5 38 -10.5c6 0 11.833 0.666992 17.5 2s10.834 4.5 15.501 9.5s9 12.5 13 22.5s7.33301 23.333 10 40h141v-47z" />
    <glyph glyph-name="hungarumlaut" unicode="&#x2dd;" horiz-adv-x="702" 
d="M162 1200h-154l111 260h248zM487 1200h-151l110 260h248z" />
    <glyph glyph-name="Delta" unicode="&#x394;" horiz-adv-x="1214" 
d="M586 1108l-248 -866h510zM10 0l447 1475h262l485 -1475h-1194z" />
    <glyph glyph-name="Omega" unicode="&#x3a9;" horiz-adv-x="1380" 
d="M780 0l-0.00292969 185.998c36.667 31.333 67.667 66.333 93 105s45.833 82.334 61.5 131.001s27 103.167 34 163.5s10.5 127.833 10.5 202.5c0 99.333 -7.16699 183.166 -21.5 251.499s-37.833 122.5 -70.5 162.5c-23.333 27.333 -50 47.833 -80 61.5
s-68.333 20.5 -115 20.5c-39.333 0 -74.5 -5.66699 -105.5 -17s-57.167 -29 -78.5 -53c-38 -38.667 -65.333 -93.334 -82 -164.001s-25 -158 -25 -262c0 -74.667 3.5 -142.167 10.5 -202.5s18.5 -114.833 34.5 -163.5s36.667 -92.334 62 -131.001s56 -73.667 92 -105v-186
h-487v209h176c-26.667 38 -50.334 78.333 -71.001 121s-38 88.667 -52 138s-24.667 102 -32 158s-11 116.333 -11 181c0 26.667 1.33301 55.334 4 86.001s6.33398 61.334 11.001 92.001s10.167 60.5 16.5 89.5s13.5 55.167 21.5 78.5c16.667 52 38.834 99.833 66.501 143.5
s62.167 81 103.5 112s90.333 55.167 147 72.5s122.334 26 197.001 26s140.334 -8.66699 197.001 -26s105.834 -41.666 147.501 -72.999s76.5 -68.666 104.5 -111.999s51 -91 69 -143c10 -30 18.333 -61.333 25 -94s11.667 -64.5 15 -95.5s5.66602 -60.167 6.99902 -87.5
s2 -50.333 2 -69c0 -64.667 -3.66699 -125 -11 -181s-18 -108.667 -32 -158s-31.167 -95.333 -51.5 -138s-43.833 -83 -70.5 -121h176v-209h-488z" />
    <glyph glyph-name="pi" unicode="&#x3c0;" horiz-adv-x="1153" 
d="M993 862v-862h-256v862h-319v-862h-256v862h-121v203h1071v-203h-119z" />
    <glyph glyph-name="endash" unicode="&#x2013;" horiz-adv-x="1044" 
d="M-2 412v215h1049v-213z" />
    <glyph glyph-name="emdash" unicode="&#x2014;" horiz-adv-x="2068" 
d="M-2 412v215h2073v-213z" />
    <glyph glyph-name="quoteleft" unicode="&#x2018;" horiz-adv-x="502" 
d="M406 1331c-12.667 -2 -24.5 -4.49805 -35.5 -7.49805s-20.5 -6.5 -28.5 -10.5c-19.333 -9.33301 -33.666 -22.5 -42.999 -39.5s-14 -41.5 -14 -73.5v-39h104v-278h-276v286c0 67.333 9.33301 121.166 28 161.499s45.334 71.166 80.001 92.499
c23.333 15.333 50.666 27 81.999 35s65.666 13.667 102.999 17v-144z" />
    <glyph glyph-name="quoteright" unicode="&#x2019;" horiz-adv-x="502" 
d="M389 1188c0 -66.667 -9.33105 -120.333 -27.998 -161s-45.334 -71.667 -80.001 -93c-24 -15.333 -51.5 -26.833 -82.5 -34.5s-65.167 -13.167 -102.5 -16.5v143c26 4 47.333 10 64 18c19.333 9.33301 33.666 22.5 42.999 39.5s14 41.5 14 73.5v39h-104v279h276v-287z" />
    <glyph glyph-name="quotesinglbase" unicode="&#x201a;" horiz-adv-x="502" 
d="M389 -8c0 -66.667 -9.33105 -120.333 -27.998 -161s-45.334 -71.667 -80.001 -93c-24 -15.333 -51.5 -26.833 -82.5 -34.5s-65.167 -13.167 -102.5 -16.5v143c26 4 47.333 10 64 18c19.333 9.33301 33.666 22.5 42.999 39.5s14 41.5 14 73.5v39h-104v279h276v-287z" />
    <glyph glyph-name="quotedblleft" unicode="&#x201c;" horiz-adv-x="889" 
d="M406 1331c-12.667 -2 -24.5 -4.49805 -35.5 -7.49805s-20.5 -6.5 -28.5 -10.5c-19.333 -9.33301 -33.666 -22.5 -42.999 -39.5s-14 -41.5 -14 -73.5v-39h104v-278h-276v286c0 67.333 9.33301 121.166 28 161.499s45.334 71.166 80.001 92.499
c23.333 15.333 50.666 27 81.999 35s65.666 13.667 102.999 17v-144zM793 1331c-12.667 -2 -24.5 -4.49805 -35.5 -7.49805s-20.5 -6.5 -28.5 -10.5c-19.333 -9.33301 -33.666 -22.5 -42.999 -39.5s-14 -41.5 -14 -73.5v-39h104v-278h-276v286
c0 67.333 9.33301 121.166 28 161.499s45.334 71.166 80.001 92.499c23.333 15.333 50.666 27 81.999 35s65.666 13.667 102.999 17v-144z" />
    <glyph glyph-name="quotedblright" unicode="&#x201d;" horiz-adv-x="889" 
d="M389 1188c0 -66.667 -9.33105 -120.333 -27.998 -161s-45.334 -71.667 -80.001 -93c-24 -15.333 -51.5 -26.833 -82.5 -34.5s-65.167 -13.167 -102.5 -16.5v143c26 4 47.333 10 64 18c19.333 9.33301 33.666 22.5 42.999 39.5s14 41.5 14 73.5v39h-104v279h276v-287z
M776.002 1188c0 -66.667 -9.33301 -120.333 -28 -161s-45.334 -71.667 -80.001 -93c-23.333 -15.333 -50.666 -26.833 -81.999 -34.5s-65.666 -13.167 -102.999 -16.5v143c26 4 47.333 10 64 18c19.333 9.33301 33.666 22.5 42.999 39.5s14 41.5 14 73.5v39h-104v279h276
v-287z" />
    <glyph glyph-name="quotedblbase" unicode="&#x201e;" horiz-adv-x="889" 
d="M389 -8c0 -66.667 -9.33105 -120.333 -27.998 -161s-45.334 -71.667 -80.001 -93c-24 -15.333 -51.5 -26.833 -82.5 -34.5s-65.167 -13.167 -102.5 -16.5v143c26 4 47.333 10 64 18c19.333 9.33301 33.666 22.5 42.999 39.5s14 41.5 14 73.5v39h-104v279h276v-287z
M776.002 -7.99902c0 -66.667 -9.33301 -120.333 -28 -161s-45.334 -71.667 -80.001 -93c-23.333 -15.333 -50.666 -26.833 -81.999 -34.5s-65.666 -13.167 -102.999 -16.5v143c26 4 47.333 10 64 18c19.333 9.33301 33.666 22.5 42.999 39.5s14 41.5 14 73.5v39h-104v279
h276v-287z" />
    <glyph glyph-name="dagger" unicode="&#x2020;" horiz-adv-x="1016" 
d="M629 840v-1159h-240v1159h-317v211h313v422h240v-422h319v-211h-315z" />
    <glyph glyph-name="daggerdbl" unicode="&#x2021;" horiz-adv-x="1014" 
d="M627 59v-376h-238v376h-317v211h317v617h-317v211h313v377h238v-377h319v-211h-319v-617h319v-211h-315z" />
    <glyph glyph-name="bullet" unicode="&#x2022;" horiz-adv-x="961" 
d="M776 731c0 -41.333 -7.33398 -79.168 -22.001 -113.501s-36 -66.166 -64 -95.499c-28.667 -28.667 -60.334 -50.5 -95.001 -65.5s-72.667 -22.5 -114 -22.5s-79.666 7.66699 -114.999 23s-66.666 36.333 -93.999 63c-28 28 -49.667 59.833 -65 95.5s-23 74.167 -23 115.5
c0 42 8 81 24 117s37.333 68 64 96c27.333 25.333 58.666 45.666 93.999 60.999s73 23 113 23c41.333 0 79.833 -7.66699 115.5 -23s66.834 -35.666 93.501 -60.999c28 -28 49.667 -60 65 -96s23 -75 23 -117z" />
    <glyph glyph-name="ellipsis" unicode="&#x2026;" horiz-adv-x="2068" 
d="M213 0v276h276v-276h-276zM895 0v276h276v-276h-276zM1579 0v276h276v-276h-276z" />
    <glyph glyph-name="perthousand" unicode="&#x2030;" horiz-adv-x="2666" 
d="M532 1024c0 50 -1.83301 90.5 -5.5 121.5s-8.16699 55.333 -13.5 73s-11 30.5 -17 38.5s-11.667 14.333 -17 19c-16.667 14.667 -42 22 -76 22c-33.333 0 -58.333 -7.33301 -75 -22c-5.33301 -4.66699 -11.166 -11 -17.499 -19s-12.166 -20.833 -17.499 -38.5
s-9.83301 -42 -13.5 -73s-5.5 -71.5 -5.5 -121.5c0 -50.667 1.83301 -91.5 5.5 -122.5s8.16699 -55.5 13.5 -73.5s11.166 -31 17.499 -39s12.166 -14.333 17.499 -19c16.667 -14.667 41.667 -22 75 -22c34 0 59.333 7.33301 76 22c5.33301 4.66699 11 11 17 19
s11.667 21 17 39s9.83301 42.5 13.5 73.5s5.5 71.833 5.5 122.5zM1567 418c0 50 -1.83105 90.333 -5.49805 121s-8.16699 55 -13.5 73s-11.166 31 -17.499 39s-12.166 14.333 -17.499 19c-16.667 14.667 -41.667 22 -75 22c-34 0 -59.333 -7.33301 -76 -22
c-5.33301 -4.66699 -11 -11 -17 -19s-11.667 -21 -17 -39s-9.83301 -42.333 -13.5 -73s-5.5 -71 -5.5 -121c0 -50.667 1.83301 -91.5 5.5 -122.5s8.16699 -55.5 13.5 -73.5s11 -31 17 -39s11.667 -14.333 17 -19c17.333 -15.333 42.666 -23 75.999 -23
c17.333 0 32.166 2 44.499 6s22.5 9.66699 30.5 17c5.33301 4.66699 11.166 11 17.499 19s12.166 21 17.499 39s9.83301 42.5 13.5 73.5s5.5 71.833 5.5 122.5zM2392 418c0 50 -1.83301 90.333 -5.5 121s-8.16699 55 -13.5 73s-11.166 31 -17.5 39
c-6.33301 8 -11.833 14.333 -16.5 19c-8.66699 7.33301 -19.167 12.833 -31.5 16.5s-27.166 5.5 -44.5 5.5c-17.333 0 -32.166 -1.83301 -44.5 -5.5c-12.333 -3.66699 -22.833 -9.16699 -31.5 -16.5c-5.33301 -4.66699 -11 -11 -17 -19s-11.667 -21 -17 -39
s-9.83301 -42.333 -13.5 -73s-5.5 -71 -5.5 -121c0 -50.667 1.83301 -91.5 5.5 -122.5s8.16699 -55.5 13.5 -73.5s11 -31 17 -39s11.667 -14.333 17 -19c8.66699 -7.33301 19.167 -13 31.5 -17s27.166 -6 44.5 -6c17.333 0 32.166 2 44.5 6c12.333 4 22.833 9.66699 31.5 17
c4.66699 4.66699 10.167 11 16.5 19s12.166 21 17.5 39c5.33301 18 9.83301 42.5 13.5 73.5s5.5 71.833 5.5 122.5zM760.002 1024c0 -40.667 -1.5 -79.168 -4.5 -115.501s-8.66699 -70.166 -17 -101.499s-20.333 -60.5 -36 -87.5s-36.167 -51.167 -61.5 -72.5
c-30 -25.333 -64.667 -44 -104 -56s-84 -18 -134 -18s-93.333 5.5 -130 16.5s-68.334 26.167 -95.001 45.5c-26.667 20 -48.5 43.833 -65.5 71.5s-30.333 58.167 -40 91.5s-16.334 69 -20.001 107s-5.5 77.667 -5.5 119c0 40.667 1.83301 80.167 5.5 118.5
s10.334 74.166 20.001 107.499s23 63.833 40 91.5s38.833 51.5 65.5 71.5c26.667 19.333 58.334 34.5 95.001 45.5s80 16.5 130 16.5c50.667 0 94.167 -5.5 130.5 -16.5s68.166 -26.167 95.499 -45.5c26.667 -20 48.5 -43.833 65.5 -71.5s30.333 -58.167 40 -91.5
s16.334 -69.166 20.001 -107.499s5.5 -77.833 5.5 -118.5zM778.002 -33.001h-225l510 1508h225zM1794 417.999c0 -40.667 -1.33496 -79.168 -4.00195 -115.501s-8.33398 -70.166 -17.001 -101.499s-20.667 -60.5 -36 -87.5s-36 -51.167 -62 -72.5
c-30 -25.333 -64.667 -44 -104 -56s-83.666 -18 -132.999 -18c-50.667 0 -94.167 5.5 -130.5 16.5s-68.166 26.167 -95.499 45.5c-26.667 20 -48.5 43.833 -65.5 71.5s-30.333 58.167 -40 91.5s-16.334 69 -20.001 107s-5.5 77.667 -5.5 119
c0 40.667 1.83301 80.167 5.5 118.5s10.334 74.166 20.001 107.499s23 63.833 40 91.5s38.833 51.5 65.5 71.5c27.333 19.333 59.166 34.333 95.499 45s79.833 16 130.5 16c50 0 93.333 -5.33301 130 -16s68.334 -25.667 95.001 -45c26.667 -20 48.5 -43.833 65.5 -71.5
s30.333 -58.167 40 -91.5s16.334 -69.166 20.001 -107.499s5.5 -77.833 5.5 -118.5zM2619 417.998c0 -40.667 -1.33301 -79.168 -4 -115.501s-8.16699 -70.166 -16.5 -101.499s-20.333 -60.5 -36 -87.5s-36.167 -51.167 -61.5 -72.5c-30 -25.333 -64.833 -44 -104.5 -56
s-84.167 -18 -133.5 -18c-50 0 -93.333 5.5 -130 16.5s-68.334 26.167 -95 45.5c-26.667 20 -48.5 43.833 -65.5 71.5s-30.333 58.167 -40 91.5s-16.334 69 -20.001 107s-5.5 77.667 -5.5 119c0 40.667 1.83301 80.167 5.5 118.5s10.334 74.166 20.001 107.499
s23 63.833 40 91.5s38.833 51.5 65.5 71.5c26.667 19.333 58.334 34.333 95 45c36.667 10.667 80 16 130 16s93.333 -5.33301 130 -16s68.334 -25.667 95 -45c26.667 -20 48.5 -43.833 65.5 -71.5s30.333 -58.167 40 -91.5s16.334 -69.166 20 -107.499
c3.66699 -38.333 5.5 -77.833 5.5 -118.5z" />
    <glyph glyph-name="guilsinglleft" unicode="&#x2039;" horiz-adv-x="719" 
d="M457 25l-385 495l385 496l190 -92l-270 -404l270 -403z" />
    <glyph glyph-name="guilsinglright" unicode="&#x203a;" horiz-adv-x="719" 
d="M262 25l-190 92l270 403l-270 404l190 92l385 -496z" />
    <glyph glyph-name="Euro" unicode="&#x20ac;" 
d="M1126 285c-16 -43.333 -35.666 -84.333 -58.999 -123s-52.666 -72.5 -87.999 -101.5s-78 -51.833 -128 -68.5s-110.333 -25 -181 -25c-66 0 -125.333 9.33301 -178 28s-98.667 47.667 -138 87c-45.333 44 -82.166 101.833 -110.499 173.5s-48.166 153.167 -59.499 244.5
h-174l76 170h86v85c0 11.333 0.666992 25.333 2 42h-168l76 170h106c10.667 82 29.834 155.833 57.501 221.5s61.167 118.167 100.5 157.5c44 45.333 96.333 78.166 157 98.499s129.334 30.5 206.001 30.5c54 0 102.167 -4.66699 144.5 -14s79.833 -21.833 112.5 -37.5
s61.167 -33.667 85.5 -54s45.166 -41.166 62.499 -62.499l-100 -217c-12 24 -27 46.5 -45 67.5s-38.833 39.5 -62.5 55.5s-50 28.5 -79 37.5s-60.5 13.5 -94.5 13.5c-40 0 -75.5 -4.66699 -106.5 -14s-58.833 -26.666 -83.5 -51.999
c-21.333 -21.333 -39.833 -51.333 -55.5 -90s-27.167 -85.667 -34.5 -141h520l-76 -170h-459c-1.33301 -14.667 -2 -27.334 -2 -38.001v-89h418l-76 -170h-332c7.33301 -66.667 20.166 -123.167 38.499 -169.5s39.166 -80.833 62.499 -103.5
c18.667 -17.333 39.167 -29.833 61.5 -37.5s46.166 -11.5 71.499 -11.5c57.333 0 102.166 15.833 134.499 47.5s59.166 82.167 80.499 151.5z" />
    <glyph glyph-name="trademark" unicode="&#x2122;" horiz-adv-x="1626" 
d="M426 1317v-694h-182v694h-232v158h643v-158h-229zM1337 623v530l-131 -317h-143l-129 315v-528h-176v852h188l191 -428l194 428h182v-852h-176z" />
    <glyph glyph-name="partialdiff" unicode="&#x2202;" horiz-adv-x="1096" 
d="M739 494c0 72 -9.33398 135.332 -28.001 189.999c-15.333 44 -36.666 74.5 -63.999 91.5s-61.333 25.5 -102 25.5c-39.333 0 -73 -8.33301 -101 -25s-49.667 -46.667 -65 -90c-19.333 -54 -29 -117.333 -29 -190v8c0 -37.333 2.5 -73.5 7.5 -108.5
s12.167 -65.833 21.5 -92.5c15.333 -43.333 36.833 -73.666 64.5 -90.999s62.167 -26 103.5 -26c31.333 0 59 4.66699 83 14s44 25.666 60 48.999s28.167 54.833 36.5 94.5s12.5 89.834 12.5 150.501zM1006 603.999c0 -46 -1.16602 -87.3369 -3.49902 -124.004
s-5.66602 -70.167 -9.99902 -100.5s-9.5 -57.833 -15.5 -82.5s-13 -48 -21 -70c-14 -38.667 -32.333 -74 -55 -106s-50.5 -59.333 -83.5 -82s-71.833 -40.334 -116.5 -53.001s-96 -19 -154 -19c-58.667 0 -110.5 6.33301 -155.5 19s-84.333 30.334 -118 53.001
s-62 50 -85 82s-41.5 67.333 -55.5 106c-15.333 44 -26.333 89 -33 135s-10 90 -10 132s2.33301 86.5 7 133.5s14.667 92.5 30 136.5c16 44.667 35.667 82.834 59 114.501s49.833 57.334 79.5 77.001s62.167 34 97.5 43s72.666 13.5 111.999 13.5
c20.667 0 41.334 -1.16699 62.001 -3.5s41 -6.5 61 -12.5s39.167 -14.5 57.5 -25.5s36.166 -25.167 53.499 -42.5c-5.33301 42.667 -14 83.834 -26 123.501s-27.333 75 -46 106s-40.334 55.833 -65.001 74.5s-52.334 28 -83.001 28c-22.667 0 -42 -1.83301 -58 -5.5
s-30.167 -8.83398 -42.5 -15.501s-23.666 -14.667 -33.999 -24s-21.166 -19.666 -32.499 -30.999l-162 139c18 22 37.167 42.333 57.5 61s43.5 34.667 69.5 48s55.5 23.833 88.5 31.5s70.833 11.5 113.5 11.5c72 0 134.833 -13.5 188.5 -40.5s99.667 -63 138 -108
s69.833 -97.167 94.5 -156.5s44.167 -121.166 58.5 -185.499s24.166 -129.333 29.499 -195s8 -127.5 8 -185.5z" />
    <glyph glyph-name="product" unicode="&#x220f;" horiz-adv-x="1341" 
d="M918 0v1231h-494v-1231h-262v1475h1018v-1475h-262z" />
    <glyph glyph-name="summation" unicode="&#x2211;" horiz-adv-x="997" 
d="M23 0v225l460 541l-436 485v224h887v-242h-518l403 -451l-459 -540h598v-242h-935z" />
    <glyph glyph-name="minus" unicode="&#x2212;" 
d="M131 639v201h897v-201h-897z" />
    <glyph glyph-name="fraction" unicode="&#x2215;" horiz-adv-x="248" 
d="M-14 -33h-232l508 1508h232z" />
    <glyph glyph-name="radical" unicode="&#x221a;" horiz-adv-x="1403" 
d="M840 0h-185l-276 788l-180 -94l-86 158l395 211l246 -703l522 1444h215z" />
    <glyph glyph-name="infinity" unicode="&#x221e;" 
d="M487 735c-14 30.667 -27 56.168 -39 76.501s-23.5 36.5 -34.5 48.5s-22 20.5 -33 25.5s-22.5 7.5 -34.5 7.5c-16.667 0 -31.834 -4.33301 -45.501 -13s-25.167 -20.334 -34.5 -35.001s-16.666 -31.5 -21.999 -50.5s-8 -38.833 -8 -59.5c0 -54 10.667 -93.667 32 -119
s47.333 -38 78 -38c19.333 0 36.5 5.33301 51.5 16s28.167 24 39.5 40s21 33.167 29 51.5zM922 737.001c0 26.667 -3.16699 50 -9.5 70s-14.833 36.5 -25.5 49.5s-22.5 22.667 -35.5 29s-26.5 9.5 -40.5 9.5s-26.833 -2.83301 -38.5 -8.5s-23 -15 -34 -28
s-22 -29.667 -33 -50s-22.833 -45.5 -35.5 -75.5c20.667 -49.333 43 -87.5 67 -114.5s50 -40.5 78 -40.5c18.667 0 34.667 4.83301 48 14.5s24.333 22 33 37s15.167 32 19.5 51s6.5 37.833 6.5 56.5zM1081 735.001c0 -34 -4.83594 -69.166 -14.5029 -105.499
s-24.834 -69.833 -45.501 -100.5s-47.5 -55.834 -80.5 -75.501s-72.833 -29.5 -119.5 -29.5c-22.667 0 -44.334 2.5 -65.001 7.5s-41 13.167 -61 24.5s-39.5 26.666 -58.5 45.999s-37.833 43.666 -56.5 72.999c-18.667 -30 -37.834 -54.667 -57.501 -74
s-39.667 -34.833 -60 -46.5s-40.833 -19.667 -61.5 -24s-41 -6.5 -61 -6.5c-45.333 0 -84.5 9 -117.5 27s-60.167 41.667 -81.5 71s-37.166 62.666 -47.499 99.999s-15.5 75 -15.5 113c0 48.667 6.83301 92.334 20.5 131.001s32.167 71.334 55.5 98.001s51 47.167 83 61.5
s66.333 21.5 103 21.5c24 0 46.833 -2.5 68.5 -7.5s42.334 -13.333 62.001 -25s38.334 -27.167 56.001 -46.5s34.834 -43 51.501 -71c15.333 27.333 31.5 50.333 48.5 69s35.333 33.834 55 45.501s41 20 64 25s48.167 7.5 75.5 7.5c35.333 0 68.833 -7.16699 100.5 -21.5
s59.334 -34.833 83.001 -61.5s42.334 -59 56.001 -97s20.5 -81 20.5 -129z" />
    <glyph glyph-name="integral" unicode="&#x222b;" horiz-adv-x="1034" 
d="M995 1231c-28 12 -52.6621 20.1621 -73.9951 24.4951s-40.333 6.5 -57 6.5c-19.333 0 -37.666 -3.33301 -54.999 -10s-33.166 -18.334 -47.499 -35.001s-27 -39.334 -38 -68.001s-19.5 -65 -25.5 -109l-143 -1065c-7.33301 -51.333 -18.833 -99.5 -34.5 -144.5
s-37.334 -84.167 -65.001 -117.5s-62.334 -59.666 -104.001 -78.999s-91.834 -29 -150.501 -29c-21.333 0 -40.5 0.666992 -57.5 2s-32.667 3.33301 -47 6s-28.5 5.83398 -42.5 9.50098s-28.667 7.83398 -44 12.501l31 211c21.333 -9.33301 41.666 -15.666 60.999 -18.999
s40.666 -5 63.999 -5c21.333 0 39.833 3.16699 55.5 9.5s29 17.333 40 33s20 36.334 27 62.001s13.167 57.834 18.5 96.501l146 1062c8 60.667 20.667 115.334 38 164.001s41.166 90 71.499 124s68.166 60.167 113.499 78.5s100 27.5 164 27.5
c38 0 71.167 -3.16699 99.5 -9.5s56.5 -15.5 84.5 -27.5z" />
    <glyph glyph-name="approxequal" unicode="&#x2248;" 
d="M1014 483c-44 -30.667 -85.1699 -51.668 -123.503 -63.001s-78.5 -17 -120.5 -17c-24 0 -46.167 1.66699 -66.5 5s-40 7.83301 -59 13.5s-38 12 -57 19l-61.5 22.5c-18 6.66699 -33.167 12 -45.5 16s-24 7.33301 -35 10s-22.167 4.5 -33.5 5.5s-25 1.5 -41 1.5
c-24 0 -47 -4 -69 -12s-42.667 -18 -62 -30s-37 -25.167 -53 -39.5s-30 -27.5 -42 -39.5v213c20 14.667 38.833 27.667 56.5 39s35.834 21 54.501 29s38.667 14 60 18s45.666 6 72.999 6c34 0 68.167 -4.83301 102.5 -14.5s68 -20.167 101 -31.5l94.5 -31.5
c30 -9.66699 57.667 -14.5 83 -14.5c18.667 0 36.834 1.33301 54.501 4s35.834 8.33398 54.501 17.001s38.834 21.5 60.501 38.5s46.5 39.5 74.5 67.5v-232zM1014 878.999c-22 -15.333 -43.1699 -28.166 -63.5029 -38.499s-40.333 -18.5 -60 -24.5s-39.5 -10.333 -59.5 -13
s-40.333 -4 -61 -4c-24 0 -46.167 1.66699 -66.5 5s-40 7.66602 -59 12.999s-38 11.5 -57 18.5l-61.5 22.5l-45.5 16.5c-12.333 4.33301 -24 7.66602 -35 9.99902s-22.167 4 -33.5 5s-25 1.5 -41 1.5c-24 0 -47 -4 -69 -12s-42.667 -18 -62 -30s-37 -25.167 -53 -39.5
s-30 -27.5 -42 -39.5v213c20 14.667 38.833 27.667 56.5 39s35.834 21 54.501 29s38.667 14 60 18s45.666 6 72.999 6c34 0 68.167 -4.83301 102.5 -14.5s68 -20.167 101 -31.5l94.5 -31.5c30 -9.66699 57.667 -14.5 83 -14.5c18.667 0 36.834 1.33301 54.501 4
s35.834 8.33398 54.501 17.001s38.834 21.5 60.501 38.5s46.5 39.5 74.5 67.5v-231z" />
    <glyph glyph-name="notequal" unicode="&#x2260;" 
d="M532 440l-110 -221l-156 80l72 141h-207v201h307l97 195h-404v200h504l110 221l156 -79l-70 -142h197v-200h-297l-98 -195h395v-201h-496z" />
    <glyph glyph-name="lessequal" unicode="&#x2264;" 
d="M186 0v205h772v-205h-772zM891 305l-705 371v184l705 369l82 -187l-551 -274l551 -274z" />
    <glyph glyph-name="greaterequal" unicode="&#x2265;" 
d="M201 0v205h772v-205h-772zM268 305l-82 189l551 274l-551 274l82 187l705 -369v-184z" />
    <glyph glyph-name="lozenge" unicode="&#x25ca;" 
d="M578 1094l-211 -363l211 -379l215 379zM578 -33l-437 764l437 742l440 -742z" />
    <glyph glyph-name="fi" unicode="&#xfb01;" horiz-adv-x="1143" 
d="M674 1290l-59.001 5.50098c-18.667 1.66699 -40.667 2.5 -66 2.5c-26.667 0 -49.167 -3.5 -67.5 -10.5s-32.166 -15.5 -41.499 -25.5c-13.333 -15.333 -22.333 -33.333 -27 -54s-7 -48 -7 -82v-61h235v-203h-235v-862h-256v862h-138v203h135v68
c0 125.333 35 216.666 105 273.999c59.333 49.333 145.333 74 258 74c30 0 60.167 -1.16699 90.5 -3.5s54.833 -4.83301 73.5 -7.5v-180zM759.999 0.000976562v1065h256v-1065h-256zM759.999 1235v240h256v-240h-256z" />
    <glyph glyph-name="fl" unicode="&#xfb02;" horiz-adv-x="1143" 
d="M674 1290l-59.001 5.50098c-18.667 1.66699 -40.667 2.5 -66 2.5c-26.667 0 -49.167 -3.5 -67.5 -10.5s-32.166 -15.5 -41.499 -25.5c-13.333 -15.333 -22.333 -33.333 -27 -54s-7 -48 -7 -82v-61h235v-203h-235v-862h-256v862h-138v203h135v68
c0 125.333 35 216.666 105 273.999c59.333 49.333 145.333 74 258 74c30 0 60.167 -1.16699 90.5 -3.5s54.833 -4.83301 73.5 -7.5v-180zM759.999 0.000976562v1475h256v-1475h-256z" />
    </font>
</defs>
</svg>
